{"glyphs":{"0":{"ha":883,"x_min":76,"x_max":807,"o":"m 417 -11 q 159 105 242 -11 q 76 449 76 221 l 76 524 q 159 867 76 751 q 417 983 242 983 l 467 983 q 725 867 643 983 q 807 524 807 751 l 807 449 q 725 105 807 221 q 467 -11 643 -11 l 417 -11 m 463 117 q 663 421 663 117 l 663 551 q 463 856 663 856 l 422 856 q 222 551 222 856 l 222 421 q 422 117 222 117 l 463 117 z "},"1":{"ha":469,"x_min":29,"x_max":358,"o":"m 358 0 l 214 0 l 214 747 q 174 722 201 731 q 115 713 146 713 l 29 713 l 29 840 l 104 840 q 185 869 157 840 q 218 972 213 897 l 358 972 l 358 0 z "},"2":{"ha":796,"x_min":65,"x_max":732,"o":"m 75 649 q 112 826 72 750 q 227 942 151 901 q 406 983 303 983 q 574 947 500 983 q 688 844 647 911 q 729 690 729 778 q 672 514 729 593 q 501 379 614 435 l 358 308 q 253 231 297 278 q 208 128 208 183 l 732 128 l 732 0 l 67 0 l 67 100 q 132 295 65 214 q 297 426 199 376 l 449 501 q 551 583 519 538 q 582 692 582 629 q 533 813 582 767 q 407 860 485 860 q 268 802 318 860 q 222 649 218 744 l 75 649 z "},"3":{"ha":815,"x_min":50,"x_max":753,"o":"m 403 -11 q 224 28 304 -11 q 97 140 143 68 q 50 306 50 211 l 192 306 q 251 168 192 219 q 403 117 311 117 q 552 160 497 117 q 607 282 607 204 q 553 399 607 358 q 403 440 499 440 l 321 440 l 321 564 l 401 564 q 524 606 478 564 q 569 715 569 649 q 522 818 569 781 q 394 856 475 856 q 269 812 317 856 q 218 690 222 768 l 79 690 q 122 844 82 778 q 234 947 163 911 q 397 983 306 983 q 560 951 488 983 q 673 859 632 918 q 714 726 714 800 q 676 598 714 657 q 581 511 639 539 q 705 426 657 486 q 753 281 753 365 q 706 124 753 190 q 580 24 660 58 q 403 -11 500 -11 z "},"4":{"ha":875,"x_min":40,"x_max":838,"o":"m 551 228 l 40 228 l 40 356 l 533 972 l 696 972 l 696 356 l 838 356 l 838 228 l 696 228 l 696 0 l 551 0 l 551 228 m 551 356 l 551 807 l 189 356 l 551 356 z "},"5":{"ha":803,"x_min":56,"x_max":750,"o":"m 394 -11 q 227 26 301 -11 q 108 128 153 63 q 56 279 63 194 l 193 279 q 256 158 204 200 q 392 117 308 117 q 545 172 488 117 q 603 322 603 228 q 544 474 603 418 q 388 531 486 531 q 268 503 318 531 q 196 428 218 476 l 74 428 l 151 972 l 682 972 l 682 844 l 260 844 l 221 582 q 310 634 258 615 q 425 653 363 653 q 590 611 515 653 q 707 494 664 569 q 750 322 750 418 q 703 149 750 225 q 576 31 657 74 q 394 -11 496 -11 z "},"6":{"ha":857,"x_min":67,"x_max":794,"o":"m 435 -11 q 239 45 322 -11 q 111 204 156 101 q 67 443 67 307 q 117 737 67 615 q 256 921 167 858 q 463 983 344 983 q 621 949 549 983 q 738 853 693 914 q 794 718 783 793 l 654 718 q 588 821 640 783 q 463 858 536 858 q 330 813 388 858 q 240 689 272 768 q 203 511 207 610 q 308 611 239 572 q 460 650 376 650 q 630 608 556 650 q 745 492 704 567 q 786 322 786 417 q 741 151 786 226 q 616 32 696 75 q 435 -11 536 -11 m 435 117 q 581 174 524 117 q 639 322 639 232 q 584 466 639 410 q 442 522 529 522 q 291 465 351 522 q 231 321 231 408 q 288 174 231 232 q 435 117 346 117 z "},"7":{"ha":749,"x_min":18,"x_max":725,"o":"m 199 0 q 230 244 200 132 q 346 496 260 357 l 563 844 l 18 844 l 18 972 l 725 972 l 725 857 l 464 431 q 369 217 393 314 q 343 0 344 119 l 199 0 z "},"8":{"ha":828,"x_min":61,"x_max":765,"o":"m 414 -11 q 235 24 315 -11 q 108 124 156 58 q 61 279 61 190 q 110 430 61 364 q 236 524 160 496 q 139 607 176 554 q 101 726 101 660 q 141 859 101 800 q 251 951 181 918 q 414 983 322 983 q 576 951 506 983 q 687 859 647 918 q 726 726 726 800 q 689 607 726 660 q 592 524 651 554 q 717 430 669 496 q 765 279 765 364 q 719 124 765 190 q 592 24 672 58 q 414 -11 513 -11 m 414 117 q 565 160 510 117 q 621 282 621 204 q 565 405 621 360 q 414 450 508 450 q 263 405 319 450 q 206 282 206 360 q 263 160 206 204 q 414 117 319 117 m 414 581 q 540 619 493 581 q 588 722 588 657 q 540 824 588 786 q 414 861 493 861 q 288 824 335 861 q 242 722 242 786 q 288 619 242 657 q 414 581 335 581 z "},"9":{"ha":857,"x_min":63,"x_max":790,"o":"m 422 983 q 618 927 535 983 q 746 768 701 871 q 790 529 790 665 q 740 235 790 357 q 601 51 690 114 q 394 -11 513 -11 q 236 24 308 -11 q 119 119 164 58 q 63 254 74 179 l 203 254 q 269 151 217 189 q 394 114 321 114 q 527 159 469 114 q 617 283 585 204 q 654 461 650 363 q 549 361 618 400 q 397 322 481 322 q 227 364 301 322 q 112 481 153 406 q 71 650 71 556 q 116 822 71 746 q 241 940 161 897 q 422 983 321 983 m 422 856 q 276 798 333 856 q 218 650 218 740 q 273 506 218 563 q 415 450 328 450 q 566 507 506 450 q 626 651 626 564 q 569 799 626 742 q 422 856 513 856 z "},"\r":{"ha":321,"x_min":0,"x_max":0,"o":""}," ":{"ha":321,"x_min":0,"x_max":0,"o":""},"A":{"ha":925,"x_min":14,"x_max":911,"o":"m 396 972 l 529 972 l 911 0 l 761 0 l 668 247 l 257 247 l 164 0 l 14 0 l 396 972 m 621 374 l 463 792 l 304 374 l 621 374 z "},"Á":{"ha":925,"x_min":14,"x_max":911,"o":"m 396 972 l 529 972 l 911 0 l 761 0 l 668 247 l 257 247 l 164 0 l 14 0 l 396 972 m 621 374 l 463 792 l 304 374 l 621 374 m 521 1226 l 672 1226 l 519 1050 l 397 1050 l 521 1226 z "},"Ă":{"ha":925,"x_min":14,"x_max":911,"o":"m 396 972 l 529 972 l 911 0 l 761 0 l 668 247 l 257 247 l 164 0 l 14 0 l 396 972 m 621 374 l 463 792 l 304 374 l 621 374 m 463 1049 q 317 1098 372 1049 q 261 1229 261 1147 l 371 1229 q 396 1168 371 1190 q 463 1146 421 1146 q 529 1168 504 1146 q 554 1229 554 1190 l 664 1229 q 608 1098 664 1147 q 463 1049 553 1049 z "},"Ắ":{"ha":925,"x_min":14,"x_max":911,"o":"m 396 972 l 529 972 l 911 0 l 761 0 l 668 247 l 257 247 l 164 0 l 14 0 l 396 972 m 621 374 l 463 792 l 304 374 l 621 374 m 463 1049 q 317 1098 372 1049 q 261 1229 261 1147 l 371 1229 q 396 1168 371 1190 q 463 1146 421 1146 q 529 1168 504 1146 q 554 1229 554 1190 l 664 1229 q 608 1098 664 1147 q 463 1049 553 1049 m 521 1428 l 672 1428 l 519 1251 l 397 1251 l 521 1428 z "},"Ặ":{"ha":925,"x_min":14,"x_max":911,"o":"m 396 972 l 529 972 l 911 0 l 761 0 l 668 247 l 257 247 l 164 0 l 14 0 l 396 972 m 621 374 l 463 792 l 304 374 l 621 374 m 536 -86 l 536 -251 l 389 -251 l 389 -86 l 536 -86 m 463 1049 q 317 1098 372 1049 q 261 1229 261 1147 l 371 1229 q 396 1168 371 1190 q 463 1146 421 1146 q 529 1168 504 1146 q 554 1229 554 1190 l 664 1229 q 608 1098 664 1147 q 463 1049 553 1049 z "},"Ằ":{"ha":925,"x_min":14,"x_max":911,"o":"m 396 972 l 529 972 l 911 0 l 761 0 l 668 247 l 257 247 l 164 0 l 14 0 l 396 972 m 621 374 l 463 792 l 304 374 l 621 374 m 463 1049 q 317 1098 372 1049 q 261 1229 261 1147 l 371 1229 q 396 1168 371 1190 q 463 1146 421 1146 q 529 1168 504 1146 q 554 1229 554 1190 l 664 1229 q 608 1098 664 1147 q 463 1049 553 1049 m 260 1432 l 410 1432 l 535 1256 l 413 1256 l 260 1432 z "},"Ẳ":{"ha":925,"x_min":14,"x_max":911,"o":"m 396 972 l 529 972 l 911 0 l 761 0 l 668 247 l 257 247 l 164 0 l 14 0 l 396 972 m 621 374 l 463 792 l 304 374 l 621 374 m 443 1326 q 508 1348 483 1328 q 532 1400 532 1368 q 510 1446 532 1428 q 456 1464 489 1464 q 401 1444 422 1464 q 379 1392 379 1424 l 285 1392 q 333 1503 285 1458 q 456 1549 381 1549 q 579 1508 532 1549 q 626 1401 626 1467 q 574 1288 626 1329 q 453 1246 522 1246 l 443 1326 m 463 1049 q 317 1098 372 1049 q 261 1229 261 1147 l 371 1229 q 396 1168 371 1190 q 463 1146 421 1146 q 529 1168 504 1146 q 554 1229 554 1190 l 664 1229 q 608 1098 664 1147 q 463 1049 553 1049 z "},"Ẵ":{"ha":925,"x_min":14,"x_max":911,"o":"m 396 972 l 529 972 l 911 0 l 761 0 l 668 247 l 257 247 l 164 0 l 14 0 l 396 972 m 621 374 l 463 792 l 304 374 l 621 374 z "},"Â":{"ha":925,"x_min":14,"x_max":911,"o":"m 396 972 l 529 972 l 911 0 l 761 0 l 668 247 l 257 247 l 164 0 l 14 0 l 396 972 m 621 374 l 463 792 l 304 374 l 621 374 m 397 1226 l 528 1226 l 683 1050 l 556 1050 l 463 1150 l 368 1050 l 240 1050 l 397 1226 z "},"Ấ":{"ha":925,"x_min":14,"x_max":911,"o":"m 396 972 l 529 972 l 911 0 l 761 0 l 668 247 l 257 247 l 164 0 l 14 0 l 396 972 m 621 374 l 463 792 l 304 374 l 621 374 m 397 1226 l 528 1226 l 683 1050 l 556 1050 l 463 1150 l 368 1050 l 240 1050 l 397 1226 m 735 1358 l 885 1358 l 732 1182 l 610 1182 l 735 1358 z "},"Ậ":{"ha":925,"x_min":14,"x_max":911,"o":"m 396 972 l 529 972 l 911 0 l 761 0 l 668 247 l 257 247 l 164 0 l 14 0 l 396 972 m 621 374 l 463 792 l 304 374 l 621 374 m 536 -86 l 536 -251 l 389 -251 l 389 -86 l 536 -86 m 397 1226 l 528 1226 l 683 1050 l 556 1050 l 463 1150 l 368 1050 l 240 1050 l 397 1226 z "},"Ầ":{"ha":925,"x_min":14,"x_max":911,"o":"m 396 972 l 529 972 l 911 0 l 761 0 l 668 247 l 257 247 l 164 0 l 14 0 l 396 972 m 621 374 l 463 792 l 304 374 l 621 374 m 397 1226 l 528 1226 l 683 1050 l 556 1050 l 463 1150 l 368 1050 l 240 1050 l 397 1226 m 504 1358 l 656 1358 l 779 1182 l 657 1182 l 504 1358 z "},"Ẩ":{"ha":925,"x_min":14,"x_max":911,"o":"m 396 972 l 529 972 l 911 0 l 761 0 l 668 247 l 257 247 l 164 0 l 14 0 l 396 972 m 621 374 l 463 792 l 304 374 l 621 374 z "},"Ẫ":{"ha":925,"x_min":14,"x_max":911,"o":"m 396 972 l 529 972 l 911 0 l 761 0 l 668 247 l 257 247 l 164 0 l 14 0 l 396 972 m 621 374 l 463 792 l 304 374 l 621 374 z "},"Ä":{"ha":925,"x_min":14,"x_max":911,"o":"m 396 972 l 529 972 l 911 0 l 761 0 l 668 247 l 257 247 l 164 0 l 14 0 l 396 972 m 621 374 l 463 792 l 304 374 l 621 374 m 644 1233 l 644 1094 l 522 1094 l 522 1233 l 644 1233 m 403 1233 l 403 1093 l 281 1093 l 281 1233 l 403 1233 z "},"Ạ":{"ha":925,"x_min":14,"x_max":911,"o":"m 396 972 l 529 972 l 911 0 l 761 0 l 668 247 l 257 247 l 164 0 l 14 0 l 396 972 m 621 374 l 463 792 l 304 374 l 621 374 m 536 -86 l 536 -251 l 389 -251 l 389 -86 l 536 -86 z "},"À":{"ha":925,"x_min":14,"x_max":911,"o":"m 396 972 l 529 972 l 911 0 l 761 0 l 668 247 l 257 247 l 164 0 l 14 0 l 396 972 m 621 374 l 463 792 l 304 374 l 621 374 m 260 1226 l 410 1226 l 535 1050 l 413 1050 l 260 1226 z "},"Ả":{"ha":925,"x_min":14,"x_max":911,"o":"m 396 972 l 529 972 l 911 0 l 761 0 l 668 247 l 257 247 l 164 0 l 14 0 l 396 972 m 621 374 l 463 792 l 304 374 l 621 374 m 450 1113 q 515 1134 492 1114 q 539 1186 539 1154 q 517 1233 539 1215 q 463 1250 496 1250 q 408 1230 429 1250 q 386 1179 386 1210 l 292 1179 q 340 1290 292 1246 q 463 1335 389 1335 q 586 1294 539 1335 q 633 1188 633 1253 q 581 1074 633 1115 q 460 1032 529 1032 l 450 1113 z "},"Ā":{"ha":925,"x_min":14,"x_max":911,"o":"m 396 972 l 529 972 l 911 0 l 761 0 l 668 247 l 257 247 l 164 0 l 14 0 l 396 972 m 621 374 l 463 792 l 304 374 l 621 374 m 275 1199 l 650 1199 l 650 1090 l 275 1090 l 275 1199 z "},"Ą":{"ha":925,"x_min":14,"x_max":944,"o":"m 396 972 l 529 972 l 911 0 l 761 0 l 668 247 l 257 247 l 164 0 l 14 0 l 396 972 m 621 374 l 463 792 l 304 374 l 621 374 m 849 -294 q 756 -262 792 -294 q 721 -174 721 -231 q 749 -78 721 -124 q 819 0 776 -32 l 911 0 q 849 -77 872 -37 q 825 -153 825 -117 q 878 -206 825 -206 q 913 -200 894 -206 q 944 -187 932 -194 l 944 -267 q 908 -285 933 -275 q 849 -294 883 -294 z "},"Å":{"ha":925,"x_min":14,"x_max":911,"o":"m 393 964 q 322 1019 349 982 q 296 1104 296 1057 q 343 1213 296 1169 q 463 1257 390 1257 q 583 1213 535 1257 q 631 1104 631 1169 q 604 1019 631 1056 q 532 964 578 982 l 911 0 l 761 0 l 668 247 l 257 247 l 164 0 l 14 0 l 393 964 m 463 1028 q 522 1049 499 1028 q 544 1104 544 1071 q 522 1158 544 1138 q 463 1179 499 1179 q 405 1158 428 1179 q 382 1104 382 1138 q 405 1049 382 1071 q 463 1028 428 1028 m 621 374 l 463 792 l 304 374 l 621 374 z "},"Ǻ":{"ha":925,"x_min":14,"x_max":911,"o":"m 393 964 q 322 1019 349 982 q 296 1104 296 1057 q 333 1203 296 1163 q 432 1254 371 1244 l 538 1407 l 689 1407 l 543 1239 q 608 1185 585 1219 q 631 1104 631 1150 q 604 1019 631 1056 q 532 964 578 982 l 911 0 l 761 0 l 668 247 l 257 247 l 164 0 l 14 0 l 393 964 m 463 1028 q 522 1049 499 1028 q 544 1104 544 1071 q 522 1158 544 1138 q 463 1179 499 1179 q 405 1158 428 1179 q 382 1104 382 1138 q 405 1049 382 1071 q 463 1028 428 1028 m 621 374 l 463 792 l 304 374 l 621 374 z "},"Ã":{"ha":925,"x_min":14,"x_max":911,"o":"m 396 972 l 529 972 l 911 0 l 761 0 l 668 247 l 257 247 l 164 0 l 14 0 l 396 972 m 621 374 l 463 792 l 304 374 l 621 374 m 553 1079 q 499 1088 522 1079 q 447 1115 476 1097 q 414 1133 426 1128 q 388 1139 401 1139 q 348 1124 364 1139 q 332 1086 332 1110 l 239 1086 q 276 1195 238 1153 q 372 1238 315 1238 q 426 1228 403 1238 q 476 1203 449 1219 q 510 1185 496 1192 q 538 1179 524 1179 q 577 1194 561 1179 q 593 1231 593 1208 l 686 1231 q 648 1122 686 1164 q 553 1079 610 1079 z "},"Æ":{"ha":1269,"x_min":-32,"x_max":1218,"o":"m -32 0 l 585 972 l 1203 972 l 1203 844 l 793 844 l 793 565 l 1111 565 l 1111 438 l 793 438 l 793 128 l 1218 128 l 1218 0 l 649 0 l 649 249 l 276 249 l 124 0 l -32 0 m 649 376 l 649 857 l 354 376 l 649 376 z "},"Ǽ":{"ha":1269,"x_min":-32,"x_max":1218,"o":"m -32 0 l 585 972 l 1203 972 l 1203 844 l 793 844 l 793 565 l 1111 565 l 1111 438 l 793 438 l 793 128 l 1218 128 l 1218 0 l 649 0 l 649 249 l 276 249 l 124 0 l -32 0 m 649 376 l 649 857 l 354 376 l 649 376 m 903 1226 l 1054 1226 l 901 1050 l 779 1050 l 903 1226 z "},"B":{"ha":872,"x_min":111,"x_max":815,"o":"m 111 972 l 471 972 q 690 908 608 972 q 771 735 771 844 q 737 610 771 661 q 646 532 703 558 q 769 442 724 504 q 815 283 815 379 q 728 76 815 153 q 489 0 640 0 l 111 0 l 111 972 m 469 128 q 622 169 571 128 q 674 290 674 211 q 622 411 674 369 q 469 453 571 453 l 254 453 l 254 128 l 469 128 m 464 579 q 588 613 546 579 q 631 715 631 647 q 588 817 631 782 q 463 851 544 851 l 254 851 l 254 579 l 464 579 z "},"C":{"ha":1008,"x_min":60,"x_max":956,"o":"m 535 -11 q 297 45 406 -11 q 124 214 189 101 q 60 486 60 326 q 125 758 60 646 q 299 927 190 871 q 535 983 407 983 q 735 942 643 983 q 885 826 826 900 q 956 660 943 753 l 804 660 q 759 760 797 715 q 662 831 721 806 q 533 856 603 856 q 364 813 438 856 q 249 686 290 769 q 207 486 207 603 q 249 286 207 369 q 365 160 290 203 q 535 117 439 117 q 719 172 642 117 q 807 313 796 226 l 954 313 q 887 146 944 219 q 738 31 829 72 q 535 -11 646 -11 z "},"Ć":{"ha":1008,"x_min":60,"x_max":956,"o":"m 535 -11 q 297 45 406 -11 q 124 214 189 101 q 60 486 60 326 q 125 758 60 646 q 299 927 190 871 q 535 983 407 983 q 735 942 643 983 q 885 826 826 900 q 956 660 943 753 l 804 660 q 759 760 797 715 q 662 831 721 806 q 533 856 603 856 q 364 813 438 856 q 249 686 290 769 q 207 486 207 603 q 249 286 207 369 q 365 160 290 203 q 535 117 439 117 q 719 172 642 117 q 807 313 796 226 l 954 313 q 887 146 944 219 q 738 31 829 72 q 535 -11 646 -11 m 581 1226 l 732 1226 l 579 1050 l 457 1050 l 581 1226 z "},"Č":{"ha":1008,"x_min":60,"x_max":956,"o":"m 535 -11 q 297 45 406 -11 q 124 214 189 101 q 60 486 60 326 q 125 758 60 646 q 299 927 190 871 q 535 983 407 983 q 735 942 643 983 q 885 826 826 900 q 956 660 943 753 l 804 660 q 759 760 797 715 q 662 831 721 806 q 533 856 603 856 q 364 813 438 856 q 249 686 290 769 q 207 486 207 603 q 249 286 207 369 q 365 160 290 203 q 535 117 439 117 q 719 172 642 117 q 807 313 796 226 l 954 313 q 887 146 944 219 q 738 31 829 72 q 535 -11 646 -11 m 300 1226 l 428 1226 l 522 1126 l 615 1226 l 743 1226 l 588 1050 l 458 1050 l 300 1226 z "},"Ç":{"ha":1008,"x_min":60,"x_max":956,"o":"m 469 -7 q 261 67 354 7 q 114 233 168 126 q 60 486 60 339 q 125 758 60 646 q 299 927 190 871 q 535 983 407 983 q 735 942 643 983 q 885 826 826 900 q 956 660 943 753 l 804 660 q 759 760 797 715 q 662 831 721 806 q 533 856 603 856 q 364 813 438 856 q 249 686 290 769 q 207 486 207 603 q 249 286 207 369 q 365 160 290 203 q 535 117 439 117 q 719 172 642 117 q 807 313 796 226 l 954 313 q 889 149 944 221 q 745 34 833 76 q 550 -11 657 -8 l 524 -65 q 554 -64 533 -64 q 650 -92 613 -64 q 688 -169 688 -119 q 638 -261 688 -229 q 506 -293 589 -293 q 394 -274 446 -293 l 394 -194 q 506 -215 449 -215 q 590 -169 590 -215 q 570 -140 590 -150 q 518 -131 550 -131 q 460 -137 485 -131 l 422 -106 l 469 -7 z "},"Ĉ":{"ha":1008,"x_min":60,"x_max":956,"o":"m 535 -11 q 297 45 406 -11 q 124 214 189 101 q 60 486 60 326 q 125 758 60 646 q 299 927 190 871 q 535 983 407 983 q 735 942 643 983 q 885 826 826 900 q 956 660 943 753 l 804 660 q 759 760 797 715 q 662 831 721 806 q 533 856 603 856 q 364 813 438 856 q 249 686 290 769 q 207 486 207 603 q 249 286 207 369 q 365 160 290 203 q 535 117 439 117 q 719 172 642 117 q 807 313 796 226 l 954 313 q 887 146 944 219 q 738 31 829 72 q 535 -11 646 -11 m 457 1226 l 588 1226 l 743 1050 l 615 1050 l 522 1150 l 428 1050 l 300 1050 l 457 1226 z "},"Ċ":{"ha":1008,"x_min":60,"x_max":956,"o":"m 535 -11 q 297 45 406 -11 q 124 214 189 101 q 60 486 60 326 q 125 758 60 646 q 299 927 190 871 q 535 983 407 983 q 735 942 643 983 q 885 826 826 900 q 956 660 943 753 l 804 660 q 759 760 797 715 q 662 831 721 806 q 533 856 603 856 q 364 813 438 856 q 249 686 290 769 q 207 486 207 603 q 249 286 207 369 q 365 160 290 203 q 535 117 439 117 q 719 172 642 117 q 807 313 796 226 l 954 313 q 887 146 944 219 q 738 31 829 72 q 535 -11 646 -11 m 597 1265 l 597 1096 l 447 1096 l 447 1265 l 597 1265 z "},"D":{"ha":960,"x_min":111,"x_max":900,"o":"m 111 972 l 410 972 q 659 916 547 972 q 835 750 771 860 q 900 486 900 640 q 835 222 900 332 q 659 56 771 113 q 410 0 547 0 l 111 0 l 111 972 m 401 128 q 576 165 497 128 q 703 283 656 203 q 751 486 751 364 q 703 689 751 608 q 576 807 656 769 q 401 844 497 844 l 256 844 l 256 128 l 401 128 z "},"Ď":{"ha":960,"x_min":111,"x_max":900,"o":"m 111 972 l 410 972 q 659 916 547 972 q 835 750 771 860 q 900 486 900 640 q 835 222 900 332 q 659 56 771 113 q 410 0 547 0 l 111 0 l 111 972 m 401 128 q 576 165 497 128 q 703 283 656 203 q 751 486 751 364 q 703 689 751 608 q 576 807 656 769 q 401 844 497 844 l 256 844 l 256 128 l 401 128 m 190 1226 l 318 1226 l 413 1126 l 506 1226 l 633 1226 l 478 1050 l 349 1050 l 190 1226 z "},"Đ":{"ha":1025,"x_min":39,"x_max":965,"o":"m 178 435 l 39 435 l 39 543 l 178 543 l 178 972 l 475 972 q 724 916 613 972 q 901 750 836 860 q 965 486 965 640 q 901 222 965 332 q 724 56 836 113 q 475 0 613 0 l 178 0 l 178 435 m 468 128 q 642 165 564 128 q 769 283 721 203 q 817 486 817 364 q 769 689 817 608 q 642 807 721 769 q 468 844 564 844 l 322 844 l 322 543 l 567 543 l 567 435 l 322 435 l 322 128 l 468 128 z "},"Ð":{"ha":1025,"x_min":39,"x_max":965,"o":"m 178 435 l 39 435 l 39 543 l 178 543 l 178 972 l 475 972 q 724 916 613 972 q 901 750 836 860 q 965 486 965 640 q 901 222 965 332 q 724 56 836 113 q 475 0 613 0 l 178 0 l 178 435 m 468 128 q 642 165 564 128 q 769 283 721 203 q 817 486 817 364 q 769 689 817 608 q 642 807 721 769 q 468 844 564 844 l 322 844 l 322 543 l 567 543 l 567 435 l 322 435 l 322 128 l 468 128 z "},"E":{"ha":801,"x_min":111,"x_max":750,"o":"m 111 972 l 735 972 l 735 844 l 256 844 l 256 565 l 643 565 l 643 438 l 256 438 l 256 128 l 750 128 l 750 0 l 111 0 l 111 972 z "},"É":{"ha":801,"x_min":111,"x_max":750,"o":"m 111 972 l 735 972 l 735 844 l 256 844 l 256 565 l 643 565 l 643 438 l 256 438 l 256 128 l 750 128 l 750 0 l 111 0 l 111 972 m 483 1226 l 635 1226 l 482 1050 l 360 1050 l 483 1226 z "},"Ĕ":{"ha":801,"x_min":111,"x_max":750,"o":"m 111 972 l 735 972 l 735 844 l 256 844 l 256 565 l 643 565 l 643 438 l 256 438 l 256 128 l 750 128 l 750 0 l 111 0 l 111 972 m 425 1049 q 279 1098 335 1049 q 224 1229 224 1147 l 333 1229 q 358 1168 333 1190 q 425 1146 383 1146 q 492 1168 467 1146 q 517 1229 517 1190 l 626 1229 q 571 1098 626 1147 q 425 1049 515 1049 z "},"Ě":{"ha":801,"x_min":111,"x_max":750,"o":"m 111 972 l 735 972 l 735 844 l 256 844 l 256 565 l 643 565 l 643 438 l 256 438 l 256 128 l 750 128 l 750 0 l 111 0 l 111 972 m 203 1226 l 331 1226 l 425 1126 l 518 1226 l 646 1226 l 490 1050 l 361 1050 l 203 1226 z "},"Ê":{"ha":801,"x_min":111,"x_max":750,"o":"m 111 972 l 735 972 l 735 844 l 256 844 l 256 565 l 643 565 l 643 438 l 256 438 l 256 128 l 750 128 l 750 0 l 111 0 l 111 972 m 360 1226 l 490 1226 l 646 1050 l 518 1050 l 425 1150 l 331 1050 l 203 1050 l 360 1226 z "},"Ế":{"ha":801,"x_min":111,"x_max":847,"o":"m 111 972 l 735 972 l 735 844 l 256 844 l 256 565 l 643 565 l 643 438 l 256 438 l 256 128 l 750 128 l 750 0 l 111 0 l 111 972 m 360 1226 l 490 1226 l 646 1050 l 518 1050 l 425 1150 l 331 1050 l 203 1050 l 360 1226 m 697 1358 l 847 1358 l 694 1182 l 572 1182 l 697 1358 z "},"Ệ":{"ha":801,"x_min":111,"x_max":750,"o":"m 111 972 l 735 972 l 735 844 l 256 844 l 256 565 l 643 565 l 643 438 l 256 438 l 256 128 l 750 128 l 750 0 l 111 0 l 111 972 m 503 -86 l 503 -251 l 356 -251 l 356 -86 l 503 -86 m 360 1226 l 490 1226 l 646 1050 l 518 1050 l 425 1150 l 331 1050 l 203 1050 l 360 1226 z "},"Ề":{"ha":801,"x_min":111,"x_max":750,"o":"m 111 972 l 735 972 l 735 844 l 256 844 l 256 565 l 643 565 l 643 438 l 256 438 l 256 128 l 750 128 l 750 0 l 111 0 l 111 972 m 360 1226 l 490 1226 l 646 1050 l 518 1050 l 425 1150 l 331 1050 l 203 1050 l 360 1226 m 467 1358 l 618 1358 l 742 1182 l 619 1182 l 467 1358 z "},"Ể":{"ha":801,"x_min":111,"x_max":769,"o":"m 111 972 l 735 972 l 735 844 l 256 844 l 256 565 l 643 565 l 643 438 l 256 438 l 256 128 l 750 128 l 750 0 l 111 0 l 111 972 z "},"Ễ":{"ha":801,"x_min":111,"x_max":750,"o":"m 111 972 l 735 972 l 735 844 l 256 844 l 256 565 l 643 565 l 643 438 l 256 438 l 256 128 l 750 128 l 750 0 l 111 0 l 111 972 z "},"Ë":{"ha":801,"x_min":111,"x_max":750,"o":"m 111 972 l 735 972 l 735 844 l 256 844 l 256 565 l 643 565 l 643 438 l 256 438 l 256 128 l 750 128 l 750 0 l 111 0 l 111 972 m 607 1233 l 607 1094 l 485 1094 l 485 1233 l 607 1233 m 365 1233 l 365 1093 l 243 1093 l 243 1233 l 365 1233 z "},"Ė":{"ha":801,"x_min":111,"x_max":750,"o":"m 111 972 l 735 972 l 735 844 l 256 844 l 256 565 l 643 565 l 643 438 l 256 438 l 256 128 l 750 128 l 750 0 l 111 0 l 111 972 m 500 1265 l 500 1096 l 350 1096 l 350 1265 l 500 1265 z "},"Ẹ":{"ha":801,"x_min":111,"x_max":750,"o":"m 111 972 l 735 972 l 735 844 l 256 844 l 256 565 l 643 565 l 643 438 l 256 438 l 256 128 l 750 128 l 750 0 l 111 0 l 111 972 m 503 -86 l 503 -251 l 356 -251 l 356 -86 l 503 -86 z "},"È":{"ha":801,"x_min":111,"x_max":750,"o":"m 111 972 l 735 972 l 735 844 l 256 844 l 256 565 l 643 565 l 643 438 l 256 438 l 256 128 l 750 128 l 750 0 l 111 0 l 111 972 m 222 1226 l 372 1226 l 497 1050 l 375 1050 l 222 1226 z "},"Ẻ":{"ha":801,"x_min":111,"x_max":750,"o":"m 111 972 l 735 972 l 735 844 l 256 844 l 256 565 l 643 565 l 643 438 l 256 438 l 256 128 l 750 128 l 750 0 l 111 0 l 111 972 m 413 1113 q 478 1134 454 1114 q 501 1186 501 1154 q 480 1233 501 1215 q 425 1250 458 1250 q 370 1230 392 1250 q 349 1179 349 1210 l 254 1179 q 303 1290 254 1246 q 425 1335 351 1335 q 549 1294 501 1335 q 596 1188 596 1253 q 544 1074 596 1115 q 422 1032 492 1032 l 413 1113 z "},"Ē":{"ha":801,"x_min":111,"x_max":750,"o":"m 111 972 l 735 972 l 735 844 l 256 844 l 256 565 l 643 565 l 643 438 l 256 438 l 256 128 l 750 128 l 750 0 l 111 0 l 111 972 m 238 1199 l 613 1199 l 613 1090 l 238 1090 l 238 1199 z "},"Ę":{"ha":801,"x_min":111,"x_max":783,"o":"m 111 972 l 735 972 l 735 844 l 256 844 l 256 565 l 643 565 l 643 438 l 256 438 l 256 128 l 750 128 l 750 0 l 111 0 l 111 972 m 688 -294 q 595 -262 631 -294 q 560 -174 560 -231 q 588 -78 560 -124 q 658 0 615 -32 l 750 0 q 688 -77 711 -37 q 664 -153 664 -117 q 717 -206 664 -206 q 752 -200 733 -206 q 783 -187 771 -194 l 783 -267 q 747 -285 772 -275 q 688 -294 722 -294 z "},"Ẽ":{"ha":801,"x_min":111,"x_max":750,"o":"m 111 972 l 735 972 l 735 844 l 256 844 l 256 565 l 643 565 l 643 438 l 256 438 l 256 128 l 750 128 l 750 0 l 111 0 l 111 972 m 515 1079 q 462 1088 485 1079 q 410 1115 439 1097 q 376 1133 389 1128 q 350 1139 364 1139 q 310 1124 326 1139 q 294 1086 294 1110 l 201 1086 q 239 1195 200 1153 q 335 1238 278 1238 q 388 1228 365 1238 q 439 1203 411 1219 q 472 1185 458 1192 q 500 1179 486 1179 q 540 1194 524 1179 q 556 1231 556 1208 l 649 1231 q 610 1122 649 1164 q 515 1079 572 1079 z "},"Ə":{"ha":1076,"x_min":61,"x_max":1017,"o":"m 531 -11 q 302 38 408 -11 q 128 199 196 88 q 61 482 61 310 q 64 547 61 503 l 874 547 q 760 778 856 697 q 529 860 665 860 q 328 805 413 860 q 226 661 244 750 l 78 661 q 157 830 94 757 q 315 943 219 903 q 528 983 411 983 q 771 928 660 983 q 949 762 882 874 q 1017 488 1017 650 q 951 215 1017 328 q 774 46 885 103 q 531 -11 664 -11 m 204 429 q 309 188 215 263 q 532 113 403 113 q 694 150 621 113 q 815 259 768 188 q 874 429 863 331 l 204 429 z "},"F":{"ha":761,"x_min":111,"x_max":735,"o":"m 111 972 l 735 972 l 735 844 l 256 844 l 256 554 l 643 554 l 643 426 l 256 426 l 256 0 l 111 0 l 111 972 z "},"G":{"ha":1033,"x_min":60,"x_max":961,"o":"m 517 -11 q 290 46 394 -11 q 123 215 186 103 q 60 486 60 328 q 124 758 60 646 q 297 926 189 869 q 536 983 406 983 q 744 942 651 983 q 894 827 836 901 q 961 657 951 753 l 806 657 q 717 801 790 747 q 535 856 643 856 q 366 812 440 856 q 249 685 292 768 q 207 486 207 601 q 249 285 207 368 q 366 159 292 201 q 536 117 440 117 q 678 144 614 117 q 781 217 743 171 q 818 319 818 264 q 751 392 818 392 l 542 392 l 542 508 l 796 508 q 913 465 869 508 q 957 347 957 422 l 957 0 l 825 0 l 825 138 q 706 31 789 74 q 517 -11 624 -11 z "},"Ğ":{"ha":1033,"x_min":60,"x_max":961,"o":"m 517 -11 q 290 46 394 -11 q 123 215 186 103 q 60 486 60 328 q 124 758 60 646 q 297 926 189 869 q 536 983 406 983 q 744 942 651 983 q 894 827 836 901 q 961 657 951 753 l 806 657 q 717 801 790 747 q 535 856 643 856 q 366 812 440 856 q 249 685 292 768 q 207 486 207 601 q 249 285 207 368 q 366 159 292 201 q 536 117 440 117 q 678 144 614 117 q 781 217 743 171 q 818 319 818 264 q 751 392 818 392 l 542 392 l 542 508 l 796 508 q 913 465 869 508 q 957 347 957 422 l 957 0 l 825 0 l 825 138 q 706 31 789 74 q 517 -11 624 -11 m 517 1049 q 371 1098 426 1049 q 315 1229 315 1147 l 425 1229 q 450 1168 425 1190 q 517 1146 475 1146 q 583 1168 558 1146 q 608 1229 608 1190 l 718 1229 q 663 1098 718 1147 q 517 1049 607 1049 z "},"Ǧ":{"ha":1033,"x_min":60,"x_max":961,"o":"m 517 -11 q 290 46 394 -11 q 123 215 186 103 q 60 486 60 328 q 124 758 60 646 q 297 926 189 869 q 536 983 406 983 q 744 942 651 983 q 894 827 836 901 q 961 657 951 753 l 806 657 q 717 801 790 747 q 535 856 643 856 q 366 812 440 856 q 249 685 292 768 q 207 486 207 601 q 249 285 207 368 q 366 159 292 201 q 536 117 440 117 q 678 144 614 117 q 781 217 743 171 q 818 319 818 264 q 751 392 818 392 l 542 392 l 542 508 l 796 508 q 913 465 869 508 q 957 347 957 422 l 957 0 l 825 0 l 825 138 q 706 31 789 74 q 517 -11 624 -11 m 294 1226 l 422 1226 l 517 1126 l 610 1226 l 738 1226 l 582 1050 l 453 1050 l 294 1226 z "},"Ĝ":{"ha":1033,"x_min":60,"x_max":961,"o":"m 517 -11 q 290 46 394 -11 q 123 215 186 103 q 60 486 60 328 q 124 758 60 646 q 297 926 189 869 q 536 983 406 983 q 744 942 651 983 q 894 827 836 901 q 961 657 951 753 l 806 657 q 717 801 790 747 q 535 856 643 856 q 366 812 440 856 q 249 685 292 768 q 207 486 207 601 q 249 285 207 368 q 366 159 292 201 q 536 117 440 117 q 678 144 614 117 q 781 217 743 171 q 818 319 818 264 q 751 392 818 392 l 542 392 l 542 508 l 796 508 q 913 465 869 508 q 957 347 957 422 l 957 0 l 825 0 l 825 138 q 706 31 789 74 q 517 -11 624 -11 m 451 1226 l 582 1226 l 738 1050 l 610 1050 l 517 1150 l 422 1050 l 294 1050 l 451 1226 z "},"Ģ":{"ha":1033,"x_min":60,"x_max":961,"o":"m 517 -11 q 290 46 394 -11 q 123 215 186 103 q 60 486 60 328 q 124 758 60 646 q 297 926 189 869 q 536 983 406 983 q 744 942 651 983 q 894 827 836 901 q 961 657 951 753 l 806 657 q 717 801 790 747 q 535 856 643 856 q 366 812 440 856 q 249 685 292 768 q 207 486 207 601 q 249 285 207 368 q 366 159 292 201 q 536 117 440 117 q 678 144 614 117 q 781 217 743 171 q 818 319 818 264 q 751 392 818 392 l 542 392 l 542 508 l 796 508 q 913 465 869 508 q 957 347 957 422 l 957 0 l 825 0 l 825 138 q 706 31 789 74 q 517 -11 624 -11 m 450 -94 l 603 -94 l 496 -308 l 376 -308 l 450 -94 z "},"Ġ":{"ha":1033,"x_min":60,"x_max":961,"o":"m 517 -11 q 290 46 394 -11 q 123 215 186 103 q 60 486 60 328 q 124 758 60 646 q 297 926 189 869 q 536 983 406 983 q 744 942 651 983 q 894 827 836 901 q 961 657 951 753 l 806 657 q 717 801 790 747 q 535 856 643 856 q 366 812 440 856 q 249 685 292 768 q 207 486 207 601 q 249 285 207 368 q 366 159 292 201 q 536 117 440 117 q 678 144 614 117 q 781 217 743 171 q 818 319 818 264 q 751 392 818 392 l 542 392 l 542 508 l 796 508 q 913 465 869 508 q 957 347 957 422 l 957 0 l 825 0 l 825 138 q 706 31 789 74 q 517 -11 624 -11 m 592 1265 l 592 1096 l 442 1096 l 442 1265 l 592 1265 z "},"Ḡ":{"ha":1033,"x_min":60,"x_max":961,"o":"m 517 -11 q 290 46 394 -11 q 123 215 186 103 q 60 486 60 328 q 124 758 60 646 q 297 926 189 869 q 536 983 406 983 q 744 942 651 983 q 894 827 836 901 q 961 657 951 753 l 806 657 q 717 801 790 747 q 535 856 643 856 q 366 812 440 856 q 249 685 292 768 q 207 486 207 601 q 249 285 207 368 q 366 159 292 201 q 536 117 440 117 q 678 144 614 117 q 781 217 743 171 q 818 319 818 264 q 751 392 818 392 l 542 392 l 542 508 l 796 508 q 913 465 869 508 q 957 347 957 422 l 957 0 l 825 0 l 825 138 q 706 31 789 74 q 517 -11 624 -11 m 329 1199 l 704 1199 l 704 1090 l 329 1090 l 329 1199 z "},"H":{"ha":993,"x_min":111,"x_max":882,"o":"m 738 436 l 254 436 l 254 0 l 111 0 l 111 972 l 254 972 l 254 564 l 738 564 l 738 972 l 882 972 l 882 0 l 738 0 l 738 436 z "},"Ħ":{"ha":1040,"x_min":42,"x_max":999,"o":"m 761 436 l 279 436 l 279 0 l 135 0 l 135 739 l 42 739 l 42 847 l 135 847 l 135 972 l 279 972 l 279 847 l 761 847 l 761 972 l 906 972 l 906 847 l 999 847 l 999 739 l 906 739 l 906 0 l 761 0 l 761 436 m 761 564 l 761 739 l 279 739 l 279 564 l 761 564 z "},"Ĥ":{"ha":993,"x_min":111,"x_max":882,"o":"m 738 436 l 254 436 l 254 0 l 111 0 l 111 972 l 254 972 l 254 564 l 738 564 l 738 972 l 882 972 l 882 0 l 738 0 l 738 436 m 432 1226 l 563 1226 l 718 1050 l 590 1050 l 497 1150 l 403 1050 l 275 1050 l 432 1226 z "},"I":{"ha":367,"x_min":111,"x_max":256,"o":"m 111 972 l 256 972 l 256 0 l 111 0 l 111 972 z "},"Ĳ":{"ha":842,"x_min":111,"x_max":736,"o":"m 111 972 l 256 972 l 256 0 l 111 0 l 111 972 m 383 128 l 499 128 q 592 263 592 128 l 592 972 l 736 972 l 736 258 q 679 66 736 132 q 517 0 622 0 l 383 0 l 383 128 z "},"Í":{"ha":367,"x_min":111,"x_max":393,"o":"m 111 972 l 256 972 l 256 0 l 111 0 l 111 972 m 242 1226 l 393 1226 l 240 1050 l 118 1050 l 242 1226 z "},"Ĭ":{"ha":367,"x_min":-18,"x_max":385,"o":"m 111 972 l 256 972 l 256 0 l 111 0 l 111 972 m 183 1049 q 38 1098 93 1049 q -18 1229 -18 1147 l 92 1229 q 117 1168 92 1190 q 183 1146 142 1146 q 250 1168 225 1146 q 275 1229 275 1190 l 385 1229 q 329 1098 385 1147 q 183 1049 274 1049 z "},"Î":{"ha":367,"x_min":-39,"x_max":404,"o":"m 111 972 l 256 972 l 256 0 l 111 0 l 111 972 m 118 1226 l 249 1226 l 404 1050 l 276 1050 l 183 1150 l 89 1050 l -39 1050 l 118 1226 z "},"Ï":{"ha":367,"x_min":1,"x_max":365,"o":"m 111 972 l 256 972 l 256 0 l 111 0 l 111 972 m 365 1233 l 365 1094 l 243 1094 l 243 1233 l 365 1233 m 124 1233 l 124 1093 l 1 1093 l 1 1233 l 124 1233 z "},"İ":{"ha":367,"x_min":108,"x_max":258,"o":"m 111 972 l 256 972 l 256 0 l 111 0 l 111 972 m 258 1265 l 258 1096 l 108 1096 l 108 1265 l 258 1265 z "},"Ị":{"ha":367,"x_min":110,"x_max":257,"o":"m 111 972 l 256 972 l 256 0 l 111 0 l 111 972 m 257 -86 l 257 -251 l 110 -251 l 110 -86 l 257 -86 z "},"Ì":{"ha":367,"x_min":-19,"x_max":256,"o":"m 111 972 l 256 972 l 256 0 l 111 0 l 111 972 m -19 1226 l 131 1226 l 256 1050 l 133 1050 l -19 1226 z "},"Ỉ":{"ha":367,"x_min":13,"x_max":354,"o":"m 111 972 l 256 972 l 256 0 l 111 0 l 111 972 m 171 1113 q 236 1134 213 1114 q 260 1186 260 1154 q 238 1233 260 1215 q 183 1250 217 1250 q 128 1230 150 1250 q 107 1179 107 1210 l 13 1179 q 61 1290 13 1246 q 183 1335 110 1335 q 307 1294 260 1335 q 354 1188 354 1253 q 302 1074 354 1115 q 181 1032 250 1032 l 171 1113 z "},"Ī":{"ha":367,"x_min":-4,"x_max":371,"o":"m 111 972 l 256 972 l 256 0 l 111 0 l 111 972 m -4 1199 l 371 1199 l 371 1090 l -4 1090 l -4 1199 z "},"Į":{"ha":367,"x_min":65,"x_max":289,"o":"m 111 972 l 256 972 l 256 0 l 111 0 l 111 972 m 193 -294 q 101 -262 136 -294 q 65 -174 65 -231 q 93 -78 65 -124 q 164 0 121 -32 l 256 0 q 193 -77 217 -37 q 169 -153 169 -117 q 222 -206 169 -206 q 258 -200 239 -206 q 289 -187 276 -194 l 289 -267 q 253 -285 278 -275 q 193 -294 228 -294 z "},"Ĩ":{"ha":367,"x_min":-42,"x_max":407,"o":"m 111 972 l 256 972 l 256 0 l 111 0 l 111 972 m 274 1079 q 220 1088 243 1079 q 168 1115 197 1097 q 135 1133 147 1128 q 108 1139 122 1139 q 69 1124 85 1139 q 53 1086 53 1110 l -40 1086 q -3 1195 -42 1153 q 93 1238 36 1238 q 147 1228 124 1238 q 197 1203 169 1219 q 231 1185 217 1192 q 258 1179 244 1179 q 298 1194 282 1179 q 314 1231 314 1208 l 407 1231 q 369 1122 407 1164 q 274 1079 331 1079 z "},"J":{"ha":474,"x_min":17,"x_max":368,"o":"m 17 128 l 131 128 q 201 161 179 128 q 224 263 224 194 l 224 972 l 368 972 l 368 258 q 312 66 368 132 q 150 0 256 0 l 17 0 l 17 128 z "},"Ĵ":{"ha":474,"x_min":17,"x_max":517,"o":"m 17 128 l 131 128 q 201 161 179 128 q 224 263 224 194 l 224 972 l 368 972 l 368 258 q 312 66 368 132 q 150 0 256 0 l 17 0 l 17 128 m 231 1226 l 361 1226 l 517 1050 l 389 1050 l 296 1150 l 201 1050 l 74 1050 l 231 1226 z "},"K":{"ha":893,"x_min":111,"x_max":906,"o":"m 111 0 l 111 972 l 256 972 l 256 521 l 683 972 l 865 972 l 496 583 l 906 0 l 729 0 l 397 479 l 256 329 l 256 0 l 111 0 z "},"Ķ":{"ha":893,"x_min":111,"x_max":906,"o":"m 111 0 l 111 972 l 256 972 l 256 521 l 683 972 l 865 972 l 496 583 l 906 0 l 729 0 l 397 479 l 256 329 l 256 0 l 111 0 m 374 -94 l 526 -94 l 419 -308 l 300 -308 l 374 -94 z "},"L":{"ha":744,"x_min":111,"x_max":729,"o":"m 111 972 l 256 972 l 256 128 l 729 128 l 729 0 l 111 0 l 111 972 z "},"Ĺ":{"ha":744,"x_min":111,"x_max":729,"o":"m 111 972 l 256 972 l 256 128 l 729 128 l 729 0 l 111 0 l 111 972 m 244 1226 l 396 1226 l 243 1050 l 121 1050 l 244 1226 z "},"Ľ":{"ha":744,"x_min":111,"x_max":729,"o":"m 111 972 l 256 972 l 256 128 l 729 128 l 729 0 l 111 0 l 111 972 m 424 1025 l 554 1025 l 481 778 l 379 778 l 424 1025 z "},"Ļ":{"ha":744,"x_min":111,"x_max":729,"o":"m 111 972 l 256 972 l 256 128 l 729 128 l 729 0 l 111 0 l 111 972 m 324 -94 l 476 -94 l 369 -308 l 250 -308 l 324 -94 z "},"Ŀ":{"ha":744,"x_min":111,"x_max":729,"o":"m 111 972 l 256 972 l 256 128 l 729 128 l 729 0 l 111 0 l 111 972 m 446 581 l 596 581 l 596 411 l 446 411 l 446 581 z "},"Ł":{"ha":744,"x_min":1,"x_max":729,"o":"m 111 376 l 1 306 l 1 433 l 111 504 l 111 972 l 256 972 l 256 597 l 365 668 l 365 540 l 256 469 l 256 128 l 729 128 l 729 0 l 111 0 l 111 376 z "},"M":{"ha":1197,"x_min":111,"x_max":1086,"o":"m 111 972 l 289 972 l 599 197 l 908 972 l 1086 972 l 1086 0 l 947 0 l 947 724 l 657 0 l 540 0 l 249 724 l 249 0 l 111 0 l 111 972 z "},"N":{"ha":996,"x_min":111,"x_max":885,"o":"m 111 972 l 272 972 l 740 224 l 740 972 l 885 972 l 885 0 l 725 0 l 256 747 l 256 0 l 111 0 l 111 972 z "},"Ń":{"ha":996,"x_min":111,"x_max":885,"o":"m 111 972 l 272 972 l 740 224 l 740 972 l 885 972 l 885 0 l 725 0 l 256 747 l 256 0 l 111 0 l 111 972 m 557 1226 l 708 1226 l 556 1050 l 433 1050 l 557 1226 z "},"Ň":{"ha":996,"x_min":111,"x_max":885,"o":"m 111 972 l 272 972 l 740 224 l 740 972 l 885 972 l 885 0 l 725 0 l 256 747 l 256 0 l 111 0 l 111 972 m 276 1226 l 404 1226 l 499 1126 l 592 1226 l 719 1226 l 564 1050 l 435 1050 l 276 1226 z "},"Ņ":{"ha":996,"x_min":111,"x_max":885,"o":"m 111 972 l 272 972 l 740 224 l 740 972 l 885 972 l 885 0 l 725 0 l 256 747 l 256 0 l 111 0 l 111 972 m 432 -94 l 585 -94 l 478 -308 l 358 -308 l 432 -94 z "},"Ɲ":{"ha":996,"x_min":-96,"x_max":885,"o":"m 18 -156 q 89 -122 67 -156 q 111 -21 111 -89 l 111 972 l 272 972 l 740 224 l 740 972 l 885 972 l 885 0 l 725 0 l 256 747 l 256 -25 q 199 -217 256 -151 q 36 -283 142 -283 l -96 -283 l -96 -156 l 18 -156 z "},"Ñ":{"ha":996,"x_min":111,"x_max":885,"o":"m 111 972 l 272 972 l 740 224 l 740 972 l 885 972 l 885 0 l 725 0 l 256 747 l 256 0 l 111 0 l 111 972 m 589 1079 q 535 1088 558 1079 q 483 1115 513 1097 q 450 1133 463 1128 q 424 1139 438 1139 q 384 1124 400 1139 q 368 1086 368 1110 l 275 1086 q 313 1195 274 1153 q 408 1238 351 1238 q 462 1228 439 1238 q 513 1203 485 1219 q 546 1185 532 1192 q 574 1179 560 1179 q 613 1194 597 1179 q 629 1231 629 1208 l 722 1231 q 684 1122 722 1164 q 589 1079 646 1079 z "},"Ŋ":{"ha":996,"x_min":111,"x_max":885,"o":"m 533 -156 l 647 -156 q 717 -123 693 -156 q 740 -28 740 -90 l 740 -17 l 256 743 l 256 0 l 111 0 l 111 972 l 272 972 l 740 228 l 740 972 l 885 972 l 885 -25 q 828 -217 885 -151 q 667 -283 772 -283 l 533 -283 l 533 -156 z "},"O":{"ha":1082,"x_min":58,"x_max":1024,"o":"m 542 -11 q 294 53 404 -11 q 121 231 183 118 q 58 486 58 344 q 121 741 58 628 q 294 919 183 854 q 542 983 404 983 q 788 919 678 983 q 961 741 899 854 q 1024 486 1024 628 q 961 231 1024 344 q 788 53 899 118 q 542 -11 678 -11 m 540 117 q 713 165 636 117 q 833 297 789 213 q 876 486 876 381 q 833 676 876 592 q 713 808 789 760 q 540 856 636 856 q 368 808 444 856 q 249 676 292 760 q 206 486 206 592 q 249 297 206 381 q 368 165 292 213 q 540 117 444 117 z "},"Ó":{"ha":1082,"x_min":58,"x_max":1024,"o":"m 542 -11 q 294 53 404 -11 q 121 231 183 118 q 58 486 58 344 q 121 741 58 628 q 294 919 183 854 q 542 983 404 983 q 788 919 678 983 q 961 741 899 854 q 1024 486 1024 628 q 961 231 1024 344 q 788 53 899 118 q 542 -11 678 -11 m 540 117 q 713 165 636 117 q 833 297 789 213 q 876 486 876 381 q 833 676 876 592 q 713 808 789 760 q 540 856 636 856 q 368 808 444 856 q 249 676 292 760 q 206 486 206 592 q 249 297 206 381 q 368 165 292 213 q 540 117 444 117 m 600 1226 l 751 1226 l 599 1050 l 476 1050 l 600 1226 z "},"Ŏ":{"ha":1082,"x_min":58,"x_max":1024,"o":"m 542 -11 q 294 53 404 -11 q 121 231 183 118 q 58 486 58 344 q 121 741 58 628 q 294 919 183 854 q 542 983 404 983 q 788 919 678 983 q 961 741 899 854 q 1024 486 1024 628 q 961 231 1024 344 q 788 53 899 118 q 542 -11 678 -11 m 540 117 q 713 165 636 117 q 833 297 789 213 q 876 486 876 381 q 833 676 876 592 q 713 808 789 760 q 540 856 636 856 q 368 808 444 856 q 249 676 292 760 q 206 486 206 592 q 249 297 206 381 q 368 165 292 213 q 540 117 444 117 m 542 1049 q 396 1098 451 1049 q 340 1229 340 1147 l 450 1229 q 475 1168 450 1190 q 542 1146 500 1146 q 608 1168 583 1146 q 633 1229 633 1190 l 743 1229 q 688 1098 743 1147 q 542 1049 632 1049 z "},"Ô":{"ha":1082,"x_min":58,"x_max":1024,"o":"m 542 -11 q 294 53 404 -11 q 121 231 183 118 q 58 486 58 344 q 121 741 58 628 q 294 919 183 854 q 542 983 404 983 q 788 919 678 983 q 961 741 899 854 q 1024 486 1024 628 q 961 231 1024 344 q 788 53 899 118 q 542 -11 678 -11 m 540 117 q 713 165 636 117 q 833 297 789 213 q 876 486 876 381 q 833 676 876 592 q 713 808 789 760 q 540 856 636 856 q 368 808 444 856 q 249 676 292 760 q 206 486 206 592 q 249 297 206 381 q 368 165 292 213 q 540 117 444 117 m 476 1226 l 607 1226 l 763 1050 l 635 1050 l 542 1150 l 447 1050 l 319 1050 l 476 1226 z "},"Ố":{"ha":1082,"x_min":58,"x_max":1024,"o":"m 542 -11 q 294 53 404 -11 q 121 231 183 118 q 58 486 58 344 q 121 741 58 628 q 294 919 183 854 q 542 983 404 983 q 788 919 678 983 q 961 741 899 854 q 1024 486 1024 628 q 961 231 1024 344 q 788 53 899 118 q 542 -11 678 -11 m 540 117 q 713 165 636 117 q 833 297 789 213 q 876 486 876 381 q 833 676 876 592 q 713 808 789 760 q 540 856 636 856 q 368 808 444 856 q 249 676 292 760 q 206 486 206 592 q 249 297 206 381 q 368 165 292 213 q 540 117 444 117 m 476 1226 l 607 1226 l 763 1050 l 635 1050 l 542 1150 l 447 1050 l 319 1050 l 476 1226 m 814 1358 l 964 1358 l 811 1182 l 689 1182 l 814 1358 z "},"Ộ":{"ha":1082,"x_min":58,"x_max":1024,"o":"m 542 -11 q 294 53 404 -11 q 121 231 183 118 q 58 486 58 344 q 121 741 58 628 q 294 919 183 854 q 542 983 404 983 q 788 919 678 983 q 961 741 899 854 q 1024 486 1024 628 q 961 231 1024 344 q 788 53 899 118 q 542 -11 678 -11 m 540 117 q 713 165 636 117 q 833 297 789 213 q 876 486 876 381 q 833 676 876 592 q 713 808 789 760 q 540 856 636 856 q 368 808 444 856 q 249 676 292 760 q 206 486 206 592 q 249 297 206 381 q 368 165 292 213 q 540 117 444 117 m 615 -86 l 615 -251 l 468 -251 l 468 -86 l 615 -86 m 476 1226 l 607 1226 l 763 1050 l 635 1050 l 542 1150 l 447 1050 l 319 1050 l 476 1226 z "},"Ồ":{"ha":1082,"x_min":58,"x_max":1024,"o":"m 542 -11 q 294 53 404 -11 q 121 231 183 118 q 58 486 58 344 q 121 741 58 628 q 294 919 183 854 q 542 983 404 983 q 788 919 678 983 q 961 741 899 854 q 1024 486 1024 628 q 961 231 1024 344 q 788 53 899 118 q 542 -11 678 -11 m 540 117 q 713 165 636 117 q 833 297 789 213 q 876 486 876 381 q 833 676 876 592 q 713 808 789 760 q 540 856 636 856 q 368 808 444 856 q 249 676 292 760 q 206 486 206 592 q 249 297 206 381 q 368 165 292 213 q 540 117 444 117 m 476 1226 l 607 1226 l 763 1050 l 635 1050 l 542 1150 l 447 1050 l 319 1050 l 476 1226 m 583 1358 l 735 1358 l 858 1182 l 736 1182 l 583 1358 z "},"Ổ":{"ha":1082,"x_min":58,"x_max":1024,"o":"m 542 -11 q 294 53 404 -11 q 121 231 183 118 q 58 486 58 344 q 121 741 58 628 q 294 919 183 854 q 542 983 404 983 q 788 919 678 983 q 961 741 899 854 q 1024 486 1024 628 q 961 231 1024 344 q 788 53 899 118 q 542 -11 678 -11 m 540 117 q 713 165 636 117 q 833 297 789 213 q 876 486 876 381 q 833 676 876 592 q 713 808 789 760 q 540 856 636 856 q 368 808 444 856 q 249 676 292 760 q 206 486 206 592 q 249 297 206 381 q 368 165 292 213 q 540 117 444 117 z "},"Ỗ":{"ha":1082,"x_min":58,"x_max":1024,"o":"m 542 -11 q 294 53 404 -11 q 121 231 183 118 q 58 486 58 344 q 121 741 58 628 q 294 919 183 854 q 542 983 404 983 q 788 919 678 983 q 961 741 899 854 q 1024 486 1024 628 q 961 231 1024 344 q 788 53 899 118 q 542 -11 678 -11 m 540 117 q 713 165 636 117 q 833 297 789 213 q 876 486 876 381 q 833 676 876 592 q 713 808 789 760 q 540 856 636 856 q 368 808 444 856 q 249 676 292 760 q 206 486 206 592 q 249 297 206 381 q 368 165 292 213 q 540 117 444 117 z "},"Ö":{"ha":1082,"x_min":58,"x_max":1024,"o":"m 542 -11 q 294 53 404 -11 q 121 231 183 118 q 58 486 58 344 q 121 741 58 628 q 294 919 183 854 q 542 983 404 983 q 788 919 678 983 q 961 741 899 854 q 1024 486 1024 628 q 961 231 1024 344 q 788 53 899 118 q 542 -11 678 -11 m 540 117 q 713 165 636 117 q 833 297 789 213 q 876 486 876 381 q 833 676 876 592 q 713 808 789 760 q 540 856 636 856 q 368 808 444 856 q 249 676 292 760 q 206 486 206 592 q 249 297 206 381 q 368 165 292 213 q 540 117 444 117 m 724 1233 l 724 1094 l 601 1094 l 601 1233 l 724 1233 m 482 1233 l 482 1093 l 360 1093 l 360 1233 l 482 1233 z "},"Ọ":{"ha":1082,"x_min":58,"x_max":1024,"o":"m 542 -11 q 294 53 404 -11 q 121 231 183 118 q 58 486 58 344 q 121 741 58 628 q 294 919 183 854 q 542 983 404 983 q 788 919 678 983 q 961 741 899 854 q 1024 486 1024 628 q 961 231 1024 344 q 788 53 899 118 q 542 -11 678 -11 m 540 117 q 713 165 636 117 q 833 297 789 213 q 876 486 876 381 q 833 676 876 592 q 713 808 789 760 q 540 856 636 856 q 368 808 444 856 q 249 676 292 760 q 206 486 206 592 q 249 297 206 381 q 368 165 292 213 q 540 117 444 117 m 615 -86 l 615 -251 l 468 -251 l 468 -86 l 615 -86 z "},"Ò":{"ha":1082,"x_min":58,"x_max":1024,"o":"m 542 -11 q 294 53 404 -11 q 121 231 183 118 q 58 486 58 344 q 121 741 58 628 q 294 919 183 854 q 542 983 404 983 q 788 919 678 983 q 961 741 899 854 q 1024 486 1024 628 q 961 231 1024 344 q 788 53 899 118 q 542 -11 678 -11 m 540 117 q 713 165 636 117 q 833 297 789 213 q 876 486 876 381 q 833 676 876 592 q 713 808 789 760 q 540 856 636 856 q 368 808 444 856 q 249 676 292 760 q 206 486 206 592 q 249 297 206 381 q 368 165 292 213 q 540 117 444 117 m 339 1226 l 489 1226 l 614 1050 l 492 1050 l 339 1226 z "},"Ỏ":{"ha":1082,"x_min":58,"x_max":1024,"o":"m 542 -11 q 294 53 404 -11 q 121 231 183 118 q 58 486 58 344 q 121 741 58 628 q 294 919 183 854 q 542 983 404 983 q 788 919 678 983 q 961 741 899 854 q 1024 486 1024 628 q 961 231 1024 344 q 788 53 899 118 q 542 -11 678 -11 m 540 117 q 713 165 636 117 q 833 297 789 213 q 876 486 876 381 q 833 676 876 592 q 713 808 789 760 q 540 856 636 856 q 368 808 444 856 q 249 676 292 760 q 206 486 206 592 q 249 297 206 381 q 368 165 292 213 q 540 117 444 117 m 529 1113 q 594 1134 571 1114 q 618 1186 618 1154 q 597 1233 618 1215 q 542 1250 575 1250 q 487 1230 508 1250 q 465 1179 465 1210 l 371 1179 q 419 1290 371 1246 q 542 1335 468 1335 q 665 1294 618 1335 q 713 1188 713 1253 q 660 1074 713 1115 q 539 1032 608 1032 l 529 1113 z "},"Ơ":{"ha":1090,"x_min":58,"x_max":1024,"o":"m 542 -11 q 294 53 404 -11 q 121 231 183 118 q 58 486 58 344 q 121 741 58 628 q 294 919 183 854 q 542 983 404 983 l 756 983 q 857 1012 829 983 q 885 1090 885 1040 q 881 1144 885 1118 l 1018 1144 q 1024 1088 1024 1106 q 975 949 1024 1003 q 832 889 926 894 q 973 717 922 822 q 1024 486 1024 613 q 961 231 1024 344 q 788 53 899 118 q 542 -11 678 -11 m 540 117 q 713 165 636 117 q 833 297 789 213 q 876 486 876 381 q 833 676 876 592 q 713 808 789 760 q 540 856 636 856 q 368 808 444 856 q 249 676 292 760 q 206 486 206 592 q 249 297 206 381 q 368 165 292 213 q 540 117 444 117 z "},"Ớ":{"ha":1090,"x_min":58,"x_max":1024,"o":"m 542 -11 q 294 53 404 -11 q 121 231 183 118 q 58 486 58 344 q 121 741 58 628 q 294 919 183 854 q 542 983 404 983 l 756 983 q 857 1012 829 983 q 885 1090 885 1040 q 881 1144 885 1118 l 1018 1144 q 1024 1088 1024 1106 q 975 949 1024 1003 q 832 889 926 894 q 973 717 922 822 q 1024 486 1024 613 q 961 231 1024 344 q 788 53 899 118 q 542 -11 678 -11 m 540 117 q 713 165 636 117 q 833 297 789 213 q 876 486 876 381 q 833 676 876 592 q 713 808 789 760 q 540 856 636 856 q 368 808 444 856 q 249 676 292 760 q 206 486 206 592 q 249 297 206 381 q 368 165 292 213 q 540 117 444 117 m 599 1226 l 750 1226 l 597 1050 l 475 1050 l 599 1226 z "},"Ợ":{"ha":1090,"x_min":58,"x_max":1024,"o":"m 542 -11 q 294 53 404 -11 q 121 231 183 118 q 58 486 58 344 q 121 741 58 628 q 294 919 183 854 q 542 983 404 983 l 756 983 q 857 1012 829 983 q 885 1090 885 1040 q 881 1144 885 1118 l 1018 1144 q 1024 1088 1024 1106 q 975 949 1024 1003 q 832 889 926 894 q 973 717 922 822 q 1024 486 1024 613 q 961 231 1024 344 q 788 53 899 118 q 542 -11 678 -11 m 540 117 q 713 165 636 117 q 833 297 789 213 q 876 486 876 381 q 833 676 876 592 q 713 808 789 760 q 540 856 636 856 q 368 808 444 856 q 249 676 292 760 q 206 486 206 592 q 249 297 206 381 q 368 165 292 213 q 540 117 444 117 m 615 -86 l 615 -251 l 468 -251 l 468 -86 l 615 -86 z "},"Ờ":{"ha":1090,"x_min":58,"x_max":1024,"o":"m 542 -11 q 294 53 404 -11 q 121 231 183 118 q 58 486 58 344 q 121 741 58 628 q 294 919 183 854 q 542 983 404 983 l 756 983 q 857 1012 829 983 q 885 1090 885 1040 q 881 1144 885 1118 l 1018 1144 q 1024 1088 1024 1106 q 975 949 1024 1003 q 832 889 926 894 q 973 717 922 822 q 1024 486 1024 613 q 961 231 1024 344 q 788 53 899 118 q 542 -11 678 -11 m 540 117 q 713 165 636 117 q 833 297 789 213 q 876 486 876 381 q 833 676 876 592 q 713 808 789 760 q 540 856 636 856 q 368 808 444 856 q 249 676 292 760 q 206 486 206 592 q 249 297 206 381 q 368 165 292 213 q 540 117 444 117 m 338 1226 l 488 1226 l 613 1050 l 490 1050 l 338 1226 z "},"Ở":{"ha":1090,"x_min":58,"x_max":1024,"o":"m 542 -11 q 294 53 404 -11 q 121 231 183 118 q 58 486 58 344 q 121 741 58 628 q 294 919 183 854 q 542 983 404 983 l 756 983 q 857 1012 829 983 q 885 1090 885 1040 q 881 1144 885 1118 l 1018 1144 q 1024 1088 1024 1106 q 975 949 1024 1003 q 832 889 926 894 q 973 717 922 822 q 1024 486 1024 613 q 961 231 1024 344 q 788 53 899 118 q 542 -11 678 -11 m 540 117 q 713 165 636 117 q 833 297 789 213 q 876 486 876 381 q 833 676 876 592 q 713 808 789 760 q 540 856 636 856 q 368 808 444 856 q 249 676 292 760 q 206 486 206 592 q 249 297 206 381 q 368 165 292 213 q 540 117 444 117 m 528 1113 q 593 1134 569 1114 q 617 1186 617 1154 q 595 1233 617 1215 q 540 1250 574 1250 q 485 1230 507 1250 q 464 1179 464 1210 l 369 1179 q 418 1290 369 1246 q 540 1335 467 1335 q 664 1294 617 1335 q 711 1188 711 1253 q 659 1074 711 1115 q 538 1032 607 1032 l 528 1113 z "},"Ỡ":{"ha":1090,"x_min":58,"x_max":1024,"o":"m 542 -11 q 294 53 404 -11 q 121 231 183 118 q 58 486 58 344 q 121 741 58 628 q 294 919 183 854 q 542 983 404 983 l 756 983 q 857 1012 829 983 q 885 1090 885 1040 q 881 1144 885 1118 l 1018 1144 q 1024 1088 1024 1106 q 975 949 1024 1003 q 832 889 926 894 q 973 717 922 822 q 1024 486 1024 613 q 961 231 1024 344 q 788 53 899 118 q 542 -11 678 -11 m 540 117 q 713 165 636 117 q 833 297 789 213 q 876 486 876 381 q 833 676 876 592 q 713 808 789 760 q 540 856 636 856 q 368 808 444 856 q 249 676 292 760 q 206 486 206 592 q 249 297 206 381 q 368 165 292 213 q 540 117 444 117 m 631 1079 q 577 1088 600 1079 q 525 1115 554 1097 q 492 1133 504 1128 q 465 1139 479 1139 q 426 1124 442 1139 q 410 1086 410 1110 l 317 1086 q 354 1195 315 1153 q 450 1238 393 1238 q 503 1228 481 1238 q 554 1203 526 1219 q 588 1185 574 1192 q 615 1179 601 1179 q 655 1194 639 1179 q 671 1231 671 1208 l 764 1231 q 726 1122 764 1164 q 631 1079 688 1079 z "},"Ő":{"ha":1082,"x_min":58,"x_max":1024,"o":"m 542 -11 q 294 53 404 -11 q 121 231 183 118 q 58 486 58 344 q 121 741 58 628 q 294 919 183 854 q 542 983 404 983 q 788 919 678 983 q 961 741 899 854 q 1024 486 1024 628 q 961 231 1024 344 q 788 53 899 118 q 542 -11 678 -11 m 540 117 q 713 165 636 117 q 833 297 789 213 q 876 486 876 381 q 833 676 876 592 q 713 808 789 760 q 540 856 636 856 q 368 808 444 856 q 249 676 292 760 q 206 486 206 592 q 249 297 206 381 q 368 165 292 213 q 540 117 444 117 m 482 1226 l 633 1226 l 481 1050 l 358 1050 l 482 1226 m 707 1226 l 857 1226 l 704 1050 l 582 1050 l 707 1226 z "},"Ō":{"ha":1082,"x_min":58,"x_max":1024,"o":"m 542 -11 q 294 53 404 -11 q 121 231 183 118 q 58 486 58 344 q 121 741 58 628 q 294 919 183 854 q 542 983 404 983 q 788 919 678 983 q 961 741 899 854 q 1024 486 1024 628 q 961 231 1024 344 q 788 53 899 118 q 542 -11 678 -11 m 540 117 q 713 165 636 117 q 833 297 789 213 q 876 486 876 381 q 833 676 876 592 q 713 808 789 760 q 540 856 636 856 q 368 808 444 856 q 249 676 292 760 q 206 486 206 592 q 249 297 206 381 q 368 165 292 213 q 540 117 444 117 m 354 1199 l 729 1199 l 729 1090 l 354 1090 l 354 1199 z "},"Ǫ":{"ha":1082,"x_min":58,"x_max":1024,"o":"m 540 117 q 713 165 636 117 q 833 297 789 213 q 876 486 876 381 q 833 676 876 592 q 713 808 789 760 q 540 856 636 856 q 368 808 444 856 q 249 676 292 760 q 206 486 206 592 q 249 297 206 381 q 368 165 292 213 q 540 117 444 117 m 576 -294 q 484 -262 519 -294 q 449 -174 449 -231 q 472 -85 449 -128 q 533 -11 496 -43 q 290 56 399 -10 q 120 233 182 121 q 58 486 58 346 q 121 741 58 628 q 294 919 183 854 q 542 983 404 983 q 788 919 678 983 q 961 741 899 854 q 1024 486 1024 628 q 974 258 1024 361 q 838 86 925 154 q 636 -3 750 18 q 576 -78 599 -39 q 553 -153 553 -118 q 606 -206 553 -206 q 641 -200 622 -206 q 672 -187 660 -194 l 672 -267 q 636 -285 661 -275 q 576 -294 611 -294 z "},"Ø":{"ha":1082,"x_min":58,"x_max":1024,"o":"m 542 -11 q 275 65 393 -11 l 193 -37 l 104 38 l 186 140 q 92 296 125 207 q 58 486 58 385 q 121 741 58 628 q 294 919 183 854 q 542 983 404 983 q 806 908 686 983 l 888 1010 l 976 935 l 894 833 q 990 678 956 767 q 1024 486 1024 589 q 961 231 1024 344 q 788 53 899 118 q 542 -11 678 -11 m 540 117 q 713 165 636 117 q 833 297 789 213 q 876 486 876 381 q 804 722 876 622 l 360 169 q 540 117 442 117 m 206 486 q 276 251 206 351 l 721 803 q 540 856 639 856 q 368 808 444 856 q 249 676 292 760 q 206 486 206 592 z "},"Ǿ":{"ha":1082,"x_min":58,"x_max":1024,"o":"m 542 -11 q 275 65 393 -11 l 193 -37 l 104 38 l 186 140 q 92 296 125 207 q 58 486 58 385 q 121 741 58 628 q 294 919 183 854 q 542 983 404 983 q 806 908 686 983 l 888 1010 l 976 935 l 894 833 q 990 678 956 767 q 1024 486 1024 589 q 961 231 1024 344 q 788 53 899 118 q 542 -11 678 -11 m 540 117 q 713 165 636 117 q 833 297 789 213 q 876 486 876 381 q 804 722 876 622 l 360 169 q 540 117 442 117 m 206 486 q 276 251 206 351 l 721 803 q 540 856 639 856 q 368 808 444 856 q 249 676 292 760 q 206 486 206 592 m 600 1226 l 751 1226 l 599 1050 l 476 1050 l 600 1226 z "},"Õ":{"ha":1082,"x_min":58,"x_max":1024,"o":"m 542 -11 q 294 53 404 -11 q 121 231 183 118 q 58 486 58 344 q 121 741 58 628 q 294 919 183 854 q 542 983 404 983 q 788 919 678 983 q 961 741 899 854 q 1024 486 1024 628 q 961 231 1024 344 q 788 53 899 118 q 542 -11 678 -11 m 540 117 q 713 165 636 117 q 833 297 789 213 q 876 486 876 381 q 833 676 876 592 q 713 808 789 760 q 540 856 636 856 q 368 808 444 856 q 249 676 292 760 q 206 486 206 592 q 249 297 206 381 q 368 165 292 213 q 540 117 444 117 m 632 1079 q 578 1088 601 1079 q 526 1115 556 1097 q 493 1133 506 1128 q 467 1139 481 1139 q 427 1124 443 1139 q 411 1086 411 1110 l 318 1086 q 356 1195 317 1153 q 451 1238 394 1238 q 505 1228 482 1238 q 556 1203 528 1219 q 589 1185 575 1192 q 617 1179 603 1179 q 656 1194 640 1179 q 672 1231 672 1208 l 765 1231 q 727 1122 765 1164 q 632 1079 689 1079 z "},"Œ":{"ha":1394,"x_min":60,"x_max":1343,"o":"m 550 0 q 301 56 413 0 q 124 222 189 113 q 60 486 60 332 q 124 750 60 640 q 301 916 189 860 q 550 972 413 972 l 1328 972 l 1328 844 l 849 844 l 849 565 l 1236 565 l 1236 438 l 849 438 l 849 128 l 1343 128 l 1343 0 l 550 0 m 704 128 l 704 844 l 558 844 q 383 807 463 844 q 256 689 304 769 q 208 486 208 608 q 256 283 208 364 q 383 165 304 203 q 558 128 463 128 l 704 128 z "},"P":{"ha":838,"x_min":111,"x_max":806,"o":"m 111 972 l 488 972 q 658 935 586 972 q 767 832 729 899 q 806 679 806 765 q 767 526 806 593 q 658 423 729 460 q 488 386 586 386 l 256 386 l 256 0 l 111 0 l 111 972 m 483 511 q 614 558 571 511 q 657 679 657 606 q 614 800 657 753 q 483 847 571 847 l 256 847 l 256 511 l 483 511 z "},"Þ":{"ha":851,"x_min":111,"x_max":801,"o":"m 111 972 l 256 972 l 256 765 l 488 765 q 717 690 633 765 q 801 486 801 615 q 717 282 801 357 q 488 207 633 207 l 256 207 l 256 0 l 111 0 l 111 972 m 483 332 q 615 374 572 332 q 657 486 657 415 q 615 599 657 557 q 483 640 572 640 l 256 640 l 256 332 l 483 332 z "},"Q":{"ha":1082,"x_min":58,"x_max":1024,"o":"m 724 -283 q 538 -231 597 -283 q 478 -62 478 -178 l 478 -7 q 261 74 357 7 q 112 249 165 142 q 58 486 58 356 q 121 741 58 628 q 294 919 183 854 q 542 983 404 983 q 788 919 678 983 q 961 741 899 854 q 1024 486 1024 628 q 970 250 1024 357 q 822 76 917 143 q 607 -7 728 8 l 607 -58 q 635 -146 607 -121 q 728 -171 663 -171 l 850 -171 l 850 -283 l 724 -283 m 540 117 q 713 165 636 117 q 833 297 789 213 q 876 486 876 381 q 833 676 876 592 q 713 808 789 760 q 540 856 636 856 q 368 808 444 856 q 249 676 292 760 q 206 486 206 592 q 249 297 206 381 q 368 165 292 213 q 540 117 444 117 z "},"R":{"ha":885,"x_min":111,"x_max":807,"o":"m 111 972 l 492 972 q 723 900 639 972 q 807 703 807 828 q 769 557 807 617 q 663 463 731 497 q 749 376 717 432 q 786 249 781 319 l 806 0 l 663 0 l 643 236 q 599 342 639 301 q 499 383 560 383 l 256 383 l 256 0 l 111 0 l 111 972 m 488 511 q 619 560 576 511 q 663 681 663 608 q 619 800 663 753 q 488 847 576 847 l 256 847 l 256 511 l 488 511 z "},"Ŕ":{"ha":885,"x_min":111,"x_max":807,"o":"m 111 972 l 492 972 q 723 900 639 972 q 807 703 807 828 q 769 557 807 617 q 663 463 731 497 q 749 376 717 432 q 786 249 781 319 l 806 0 l 663 0 l 643 236 q 599 342 639 301 q 499 383 560 383 l 256 383 l 256 0 l 111 0 l 111 972 m 488 511 q 619 560 576 511 q 663 681 663 608 q 619 800 663 753 q 488 847 576 847 l 256 847 l 256 511 l 488 511 m 485 1226 l 636 1226 l 483 1050 l 361 1050 l 485 1226 z "},"Ř":{"ha":885,"x_min":111,"x_max":807,"o":"m 111 972 l 492 972 q 723 900 639 972 q 807 703 807 828 q 769 557 807 617 q 663 463 731 497 q 749 376 717 432 q 786 249 781 319 l 806 0 l 663 0 l 643 236 q 599 342 639 301 q 499 383 560 383 l 256 383 l 256 0 l 111 0 l 111 972 m 488 511 q 619 560 576 511 q 663 681 663 608 q 619 800 663 753 q 488 847 576 847 l 256 847 l 256 511 l 488 511 m 204 1226 l 332 1226 l 426 1126 l 519 1226 l 647 1226 l 492 1050 l 363 1050 l 204 1226 z "},"Ŗ":{"ha":885,"x_min":111,"x_max":807,"o":"m 111 972 l 492 972 q 723 900 639 972 q 807 703 807 828 q 769 557 807 617 q 663 463 731 497 q 749 376 717 432 q 786 249 781 319 l 806 0 l 663 0 l 643 236 q 599 342 639 301 q 499 383 560 383 l 256 383 l 256 0 l 111 0 l 111 972 m 488 511 q 619 560 576 511 q 663 681 663 608 q 619 800 663 753 q 488 847 576 847 l 256 847 l 256 511 l 488 511 m 382 -94 l 535 -94 l 428 -308 l 308 -308 l 382 -94 z "},"S":{"ha":838,"x_min":54,"x_max":783,"o":"m 428 -11 q 160 78 258 -11 q 54 322 63 168 l 194 322 q 261 171 203 225 q 428 117 319 117 q 580 155 524 117 q 636 269 636 193 q 606 352 636 321 q 528 401 575 383 q 401 438 482 418 q 236 488 299 463 q 128 569 174 514 q 83 718 83 625 q 126 856 83 796 q 244 950 168 917 q 417 983 319 983 q 592 947 515 983 q 713 844 668 911 q 764 690 758 778 l 624 690 q 561 810 617 765 q 417 856 506 856 q 279 819 329 856 q 229 719 229 782 q 260 638 229 668 q 336 591 290 607 q 461 557 382 575 q 628 508 564 533 q 738 426 692 482 q 783 271 783 369 q 738 119 783 183 q 613 22 693 56 q 428 -11 532 -11 z "},"Ś":{"ha":838,"x_min":54,"x_max":783,"o":"m 428 -11 q 160 78 258 -11 q 54 322 63 168 l 194 322 q 261 171 203 225 q 428 117 319 117 q 580 155 524 117 q 636 269 636 193 q 606 352 636 321 q 528 401 575 383 q 401 438 482 418 q 236 488 299 463 q 128 569 174 514 q 83 718 83 625 q 126 856 83 796 q 244 950 168 917 q 417 983 319 983 q 592 947 515 983 q 713 844 668 911 q 764 690 758 778 l 624 690 q 561 810 617 765 q 417 856 506 856 q 279 819 329 856 q 229 719 229 782 q 260 638 229 668 q 336 591 290 607 q 461 557 382 575 q 628 508 564 533 q 738 426 692 482 q 783 271 783 369 q 738 119 783 183 q 613 22 693 56 q 428 -11 532 -11 m 474 1226 l 625 1226 l 472 1050 l 350 1050 l 474 1226 z "},"Š":{"ha":838,"x_min":54,"x_max":783,"o":"m 428 -11 q 160 78 258 -11 q 54 322 63 168 l 194 322 q 261 171 203 225 q 428 117 319 117 q 580 155 524 117 q 636 269 636 193 q 606 352 636 321 q 528 401 575 383 q 401 438 482 418 q 236 488 299 463 q 128 569 174 514 q 83 718 83 625 q 126 856 83 796 q 244 950 168 917 q 417 983 319 983 q 592 947 515 983 q 713 844 668 911 q 764 690 758 778 l 624 690 q 561 810 617 765 q 417 856 506 856 q 279 819 329 856 q 229 719 229 782 q 260 638 229 668 q 336 591 290 607 q 461 557 382 575 q 628 508 564 533 q 738 426 692 482 q 783 271 783 369 q 738 119 783 183 q 613 22 693 56 q 428 -11 532 -11 m 193 1226 l 321 1226 l 415 1126 l 508 1226 l 636 1226 l 481 1050 l 351 1050 l 193 1226 z "},"Ş":{"ha":838,"x_min":54,"x_max":783,"o":"m 383 -10 q 147 91 233 3 q 54 322 61 179 l 194 322 q 261 171 203 225 q 428 117 319 117 q 580 155 524 117 q 636 269 636 193 q 606 352 636 321 q 528 401 575 383 q 401 438 482 418 q 236 488 299 463 q 128 569 174 514 q 83 718 83 625 q 126 856 83 796 q 244 950 168 917 q 417 983 319 983 q 592 947 515 983 q 713 844 668 911 q 764 690 758 778 l 624 690 q 561 810 617 765 q 417 856 506 856 q 279 819 329 856 q 229 719 229 782 q 260 638 229 668 q 336 591 290 607 q 461 557 382 575 q 628 508 564 533 q 738 426 692 482 q 783 271 783 369 q 697 73 783 147 q 465 -10 610 -1 l 439 -65 q 469 -64 449 -64 q 565 -92 528 -64 q 603 -169 603 -119 q 553 -261 603 -229 q 421 -293 504 -293 q 310 -274 361 -293 l 310 -194 q 421 -215 364 -215 q 506 -169 506 -215 q 485 -140 506 -150 q 433 -131 465 -131 q 375 -137 400 -131 l 338 -106 l 383 -10 z "},"Ŝ":{"ha":838,"x_min":54,"x_max":783,"o":"m 428 -11 q 160 78 258 -11 q 54 322 63 168 l 194 322 q 261 171 203 225 q 428 117 319 117 q 580 155 524 117 q 636 269 636 193 q 606 352 636 321 q 528 401 575 383 q 401 438 482 418 q 236 488 299 463 q 128 569 174 514 q 83 718 83 625 q 126 856 83 796 q 244 950 168 917 q 417 983 319 983 q 592 947 515 983 q 713 844 668 911 q 764 690 758 778 l 624 690 q 561 810 617 765 q 417 856 506 856 q 279 819 329 856 q 229 719 229 782 q 260 638 229 668 q 336 591 290 607 q 461 557 382 575 q 628 508 564 533 q 738 426 692 482 q 783 271 783 369 q 738 119 783 183 q 613 22 693 56 q 428 -11 532 -11 m 350 1226 l 481 1226 l 636 1050 l 508 1050 l 415 1150 l 321 1050 l 193 1050 l 350 1226 z "},"Ș":{"ha":838,"x_min":54,"x_max":783,"o":"m 428 -11 q 160 78 258 -11 q 54 322 63 168 l 194 322 q 261 171 203 225 q 428 117 319 117 q 580 155 524 117 q 636 269 636 193 q 606 352 636 321 q 528 401 575 383 q 401 438 482 418 q 236 488 299 463 q 128 569 174 514 q 83 718 83 625 q 126 856 83 796 q 244 950 168 917 q 417 983 319 983 q 592 947 515 983 q 713 844 668 911 q 764 690 758 778 l 624 690 q 561 810 617 765 q 417 856 506 856 q 279 819 329 856 q 229 719 229 782 q 260 638 229 668 q 336 591 290 607 q 461 557 382 575 q 628 508 564 533 q 738 426 692 482 q 783 271 783 369 q 738 119 783 183 q 613 22 693 56 q 428 -11 532 -11 m 363 -94 l 515 -94 l 408 -308 l 289 -308 l 363 -94 z "},"ẞ":{"ha":876,"x_min":103,"x_max":817,"o":"m 103 635 q 145 819 103 740 q 266 940 188 897 q 447 983 344 983 q 613 947 539 983 q 731 844 686 910 q 782 692 776 778 l 599 551 q 762 456 707 524 q 817 285 817 388 q 730 77 817 154 q 490 0 643 0 l 344 0 l 344 128 l 471 128 q 623 169 572 128 q 674 290 674 211 q 619 411 674 369 q 461 453 564 453 l 424 453 l 424 551 l 633 718 q 574 823 625 783 q 449 863 524 863 q 301 799 356 863 q 246 632 246 736 l 246 0 l 103 0 l 103 635 z "},"T":{"ha":783,"x_min":15,"x_max":768,"o":"m 319 844 l 15 844 l 15 972 l 768 972 l 768 844 l 464 844 l 464 0 l 319 0 l 319 844 z "},"Ŧ":{"ha":783,"x_min":15,"x_max":768,"o":"m 319 432 l 128 432 l 128 540 l 319 540 l 319 844 l 15 844 l 15 972 l 768 972 l 768 844 l 464 844 l 464 540 l 656 540 l 656 432 l 464 432 l 464 0 l 319 0 l 319 432 z "},"Ť":{"ha":783,"x_min":15,"x_max":768,"o":"m 319 844 l 15 844 l 15 972 l 768 972 l 768 844 l 464 844 l 464 0 l 319 0 l 319 844 m 169 1226 l 297 1226 l 392 1126 l 485 1226 l 613 1226 l 457 1050 l 328 1050 l 169 1226 z "},"Ţ":{"ha":783,"x_min":15,"x_max":768,"o":"m 319 844 l 15 844 l 15 972 l 768 972 l 768 844 l 464 844 l 464 0 l 433 0 l 401 -65 q 432 -64 411 -64 q 528 -92 490 -64 q 565 -169 565 -119 q 516 -261 565 -229 q 383 -293 467 -293 q 272 -274 324 -293 l 272 -194 q 383 -215 326 -215 q 468 -169 468 -215 q 448 -140 468 -150 q 396 -131 428 -131 q 338 -137 363 -131 l 300 -106 l 351 0 l 319 0 l 319 844 z "},"Ț":{"ha":783,"x_min":15,"x_max":768,"o":"m 319 844 l 15 844 l 15 972 l 768 972 l 768 844 l 464 844 l 464 0 l 319 0 l 319 844 m 325 -94 l 478 -94 l 371 -308 l 251 -308 l 325 -94 z "},"U":{"ha":951,"x_min":103,"x_max":849,"o":"m 476 -11 q 280 31 364 -11 q 149 151 196 72 q 103 340 103 231 l 103 972 l 242 972 l 242 336 q 306 176 242 233 q 476 118 369 118 q 647 176 583 118 q 711 336 711 233 l 711 972 l 849 972 l 849 340 q 802 151 849 231 q 672 31 756 72 q 476 -11 588 -11 z "},"Ú":{"ha":951,"x_min":103,"x_max":849,"o":"m 476 -11 q 280 31 364 -11 q 149 151 196 72 q 103 340 103 231 l 103 972 l 242 972 l 242 336 q 306 176 242 233 q 476 118 369 118 q 647 176 583 118 q 711 336 711 233 l 711 972 l 849 972 l 849 340 q 802 151 849 231 q 672 31 756 72 q 476 -11 588 -11 m 535 1226 l 686 1226 l 533 1050 l 411 1050 l 535 1226 z "},"Ŭ":{"ha":951,"x_min":103,"x_max":849,"o":"m 476 -11 q 280 31 364 -11 q 149 151 196 72 q 103 340 103 231 l 103 972 l 242 972 l 242 336 q 306 176 242 233 q 476 118 369 118 q 647 176 583 118 q 711 336 711 233 l 711 972 l 849 972 l 849 340 q 802 151 849 231 q 672 31 756 72 q 476 -11 588 -11 m 476 1049 q 331 1098 386 1049 q 275 1229 275 1147 l 385 1229 q 410 1168 385 1190 q 476 1146 435 1146 q 543 1168 518 1146 q 568 1229 568 1190 l 678 1229 q 622 1098 678 1147 q 476 1049 567 1049 z "},"Û":{"ha":951,"x_min":103,"x_max":849,"o":"m 476 -11 q 280 31 364 -11 q 149 151 196 72 q 103 340 103 231 l 103 972 l 242 972 l 242 336 q 306 176 242 233 q 476 118 369 118 q 647 176 583 118 q 711 336 711 233 l 711 972 l 849 972 l 849 340 q 802 151 849 231 q 672 31 756 72 q 476 -11 588 -11 m 411 1226 l 542 1226 l 697 1050 l 569 1050 l 476 1150 l 382 1050 l 254 1050 l 411 1226 z "},"Ü":{"ha":951,"x_min":103,"x_max":849,"o":"m 476 -11 q 280 31 364 -11 q 149 151 196 72 q 103 340 103 231 l 103 972 l 242 972 l 242 336 q 306 176 242 233 q 476 118 369 118 q 647 176 583 118 q 711 336 711 233 l 711 972 l 849 972 l 849 340 q 802 151 849 231 q 672 31 756 72 q 476 -11 588 -11 m 658 1233 l 658 1094 l 536 1094 l 536 1233 l 658 1233 m 417 1233 l 417 1093 l 294 1093 l 294 1233 l 417 1233 z "},"Ụ":{"ha":951,"x_min":103,"x_max":849,"o":"m 476 -11 q 280 31 364 -11 q 149 151 196 72 q 103 340 103 231 l 103 972 l 242 972 l 242 336 q 306 176 242 233 q 476 118 369 118 q 647 176 583 118 q 711 336 711 233 l 711 972 l 849 972 l 849 340 q 802 151 849 231 q 672 31 756 72 q 476 -11 588 -11 m 550 -86 l 550 -251 l 403 -251 l 403 -86 l 550 -86 z "},"Ù":{"ha":951,"x_min":103,"x_max":849,"o":"m 476 -11 q 280 31 364 -11 q 149 151 196 72 q 103 340 103 231 l 103 972 l 242 972 l 242 336 q 306 176 242 233 q 476 118 369 118 q 647 176 583 118 q 711 336 711 233 l 711 972 l 849 972 l 849 340 q 802 151 849 231 q 672 31 756 72 q 476 -11 588 -11 m 274 1226 l 424 1226 l 549 1050 l 426 1050 l 274 1226 z "},"Ủ":{"ha":951,"x_min":103,"x_max":849,"o":"m 476 -11 q 280 31 364 -11 q 149 151 196 72 q 103 340 103 231 l 103 972 l 242 972 l 242 336 q 306 176 242 233 q 476 118 369 118 q 647 176 583 118 q 711 336 711 233 l 711 972 l 849 972 l 849 340 q 802 151 849 231 q 672 31 756 72 q 476 -11 588 -11 m 464 1113 q 529 1134 506 1114 q 553 1186 553 1154 q 531 1233 553 1215 q 476 1250 510 1250 q 422 1230 443 1250 q 400 1179 400 1210 l 306 1179 q 354 1290 306 1246 q 476 1335 403 1335 q 600 1294 553 1335 q 647 1188 647 1253 q 595 1074 647 1115 q 474 1032 543 1032 l 464 1113 z "},"Ư":{"ha":951,"x_min":103,"x_max":993,"o":"m 476 -11 q 280 31 364 -11 q 149 151 196 72 q 103 340 103 231 l 103 972 l 242 972 l 242 336 q 306 176 242 233 q 476 118 369 118 q 647 176 583 118 q 711 336 711 233 l 711 972 l 721 972 q 826 1001 796 972 q 856 1086 856 1031 q 850 1146 856 1104 l 988 1146 q 993 1092 993 1110 q 955 966 993 1018 q 849 900 917 914 l 849 340 q 802 151 849 231 q 672 31 756 72 q 476 -11 588 -11 z "},"Ứ":{"ha":951,"x_min":103,"x_max":993,"o":"m 476 -11 q 280 31 364 -11 q 149 151 196 72 q 103 340 103 231 l 103 972 l 242 972 l 242 336 q 306 176 242 233 q 476 118 369 118 q 647 176 583 118 q 711 336 711 233 l 711 972 l 721 972 q 826 1001 796 972 q 856 1086 856 1031 q 850 1146 856 1104 l 988 1146 q 993 1092 993 1110 q 955 966 993 1018 q 849 900 917 914 l 849 340 q 802 151 849 231 q 672 31 756 72 q 476 -11 588 -11 m 535 1226 l 686 1226 l 533 1050 l 411 1050 l 535 1226 z "},"Ự":{"ha":951,"x_min":103,"x_max":993,"o":"m 476 -11 q 280 31 364 -11 q 149 151 196 72 q 103 340 103 231 l 103 972 l 242 972 l 242 336 q 306 176 242 233 q 476 118 369 118 q 647 176 583 118 q 711 336 711 233 l 711 972 l 721 972 q 826 1001 796 972 q 856 1086 856 1031 q 850 1146 856 1104 l 988 1146 q 993 1092 993 1110 q 955 966 993 1018 q 849 900 917 914 l 849 340 q 802 151 849 231 q 672 31 756 72 q 476 -11 588 -11 m 550 -86 l 550 -251 l 403 -251 l 403 -86 l 550 -86 z "},"Ừ":{"ha":951,"x_min":103,"x_max":993,"o":"m 476 -11 q 280 31 364 -11 q 149 151 196 72 q 103 340 103 231 l 103 972 l 242 972 l 242 336 q 306 176 242 233 q 476 118 369 118 q 647 176 583 118 q 711 336 711 233 l 711 972 l 721 972 q 826 1001 796 972 q 856 1086 856 1031 q 850 1146 856 1104 l 988 1146 q 993 1092 993 1110 q 955 966 993 1018 q 849 900 917 914 l 849 340 q 802 151 849 231 q 672 31 756 72 q 476 -11 588 -11 m 274 1226 l 424 1226 l 549 1050 l 426 1050 l 274 1226 z "},"Ử":{"ha":951,"x_min":103,"x_max":993,"o":"m 476 -11 q 280 31 364 -11 q 149 151 196 72 q 103 340 103 231 l 103 972 l 242 972 l 242 336 q 306 176 242 233 q 476 118 369 118 q 647 176 583 118 q 711 336 711 233 l 711 972 l 721 972 q 826 1001 796 972 q 856 1086 856 1031 q 850 1146 856 1104 l 988 1146 q 993 1092 993 1110 q 955 966 993 1018 q 849 900 917 914 l 849 340 q 802 151 849 231 q 672 31 756 72 q 476 -11 588 -11 m 464 1113 q 529 1134 506 1114 q 553 1186 553 1154 q 531 1233 553 1215 q 476 1250 510 1250 q 422 1230 443 1250 q 400 1179 400 1210 l 306 1179 q 354 1290 306 1246 q 476 1335 403 1335 q 600 1294 553 1335 q 647 1188 647 1253 q 595 1074 647 1115 q 474 1032 543 1032 l 464 1113 z "},"Ữ":{"ha":951,"x_min":103,"x_max":993,"o":"m 476 -11 q 280 31 364 -11 q 149 151 196 72 q 103 340 103 231 l 103 972 l 242 972 l 242 336 q 306 176 242 233 q 476 118 369 118 q 647 176 583 118 q 711 336 711 233 l 711 972 l 721 972 q 826 1001 796 972 q 856 1086 856 1031 q 850 1146 856 1104 l 988 1146 q 993 1092 993 1110 q 955 966 993 1018 q 849 900 917 914 l 849 340 q 802 151 849 231 q 672 31 756 72 q 476 -11 588 -11 m 567 1079 q 513 1088 536 1079 q 461 1115 490 1097 q 428 1133 440 1128 q 401 1139 415 1139 q 362 1124 378 1139 q 346 1086 346 1110 l 253 1086 q 290 1195 251 1153 q 386 1238 329 1238 q 440 1228 417 1238 q 490 1203 463 1219 q 524 1185 510 1192 q 551 1179 538 1179 q 591 1194 575 1179 q 607 1231 607 1208 l 700 1231 q 662 1122 700 1164 q 567 1079 624 1079 z "},"Ű":{"ha":951,"x_min":103,"x_max":849,"o":"m 476 -11 q 280 31 364 -11 q 149 151 196 72 q 103 340 103 231 l 103 972 l 242 972 l 242 336 q 306 176 242 233 q 476 118 369 118 q 647 176 583 118 q 711 336 711 233 l 711 972 l 849 972 l 849 340 q 802 151 849 231 q 672 31 756 72 q 476 -11 588 -11 m 417 1226 l 568 1226 l 415 1050 l 293 1050 l 417 1226 m 642 1226 l 792 1226 l 639 1050 l 517 1050 l 642 1226 z "},"Ū":{"ha":951,"x_min":103,"x_max":849,"o":"m 476 -11 q 280 31 364 -11 q 149 151 196 72 q 103 340 103 231 l 103 972 l 242 972 l 242 336 q 306 176 242 233 q 476 118 369 118 q 647 176 583 118 q 711 336 711 233 l 711 972 l 849 972 l 849 340 q 802 151 849 231 q 672 31 756 72 q 476 -11 588 -11 m 289 1199 l 664 1199 l 664 1090 l 289 1090 l 289 1199 z "},"Ų":{"ha":951,"x_min":103,"x_max":849,"o":"m 478 -294 q 385 -262 421 -294 q 350 -174 350 -231 q 374 -84 350 -126 q 436 -10 397 -42 q 193 94 283 1 q 103 340 103 186 l 103 972 l 242 972 l 242 336 q 306 176 242 233 q 476 118 369 118 q 647 176 583 118 q 711 336 711 233 l 711 972 l 849 972 l 849 340 q 763 99 849 190 q 532 -8 678 7 q 454 -153 454 -86 q 507 -206 454 -206 q 542 -200 524 -206 q 574 -187 561 -194 l 574 -267 q 538 -285 563 -275 q 478 -294 513 -294 z "},"Ů":{"ha":951,"x_min":103,"x_max":849,"o":"m 476 -11 q 280 31 364 -11 q 149 151 196 72 q 103 340 103 231 l 103 972 l 242 972 l 242 336 q 306 176 242 233 q 476 118 369 118 q 647 176 583 118 q 711 336 711 233 l 711 972 l 849 972 l 849 340 q 802 151 849 231 q 672 31 756 72 q 476 -11 588 -11 m 476 1011 q 356 1055 404 1011 q 308 1164 308 1099 q 356 1273 308 1229 q 476 1317 404 1317 q 597 1273 549 1317 q 644 1164 644 1229 q 597 1055 644 1099 q 476 1011 549 1011 m 476 1089 q 535 1110 513 1089 q 557 1164 557 1131 q 535 1218 557 1197 q 476 1239 513 1239 q 419 1218 442 1239 q 396 1164 396 1197 q 419 1110 396 1131 q 476 1089 442 1089 z "},"Ũ":{"ha":951,"x_min":103,"x_max":849,"o":"m 476 -11 q 280 31 364 -11 q 149 151 196 72 q 103 340 103 231 l 103 972 l 242 972 l 242 336 q 306 176 242 233 q 476 118 369 118 q 647 176 583 118 q 711 336 711 233 l 711 972 l 849 972 l 849 340 q 802 151 849 231 q 672 31 756 72 q 476 -11 588 -11 m 567 1079 q 513 1088 536 1079 q 461 1115 490 1097 q 428 1133 440 1128 q 401 1139 415 1139 q 362 1124 378 1139 q 346 1086 346 1110 l 253 1086 q 290 1195 251 1153 q 386 1238 329 1238 q 440 1228 417 1238 q 490 1203 463 1219 q 524 1185 510 1192 q 551 1179 538 1179 q 591 1194 575 1179 q 607 1231 607 1208 l 700 1231 q 662 1122 700 1164 q 567 1079 624 1079 z "},"V":{"ha":906,"x_min":18,"x_max":888,"o":"m 18 972 l 165 972 l 451 174 l 740 972 l 888 972 l 525 0 l 381 0 l 18 972 z "},"W":{"ha":1381,"x_min":22,"x_max":1357,"o":"m 22 972 l 171 972 l 394 215 l 626 972 l 753 972 l 985 215 l 1211 972 l 1357 972 l 1063 0 l 917 0 l 689 749 l 463 0 l 319 0 l 22 972 z "},"Ẃ":{"ha":1381,"x_min":22,"x_max":1357,"o":"m 22 972 l 171 972 l 394 215 l 626 972 l 753 972 l 985 215 l 1211 972 l 1357 972 l 1063 0 l 917 0 l 689 749 l 463 0 l 319 0 l 22 972 m 750 1226 l 901 1226 l 749 1050 l 626 1050 l 750 1226 z "},"Ŵ":{"ha":1381,"x_min":22,"x_max":1357,"o":"m 22 972 l 171 972 l 394 215 l 626 972 l 753 972 l 985 215 l 1211 972 l 1357 972 l 1063 0 l 917 0 l 689 749 l 463 0 l 319 0 l 22 972 m 626 1226 l 757 1226 l 913 1050 l 785 1050 l 692 1150 l 597 1050 l 469 1050 l 626 1226 z "},"Ẅ":{"ha":1381,"x_min":22,"x_max":1357,"o":"m 22 972 l 171 972 l 394 215 l 626 972 l 753 972 l 985 215 l 1211 972 l 1357 972 l 1063 0 l 917 0 l 689 749 l 463 0 l 319 0 l 22 972 m 874 1233 l 874 1094 l 751 1094 l 751 1233 l 874 1233 m 632 1233 l 632 1093 l 510 1093 l 510 1233 l 632 1233 z "},"Ẁ":{"ha":1381,"x_min":22,"x_max":1357,"o":"m 22 972 l 171 972 l 394 215 l 626 972 l 753 972 l 985 215 l 1211 972 l 1357 972 l 1063 0 l 917 0 l 689 749 l 463 0 l 319 0 l 22 972 m 489 1226 l 639 1226 l 764 1050 l 642 1050 l 489 1226 z "},"X":{"ha":803,"x_min":14,"x_max":789,"o":"m 324 494 l 25 972 l 182 972 l 401 619 l 622 972 l 779 972 l 481 494 l 789 0 l 631 0 l 401 368 l 172 0 l 14 0 l 324 494 z "},"Y":{"ha":856,"x_min":15,"x_max":840,"o":"m 356 406 l 15 972 l 175 972 l 428 543 l 681 972 l 840 972 l 500 406 l 500 0 l 356 0 l 356 406 z "},"Ý":{"ha":856,"x_min":15,"x_max":840,"o":"m 356 406 l 15 972 l 175 972 l 428 543 l 681 972 l 840 972 l 500 406 l 500 0 l 356 0 l 356 406 m 486 1226 l 638 1226 l 485 1050 l 363 1050 l 486 1226 z "},"Ŷ":{"ha":856,"x_min":15,"x_max":840,"o":"m 356 406 l 15 972 l 175 972 l 428 543 l 681 972 l 840 972 l 500 406 l 500 0 l 356 0 l 356 406 m 363 1226 l 493 1226 l 649 1050 l 521 1050 l 428 1150 l 333 1050 l 206 1050 l 363 1226 z "},"Ÿ":{"ha":856,"x_min":15,"x_max":840,"o":"m 356 406 l 15 972 l 175 972 l 428 543 l 681 972 l 840 972 l 500 406 l 500 0 l 356 0 l 356 406 m 610 1233 l 610 1094 l 488 1094 l 488 1233 l 610 1233 m 368 1233 l 368 1093 l 246 1093 l 246 1233 l 368 1233 z "},"Ỵ":{"ha":856,"x_min":15,"x_max":840,"o":"m 356 406 l 15 972 l 175 972 l 428 543 l 681 972 l 840 972 l 500 406 l 500 0 l 356 0 l 356 406 m 501 -86 l 501 -251 l 354 -251 l 354 -86 l 501 -86 z "},"Ỳ":{"ha":856,"x_min":15,"x_max":840,"o":"m 356 406 l 15 972 l 175 972 l 428 543 l 681 972 l 840 972 l 500 406 l 500 0 l 356 0 l 356 406 m 225 1226 l 375 1226 l 500 1050 l 378 1050 l 225 1226 z "},"Ỷ":{"ha":856,"x_min":15,"x_max":840,"o":"m 356 406 l 15 972 l 175 972 l 428 543 l 681 972 l 840 972 l 500 406 l 500 0 l 356 0 l 356 406 m 415 1113 q 481 1134 457 1114 q 504 1186 504 1154 q 483 1233 504 1215 q 428 1250 461 1250 q 373 1230 394 1250 q 351 1179 351 1210 l 257 1179 q 306 1290 257 1246 q 428 1335 354 1335 q 551 1294 504 1335 q 599 1188 599 1253 q 547 1074 599 1115 q 425 1032 494 1032 l 415 1113 z "},"Ȳ":{"ha":856,"x_min":15,"x_max":840,"o":"m 356 406 l 15 972 l 175 972 l 428 543 l 681 972 l 840 972 l 500 406 l 500 0 l 356 0 l 356 406 m 240 1199 l 615 1199 l 615 1090 l 240 1090 l 240 1199 z "},"Ỹ":{"ha":856,"x_min":15,"x_max":840,"o":"m 356 406 l 15 972 l 175 972 l 428 543 l 681 972 l 840 972 l 500 406 l 500 0 l 356 0 l 356 406 m 518 1079 q 465 1088 488 1079 q 413 1115 442 1097 q 379 1133 392 1128 q 353 1139 367 1139 q 313 1124 329 1139 q 297 1086 297 1110 l 204 1086 q 242 1195 203 1153 q 338 1238 281 1238 q 391 1228 368 1238 q 442 1203 414 1219 q 475 1185 461 1192 q 503 1179 489 1179 q 542 1194 526 1179 q 558 1231 558 1208 l 651 1231 q 613 1122 651 1164 q 518 1079 575 1079 z "},"Z":{"ha":826,"x_min":39,"x_max":775,"o":"m 39 126 l 611 846 l 68 846 l 68 972 l 775 972 l 775 846 l 203 126 l 775 126 l 775 0 l 39 0 l 39 126 z "},"Ź":{"ha":826,"x_min":39,"x_max":775,"o":"m 39 126 l 611 846 l 68 846 l 68 972 l 775 972 l 775 846 l 203 126 l 775 126 l 775 0 l 39 0 l 39 126 m 483 1226 l 635 1226 l 482 1050 l 360 1050 l 483 1226 z "},"Ž":{"ha":826,"x_min":39,"x_max":775,"o":"m 39 126 l 611 846 l 68 846 l 68 972 l 775 972 l 775 846 l 203 126 l 775 126 l 775 0 l 39 0 l 39 126 m 203 1226 l 331 1226 l 425 1126 l 518 1226 l 646 1226 l 490 1050 l 361 1050 l 203 1226 z "},"Ż":{"ha":826,"x_min":39,"x_max":775,"o":"m 39 126 l 611 846 l 68 846 l 68 972 l 775 972 l 775 846 l 203 126 l 775 126 l 775 0 l 39 0 l 39 126 m 500 1265 l 500 1096 l 350 1096 l 350 1265 l 500 1265 z "},"Ꞌ":{"ha":286,"x_min":72,"x_max":214,"o":"m 72 993 l 214 993 l 186 582 l 101 582 l 72 993 z "},"a":{"ha":754,"x_min":65,"x_max":665,"o":"m 304 -11 q 131 47 197 -11 q 65 200 65 106 q 140 363 65 301 q 338 424 214 424 l 485 424 q 532 460 532 424 q 487 563 532 524 q 363 603 442 603 q 242 564 290 603 q 190 471 193 525 l 65 471 q 111 594 71 539 q 218 680 151 649 q 367 711 285 711 q 524 678 456 711 q 628 588 592 646 q 665 451 665 529 l 665 0 l 532 0 l 532 115 q 444 23 506 57 q 304 -11 383 -11 m 331 96 q 478 153 425 96 q 532 307 532 210 l 532 319 l 351 319 q 241 288 282 319 q 200 203 200 257 q 235 125 200 154 q 331 96 271 96 z "},"á":{"ha":754,"x_min":65,"x_max":665,"o":"m 304 -11 q 131 47 197 -11 q 65 200 65 106 q 140 363 65 301 q 338 424 214 424 l 485 424 q 532 460 532 424 q 487 563 532 524 q 363 603 442 603 q 242 564 290 603 q 190 471 193 525 l 65 471 q 111 594 71 539 q 218 680 151 649 q 367 711 285 711 q 524 678 456 711 q 628 588 592 646 q 665 451 665 529 l 665 0 l 532 0 l 532 115 q 444 23 506 57 q 304 -11 383 -11 m 331 96 q 478 153 425 96 q 532 307 532 210 l 532 319 l 351 319 q 241 288 282 319 q 200 203 200 257 q 235 125 200 154 q 331 96 271 96 m 431 982 l 581 982 l 438 776 l 317 776 l 431 982 z "},"ă":{"ha":754,"x_min":65,"x_max":665,"o":"m 304 -11 q 131 47 197 -11 q 65 200 65 106 q 140 363 65 301 q 338 424 214 424 l 485 424 q 532 460 532 424 q 487 563 532 524 q 363 603 442 603 q 242 564 290 603 q 190 471 193 525 l 65 471 q 111 594 71 539 q 218 680 151 649 q 367 711 285 711 q 524 678 456 711 q 628 588 592 646 q 665 451 665 529 l 665 0 l 532 0 l 532 115 q 444 23 506 57 q 304 -11 383 -11 m 331 96 q 478 153 425 96 q 532 307 532 210 l 532 319 l 351 319 q 241 288 282 319 q 200 203 200 257 q 235 125 200 154 q 331 96 271 96 m 376 776 q 232 833 288 776 q 176 972 176 889 l 286 972 q 311 902 286 929 q 376 875 336 875 q 442 902 417 875 q 468 972 468 929 l 578 972 q 522 833 578 889 q 376 776 465 776 z "},"ắ":{"ha":754,"x_min":65,"x_max":665,"o":"m 304 -11 q 131 47 197 -11 q 65 200 65 106 q 140 363 65 301 q 338 424 214 424 l 485 424 q 532 460 532 424 q 487 563 532 524 q 363 603 442 603 q 242 564 290 603 q 190 471 193 525 l 65 471 q 111 594 71 539 q 218 680 151 649 q 367 711 285 711 q 524 678 456 711 q 628 588 592 646 q 665 451 665 529 l 665 0 l 532 0 l 532 115 q 444 23 506 57 q 304 -11 383 -11 m 331 96 q 478 153 425 96 q 532 307 532 210 l 532 319 l 351 319 q 241 288 282 319 q 200 203 200 257 q 235 125 200 154 q 331 96 271 96 m 376 776 q 232 833 288 776 q 176 972 176 889 l 286 972 q 311 902 286 929 q 376 875 336 875 q 442 902 417 875 q 468 972 468 929 l 578 972 q 522 833 578 889 q 376 776 465 776 m 428 1204 l 578 1204 l 435 999 l 314 999 l 428 1204 z "},"ặ":{"ha":754,"x_min":65,"x_max":665,"o":"m 304 -11 q 131 47 197 -11 q 65 200 65 106 q 140 363 65 301 q 338 424 214 424 l 485 424 q 532 460 532 424 q 487 563 532 524 q 363 603 442 603 q 242 564 290 603 q 190 471 193 525 l 65 471 q 111 594 71 539 q 218 680 151 649 q 367 711 285 711 q 524 678 456 711 q 628 588 592 646 q 665 451 665 529 l 665 0 l 532 0 l 532 115 q 444 23 506 57 q 304 -11 383 -11 m 331 96 q 478 153 425 96 q 532 307 532 210 l 532 319 l 351 319 q 241 288 282 319 q 200 203 200 257 q 235 125 200 154 q 331 96 271 96 m 446 -86 l 446 -251 l 299 -251 l 299 -86 l 446 -86 m 376 776 q 232 833 288 776 q 176 972 176 889 l 286 972 q 311 902 286 929 q 376 875 336 875 q 442 902 417 875 q 468 972 468 929 l 578 972 q 522 833 578 889 q 376 776 465 776 z "},"ằ":{"ha":754,"x_min":65,"x_max":665,"o":"m 304 -11 q 131 47 197 -11 q 65 200 65 106 q 140 363 65 301 q 338 424 214 424 l 485 424 q 532 460 532 424 q 487 563 532 524 q 363 603 442 603 q 242 564 290 603 q 190 471 193 525 l 65 471 q 111 594 71 539 q 218 680 151 649 q 367 711 285 711 q 524 678 456 711 q 628 588 592 646 q 665 451 665 529 l 665 0 l 532 0 l 532 115 q 444 23 506 57 q 304 -11 383 -11 m 331 96 q 478 153 425 96 q 532 307 532 210 l 532 319 l 351 319 q 241 288 282 319 q 200 203 200 257 q 235 125 200 154 q 331 96 271 96 m 376 776 q 232 833 288 776 q 176 972 176 889 l 286 972 q 311 902 286 929 q 376 875 336 875 q 442 902 417 875 q 468 972 468 929 l 578 972 q 522 833 578 889 q 376 776 465 776 m 181 1204 l 332 1204 l 446 999 l 324 999 l 181 1204 z "},"ẳ":{"ha":754,"x_min":65,"x_max":665,"o":"m 304 -11 q 131 47 197 -11 q 65 200 65 106 q 140 363 65 301 q 338 424 214 424 l 485 424 q 532 460 532 424 q 487 563 532 524 q 363 603 442 603 q 242 564 290 603 q 190 471 193 525 l 65 471 q 111 594 71 539 q 218 680 151 649 q 367 711 285 711 q 524 678 456 711 q 628 588 592 646 q 665 451 665 529 l 665 0 l 532 0 l 532 115 q 444 23 506 57 q 304 -11 383 -11 m 331 96 q 478 153 425 96 q 532 307 532 210 l 532 319 l 351 319 q 241 288 282 319 q 200 203 200 257 q 235 125 200 154 q 331 96 271 96 m 357 1069 q 422 1092 397 1072 q 446 1143 446 1111 q 424 1189 446 1171 q 369 1207 403 1207 q 315 1187 336 1207 q 293 1135 293 1167 l 199 1135 q 247 1246 199 1201 q 369 1290 294 1290 q 493 1250 446 1290 q 540 1144 540 1210 q 488 1029 540 1071 q 367 988 436 988 l 357 1069 m 376 776 q 232 833 288 776 q 176 972 176 889 l 286 972 q 311 902 286 929 q 376 875 336 875 q 442 902 417 875 q 468 972 468 929 l 578 972 q 522 833 578 889 q 376 776 465 776 z "},"ẵ":{"ha":754,"x_min":65,"x_max":665,"o":"m 304 -11 q 131 47 197 -11 q 65 200 65 106 q 140 363 65 301 q 338 424 214 424 l 485 424 q 532 460 532 424 q 487 563 532 524 q 363 603 442 603 q 242 564 290 603 q 190 471 193 525 l 65 471 q 111 594 71 539 q 218 680 151 649 q 367 711 285 711 q 524 678 456 711 q 628 588 592 646 q 665 451 665 529 l 665 0 l 532 0 l 532 115 q 444 23 506 57 q 304 -11 383 -11 m 331 96 q 478 153 425 96 q 532 307 532 210 l 532 319 l 351 319 q 241 288 282 319 q 200 203 200 257 q 235 125 200 154 q 331 96 271 96 z "},"â":{"ha":754,"x_min":65,"x_max":665,"o":"m 304 -11 q 131 47 197 -11 q 65 200 65 106 q 140 363 65 301 q 338 424 214 424 l 485 424 q 532 460 532 424 q 487 563 532 524 q 363 603 442 603 q 242 564 290 603 q 190 471 193 525 l 65 471 q 111 594 71 539 q 218 680 151 649 q 367 711 285 711 q 524 678 456 711 q 628 588 592 646 q 665 451 665 529 l 665 0 l 532 0 l 532 115 q 444 23 506 57 q 304 -11 383 -11 m 331 96 q 478 153 425 96 q 532 307 532 210 l 532 319 l 351 319 q 241 288 282 319 q 200 203 200 257 q 235 125 200 154 q 331 96 271 96 m 319 971 l 435 971 l 586 776 l 465 776 l 376 883 l 289 776 l 167 776 l 319 971 z "},"ấ":{"ha":754,"x_min":65,"x_max":776,"o":"m 304 -11 q 131 47 197 -11 q 65 200 65 106 q 140 363 65 301 q 338 424 214 424 l 485 424 q 532 460 532 424 q 487 563 532 524 q 363 603 442 603 q 242 564 290 603 q 190 471 193 525 l 65 471 q 111 594 71 539 q 218 680 151 649 q 367 711 285 711 q 524 678 456 711 q 628 588 592 646 q 665 451 665 529 l 665 0 l 532 0 l 532 115 q 444 23 506 57 q 304 -11 383 -11 m 331 96 q 478 153 425 96 q 532 307 532 210 l 532 319 l 351 319 q 241 288 282 319 q 200 203 200 257 q 235 125 200 154 q 331 96 271 96 m 319 971 l 435 971 l 586 776 l 465 776 l 376 883 l 289 776 l 167 776 l 319 971 m 626 1132 l 776 1132 l 633 926 l 513 926 l 626 1132 z "},"ậ":{"ha":754,"x_min":65,"x_max":665,"o":"m 304 -11 q 131 47 197 -11 q 65 200 65 106 q 140 363 65 301 q 338 424 214 424 l 485 424 q 532 460 532 424 q 487 563 532 524 q 363 603 442 603 q 242 564 290 603 q 190 471 193 525 l 65 471 q 111 594 71 539 q 218 680 151 649 q 367 711 285 711 q 524 678 456 711 q 628 588 592 646 q 665 451 665 529 l 665 0 l 532 0 l 532 115 q 444 23 506 57 q 304 -11 383 -11 m 331 96 q 478 153 425 96 q 532 307 532 210 l 532 319 l 351 319 q 241 288 282 319 q 200 203 200 257 q 235 125 200 154 q 331 96 271 96 m 446 -86 l 446 -251 l 299 -251 l 299 -86 l 446 -86 m 319 971 l 435 971 l 586 776 l 465 776 l 376 883 l 289 776 l 167 776 l 319 971 z "},"ầ":{"ha":754,"x_min":65,"x_max":676,"o":"m 304 -11 q 131 47 197 -11 q 65 200 65 106 q 140 363 65 301 q 338 424 214 424 l 485 424 q 532 460 532 424 q 487 563 532 524 q 363 603 442 603 q 242 564 290 603 q 190 471 193 525 l 65 471 q 111 594 71 539 q 218 680 151 649 q 367 711 285 711 q 524 678 456 711 q 628 588 592 646 q 665 451 665 529 l 665 0 l 532 0 l 532 115 q 444 23 506 57 q 304 -11 383 -11 m 331 96 q 478 153 425 96 q 532 307 532 210 l 532 319 l 351 319 q 241 288 282 319 q 200 203 200 257 q 235 125 200 154 q 331 96 271 96 m 319 971 l 435 971 l 586 776 l 465 776 l 376 883 l 289 776 l 167 776 l 319 971 m 413 1132 l 563 1132 l 676 926 l 556 926 l 413 1132 z "},"ẩ":{"ha":754,"x_min":65,"x_max":711,"o":"m 304 -11 q 131 47 197 -11 q 65 200 65 106 q 140 363 65 301 q 338 424 214 424 l 485 424 q 532 460 532 424 q 487 563 532 524 q 363 603 442 603 q 242 564 290 603 q 190 471 193 525 l 65 471 q 111 594 71 539 q 218 680 151 649 q 367 711 285 711 q 524 678 456 711 q 628 588 592 646 q 665 451 665 529 l 665 0 l 532 0 l 532 115 q 444 23 506 57 q 304 -11 383 -11 m 331 96 q 478 153 425 96 q 532 307 532 210 l 532 319 l 351 319 q 241 288 282 319 q 200 203 200 257 q 235 125 200 154 q 331 96 271 96 z "},"ẫ":{"ha":754,"x_min":65,"x_max":665,"o":"m 304 -11 q 131 47 197 -11 q 65 200 65 106 q 140 363 65 301 q 338 424 214 424 l 485 424 q 532 460 532 424 q 487 563 532 524 q 363 603 442 603 q 242 564 290 603 q 190 471 193 525 l 65 471 q 111 594 71 539 q 218 680 151 649 q 367 711 285 711 q 524 678 456 711 q 628 588 592 646 q 665 451 665 529 l 665 0 l 532 0 l 532 115 q 444 23 506 57 q 304 -11 383 -11 m 331 96 q 478 153 425 96 q 532 307 532 210 l 532 319 l 351 319 q 241 288 282 319 q 200 203 200 257 q 235 125 200 154 q 331 96 271 96 z "},"ä":{"ha":754,"x_min":65,"x_max":665,"o":"m 304 -11 q 131 47 197 -11 q 65 200 65 106 q 140 363 65 301 q 338 424 214 424 l 485 424 q 532 460 532 424 q 487 563 532 524 q 363 603 442 603 q 242 564 290 603 q 190 471 193 525 l 65 471 q 111 594 71 539 q 218 680 151 649 q 367 711 285 711 q 524 678 456 711 q 628 588 592 646 q 665 451 665 529 l 665 0 l 532 0 l 532 115 q 444 23 506 57 q 304 -11 383 -11 m 331 96 q 478 153 425 96 q 532 307 532 210 l 532 319 l 351 319 q 241 288 282 319 q 200 203 200 257 q 235 125 200 154 q 331 96 271 96 m 558 961 l 558 822 l 436 822 l 436 961 l 558 961 m 317 961 l 317 821 l 194 821 l 194 961 l 317 961 z "},"ạ":{"ha":754,"x_min":65,"x_max":665,"o":"m 304 -11 q 131 47 197 -11 q 65 200 65 106 q 140 363 65 301 q 338 424 214 424 l 485 424 q 532 460 532 424 q 487 563 532 524 q 363 603 442 603 q 242 564 290 603 q 190 471 193 525 l 65 471 q 111 594 71 539 q 218 680 151 649 q 367 711 285 711 q 524 678 456 711 q 628 588 592 646 q 665 451 665 529 l 665 0 l 532 0 l 532 115 q 444 23 506 57 q 304 -11 383 -11 m 331 96 q 478 153 425 96 q 532 307 532 210 l 532 319 l 351 319 q 241 288 282 319 q 200 203 200 257 q 235 125 200 154 q 331 96 271 96 m 446 -86 l 446 -251 l 299 -251 l 299 -86 l 446 -86 z "},"à":{"ha":754,"x_min":65,"x_max":665,"o":"m 304 -11 q 131 47 197 -11 q 65 200 65 106 q 140 363 65 301 q 338 424 214 424 l 485 424 q 532 460 532 424 q 487 563 532 524 q 363 603 442 603 q 242 564 290 603 q 190 471 193 525 l 65 471 q 111 594 71 539 q 218 680 151 649 q 367 711 285 711 q 524 678 456 711 q 628 588 592 646 q 665 451 665 529 l 665 0 l 532 0 l 532 115 q 444 23 506 57 q 304 -11 383 -11 m 331 96 q 478 153 425 96 q 532 307 532 210 l 532 319 l 351 319 q 241 288 282 319 q 200 203 200 257 q 235 125 200 154 q 331 96 271 96 m 171 982 l 322 982 l 436 776 l 314 776 l 171 982 z "},"ả":{"ha":754,"x_min":65,"x_max":665,"o":"m 304 -11 q 131 47 197 -11 q 65 200 65 106 q 140 363 65 301 q 338 424 214 424 l 485 424 q 532 460 532 424 q 487 563 532 524 q 363 603 442 603 q 242 564 290 603 q 190 471 193 525 l 65 471 q 111 594 71 539 q 218 680 151 649 q 367 711 285 711 q 524 678 456 711 q 628 588 592 646 q 665 451 665 529 l 665 0 l 532 0 l 532 115 q 444 23 506 57 q 304 -11 383 -11 m 331 96 q 478 153 425 96 q 532 307 532 210 l 532 319 l 351 319 q 241 288 282 319 q 200 203 200 257 q 235 125 200 154 q 331 96 271 96 m 364 840 q 429 862 406 842 q 453 914 453 882 q 431 960 453 943 q 376 978 410 978 q 322 958 343 978 q 300 907 300 938 l 206 907 q 254 1018 206 974 q 376 1063 303 1063 q 500 1022 453 1063 q 547 915 547 981 q 495 801 547 843 q 374 760 443 760 l 364 840 z "},"ā":{"ha":754,"x_min":65,"x_max":665,"o":"m 304 -11 q 131 47 197 -11 q 65 200 65 106 q 140 363 65 301 q 338 424 214 424 l 485 424 q 532 460 532 424 q 487 563 532 524 q 363 603 442 603 q 242 564 290 603 q 190 471 193 525 l 65 471 q 111 594 71 539 q 218 680 151 649 q 367 711 285 711 q 524 678 456 711 q 628 588 592 646 q 665 451 665 529 l 665 0 l 532 0 l 532 115 q 444 23 506 57 q 304 -11 383 -11 m 331 96 q 478 153 425 96 q 532 307 532 210 l 532 319 l 351 319 q 241 288 282 319 q 200 203 200 257 q 235 125 200 154 q 331 96 271 96 m 189 926 l 564 926 l 564 818 l 189 818 l 189 926 z "},"ą":{"ha":754,"x_min":65,"x_max":699,"o":"m 304 -11 q 131 47 197 -11 q 65 200 65 106 q 140 363 65 301 q 338 424 214 424 l 485 424 q 532 460 532 424 q 487 563 532 524 q 363 603 442 603 q 242 564 290 603 q 190 471 193 525 l 65 471 q 111 594 71 539 q 218 680 151 649 q 367 711 285 711 q 524 678 456 711 q 628 588 592 646 q 665 451 665 529 l 665 0 q 603 -77 626 -37 q 579 -153 579 -117 q 632 -206 579 -206 q 667 -200 649 -206 q 699 -187 686 -194 l 699 -267 q 663 -285 688 -275 q 603 -294 638 -294 q 510 -262 546 -294 q 475 -174 475 -231 q 503 -78 475 -124 q 574 0 531 -32 l 532 0 l 532 115 q 444 23 506 57 q 304 -11 383 -11 m 331 96 q 478 153 425 96 q 532 307 532 210 l 532 319 l 351 319 q 241 288 282 319 q 200 203 200 257 q 235 125 200 154 q 331 96 271 96 z "},"å":{"ha":754,"x_min":65,"x_max":665,"o":"m 304 -11 q 131 47 197 -11 q 65 200 65 106 q 140 363 65 301 q 338 424 214 424 l 485 424 q 532 460 532 424 q 487 563 532 524 q 363 603 442 603 q 242 564 290 603 q 190 471 193 525 l 65 471 q 111 594 71 539 q 218 680 151 649 q 367 711 285 711 q 524 678 456 711 q 628 588 592 646 q 665 451 665 529 l 665 0 l 532 0 l 532 115 q 444 23 506 57 q 304 -11 383 -11 m 331 96 q 478 153 425 96 q 532 307 532 210 l 532 319 l 351 319 q 241 288 282 319 q 200 203 200 257 q 235 125 200 154 q 331 96 271 96 m 376 756 q 256 799 304 756 q 208 908 208 843 q 256 1017 208 974 q 376 1061 304 1061 q 497 1017 449 1061 q 544 908 544 974 q 497 799 544 843 q 376 756 449 756 m 376 832 q 434 853 411 832 q 457 908 457 875 q 435 963 457 942 q 376 983 413 983 q 319 963 342 983 q 296 908 296 942 q 319 853 296 875 q 376 832 342 832 z "},"ǻ":{"ha":754,"x_min":65,"x_max":665,"o":"m 304 -11 q 131 47 197 -11 q 65 200 65 106 q 140 363 65 301 q 338 424 214 424 l 485 424 q 532 460 532 424 q 487 563 532 524 q 363 603 442 603 q 242 564 290 603 q 190 471 193 525 l 65 471 q 111 594 71 539 q 218 680 151 649 q 367 711 285 711 q 524 678 456 711 q 628 588 592 646 q 665 451 665 529 l 665 0 l 532 0 l 532 115 q 444 23 506 57 q 304 -11 383 -11 m 331 96 q 478 153 425 96 q 532 307 532 210 l 532 319 l 351 319 q 241 288 282 319 q 200 203 200 257 q 235 125 200 154 q 331 96 271 96 m 376 756 q 256 799 304 756 q 208 908 208 843 q 239 999 208 960 q 319 1053 269 1038 l 429 1250 l 579 1250 l 440 1050 q 516 997 488 1035 q 544 908 544 958 q 497 799 544 843 q 376 756 449 756 m 376 832 q 434 853 411 832 q 457 908 457 875 q 435 963 457 942 q 376 983 413 983 q 319 963 342 983 q 296 908 296 942 q 319 853 296 875 q 376 832 342 832 z "},"ã":{"ha":754,"x_min":65,"x_max":665,"o":"m 304 -11 q 131 47 197 -11 q 65 200 65 106 q 140 363 65 301 q 338 424 214 424 l 485 424 q 532 460 532 424 q 487 563 532 524 q 363 603 442 603 q 242 564 290 603 q 190 471 193 525 l 65 471 q 111 594 71 539 q 218 680 151 649 q 367 711 285 711 q 524 678 456 711 q 628 588 592 646 q 665 451 665 529 l 665 0 l 532 0 l 532 115 q 444 23 506 57 q 304 -11 383 -11 m 331 96 q 478 153 425 96 q 532 307 532 210 l 532 319 l 351 319 q 241 288 282 319 q 200 203 200 257 q 235 125 200 154 q 331 96 271 96 m 467 804 q 413 813 436 804 q 361 840 390 822 q 328 859 342 853 q 301 865 315 865 q 262 850 278 865 q 246 810 246 835 l 153 810 q 191 923 153 879 q 286 967 229 967 q 338 958 317 967 q 390 931 360 949 q 451 906 428 906 q 491 920 475 906 q 507 960 507 935 l 600 960 q 562 847 600 890 q 467 804 524 804 z "},"æ":{"ha":1258,"x_min":65,"x_max":1206,"o":"m 313 -11 q 133 47 200 -11 q 67 201 67 104 q 140 363 67 303 q 339 424 214 424 l 489 424 q 521 435 510 424 q 532 465 532 446 q 483 565 532 526 q 360 603 433 603 q 241 564 289 603 q 189 471 193 525 l 65 471 q 111 594 71 539 q 216 680 151 649 q 360 711 281 711 q 509 680 442 711 q 614 594 576 649 q 722 681 656 650 q 869 711 788 711 q 1049 666 974 711 q 1162 544 1124 621 q 1200 371 1200 467 q 1197 319 1200 344 l 664 319 q 731 165 671 225 q 882 104 792 104 q 1007 136 958 104 q 1071 228 1056 168 l 1206 228 q 1099 53 1186 118 q 881 -11 1011 -11 q 711 28 785 -11 q 594 143 638 68 q 481 29 554 69 q 313 -11 408 -11 m 331 96 q 478 153 425 96 q 532 307 532 210 l 532 319 l 351 319 q 241 289 282 319 q 200 204 200 258 q 235 126 200 156 q 331 96 271 96 m 1064 424 q 1006 556 1057 508 q 868 603 954 603 q 736 557 788 603 q 667 424 685 511 l 1064 424 z "},"ǽ":{"ha":1258,"x_min":65,"x_max":1206,"o":"m 313 -11 q 133 47 200 -11 q 67 201 67 104 q 140 363 67 303 q 339 424 214 424 l 489 424 q 521 435 510 424 q 532 465 532 446 q 483 565 532 526 q 360 603 433 603 q 241 564 289 603 q 189 471 193 525 l 65 471 q 111 594 71 539 q 216 680 151 649 q 360 711 281 711 q 509 680 442 711 q 614 594 576 649 q 722 681 656 650 q 869 711 788 711 q 1049 666 974 711 q 1162 544 1124 621 q 1200 371 1200 467 q 1197 319 1200 344 l 664 319 q 731 165 671 225 q 882 104 792 104 q 1007 136 958 104 q 1071 228 1056 168 l 1206 228 q 1099 53 1186 118 q 881 -11 1011 -11 q 711 28 785 -11 q 594 143 638 68 q 481 29 554 69 q 313 -11 408 -11 m 331 96 q 478 153 425 96 q 532 307 532 210 l 532 319 l 351 319 q 241 289 282 319 q 200 204 200 258 q 235 126 200 156 q 331 96 271 96 m 1064 424 q 1006 556 1057 508 q 868 603 954 603 q 736 557 788 603 q 667 424 685 511 l 1064 424 m 683 982 l 833 982 l 690 776 l 569 776 l 683 982 z "},"b":{"ha":843,"x_min":99,"x_max":789,"o":"m 458 -11 q 326 20 388 -11 q 233 104 265 51 l 233 0 l 99 0 l 99 993 l 233 993 l 233 597 q 326 680 265 649 q 457 711 388 711 q 635 665 560 711 q 749 536 710 618 q 789 350 789 454 q 749 164 789 246 q 635 35 710 82 q 458 -11 561 -11 m 438 107 q 594 174 535 107 q 653 350 653 240 q 594 526 653 460 q 438 593 535 593 q 281 526 340 593 q 222 350 222 460 q 281 174 222 240 q 438 107 340 107 z "},"c":{"ha":772,"x_min":53,"x_max":724,"o":"m 399 -11 q 215 38 293 -11 q 94 169 136 88 q 53 350 53 251 q 94 531 53 449 q 215 662 136 613 q 399 711 293 711 q 551 680 481 711 q 668 591 622 649 q 724 456 714 533 l 589 456 q 526 554 579 515 q 401 593 474 593 q 247 524 301 593 q 193 350 193 456 q 248 176 193 244 q 403 107 303 107 q 524 142 474 107 q 590 236 574 176 l 724 236 q 619 57 707 125 q 399 -11 532 -11 z "},"ć":{"ha":772,"x_min":53,"x_max":724,"o":"m 399 -11 q 215 38 293 -11 q 94 169 136 88 q 53 350 53 251 q 94 531 53 449 q 215 662 136 613 q 399 711 293 711 q 551 680 481 711 q 668 591 622 649 q 724 456 714 533 l 589 456 q 526 554 579 515 q 401 593 474 593 q 247 524 301 593 q 193 350 193 456 q 248 176 193 244 q 403 107 303 107 q 524 142 474 107 q 590 236 574 176 l 724 236 q 619 57 707 125 q 399 -11 532 -11 m 447 982 l 597 982 l 454 776 l 333 776 l 447 982 z "},"č":{"ha":772,"x_min":53,"x_max":724,"o":"m 399 -11 q 215 38 293 -11 q 94 169 136 88 q 53 350 53 251 q 94 531 53 449 q 215 662 136 613 q 399 711 293 711 q 551 680 481 711 q 668 591 622 649 q 724 456 714 533 l 589 456 q 526 554 579 515 q 401 593 474 593 q 247 524 301 593 q 193 350 193 456 q 248 176 193 244 q 403 107 303 107 q 524 142 474 107 q 590 236 574 176 l 724 236 q 619 57 707 125 q 399 -11 532 -11 m 183 972 l 304 972 l 393 865 l 481 972 l 601 972 l 451 778 l 335 778 l 183 972 z "},"ç":{"ha":772,"x_min":53,"x_max":724,"o":"m 363 -10 q 197 49 267 -1 q 90 179 126 100 q 53 350 53 258 q 94 531 53 449 q 215 662 136 613 q 399 711 293 711 q 551 680 481 711 q 668 591 622 649 q 724 456 714 533 l 589 456 q 526 554 579 515 q 401 593 474 593 q 247 524 301 593 q 193 350 193 456 q 248 176 193 244 q 403 107 303 107 q 524 142 474 107 q 590 236 574 176 l 724 236 q 634 69 708 135 q 446 -8 560 3 l 418 -65 q 449 -64 428 -64 q 544 -92 507 -64 q 582 -169 582 -119 q 533 -261 582 -229 q 400 -293 483 -293 q 289 -274 340 -293 l 289 -194 q 400 -215 343 -215 q 485 -169 485 -215 q 465 -140 485 -150 q 413 -131 444 -131 q 354 -137 379 -131 l 317 -106 l 363 -10 z "},"ĉ":{"ha":772,"x_min":53,"x_max":724,"o":"m 399 -11 q 215 38 293 -11 q 94 169 136 88 q 53 350 53 251 q 94 531 53 449 q 215 662 136 613 q 399 711 293 711 q 551 680 481 711 q 668 591 622 649 q 724 456 714 533 l 589 456 q 526 554 579 515 q 401 593 474 593 q 247 524 301 593 q 193 350 193 456 q 248 176 193 244 q 403 107 303 107 q 524 142 474 107 q 590 236 574 176 l 724 236 q 619 57 707 125 q 399 -11 532 -11 m 336 971 l 451 971 l 603 776 l 482 776 l 393 883 l 306 776 l 183 776 l 336 971 z "},"ċ":{"ha":772,"x_min":53,"x_max":724,"o":"m 399 -11 q 215 38 293 -11 q 94 169 136 88 q 53 350 53 251 q 94 531 53 449 q 215 662 136 613 q 399 711 293 711 q 551 680 481 711 q 668 591 622 649 q 724 456 714 533 l 589 456 q 526 554 579 515 q 401 593 474 593 q 247 524 301 593 q 193 350 193 456 q 248 176 193 244 q 403 107 303 107 q 524 142 474 107 q 590 236 574 176 l 724 236 q 619 57 707 125 q 399 -11 532 -11 m 468 993 l 468 824 l 318 824 l 318 993 l 468 993 z "},"d":{"ha":843,"x_min":54,"x_max":744,"o":"m 383 -11 q 208 35 282 -11 q 94 164 133 82 q 54 350 54 246 q 93 536 54 454 q 207 665 132 618 q 385 711 282 711 q 517 681 456 711 q 610 597 578 650 l 610 993 l 744 993 l 744 0 l 610 0 l 610 104 q 517 20 578 51 q 383 -11 456 -11 m 406 107 q 561 174 503 107 q 619 350 619 240 q 561 526 619 460 q 406 593 503 593 q 249 526 308 593 q 190 350 190 460 q 249 174 190 240 q 406 107 308 107 z "},"ď":{"ha":874,"x_min":54,"x_max":993,"o":"m 383 -11 q 208 35 282 -11 q 94 164 133 82 q 54 350 54 246 q 93 536 54 454 q 207 665 132 618 q 385 711 282 711 q 517 681 456 711 q 610 597 578 650 l 610 993 l 744 993 l 744 0 l 610 0 l 610 104 q 517 20 578 51 q 383 -11 456 -11 m 406 107 q 561 174 503 107 q 619 350 619 240 q 561 526 619 460 q 406 593 503 593 q 249 526 308 593 q 190 350 190 460 q 249 174 190 240 q 406 107 308 107 m 861 1025 l 993 1025 l 919 778 l 817 778 l 861 1025 z "},"đ":{"ha":843,"x_min":54,"x_max":857,"o":"m 383 -11 q 208 35 282 -11 q 94 164 133 82 q 54 350 54 246 q 93 536 54 454 q 207 665 132 618 q 385 711 282 711 q 517 681 456 711 q 610 597 578 650 l 610 794 l 372 794 l 372 893 l 610 893 l 610 993 l 744 993 l 744 893 l 857 893 l 857 794 l 744 794 l 744 0 l 610 0 l 610 104 q 517 20 578 51 q 383 -11 456 -11 m 406 107 q 561 174 503 107 q 619 350 619 240 q 561 526 619 460 q 406 593 503 593 q 249 526 308 593 q 190 350 190 460 q 249 174 190 240 q 406 107 308 107 z "},"ð":{"ha":799,"x_min":54,"x_max":743,"o":"m 396 -11 q 215 35 292 -11 q 96 158 138 81 q 54 328 54 236 q 95 497 54 419 q 211 622 136 575 q 386 669 286 669 q 486 652 436 669 q 575 599 536 635 q 393 808 517 703 l 288 728 l 228 800 l 318 868 q 144 985 243 926 l 314 985 q 324 978 318 982 q 338 969 331 975 q 400 931 375 949 l 492 1000 l 551 929 l 478 874 q 673 652 603 775 q 743 365 743 529 q 701 172 743 258 q 581 38 660 86 q 396 -11 501 -11 m 397 107 q 551 172 497 107 q 606 329 606 236 q 551 488 606 422 q 397 553 497 553 q 245 488 299 553 q 192 329 192 422 q 245 172 192 238 q 397 107 299 107 z "},"e":{"ha":778,"x_min":51,"x_max":725,"o":"m 401 -11 q 217 39 296 -11 q 94 172 138 89 q 51 354 51 256 q 92 534 51 453 q 208 663 132 615 q 389 711 285 711 q 567 666 493 711 q 681 545 642 621 q 719 379 719 469 q 717 325 719 350 l 183 325 q 251 165 192 226 q 401 104 311 104 q 526 136 478 104 q 590 228 575 168 l 725 228 q 619 54 707 119 q 401 -11 532 -11 m 583 429 q 526 556 576 510 q 389 603 475 603 q 255 558 307 603 q 188 429 203 514 l 583 429 z "},"é":{"ha":778,"x_min":51,"x_max":725,"o":"m 401 -11 q 217 39 296 -11 q 94 172 138 89 q 51 354 51 256 q 92 534 51 453 q 208 663 132 615 q 389 711 285 711 q 567 666 493 711 q 681 545 642 621 q 719 379 719 469 q 717 325 719 350 l 183 325 q 251 165 192 226 q 401 104 311 104 q 526 136 478 104 q 590 228 575 168 l 725 228 q 619 54 707 119 q 401 -11 532 -11 m 583 429 q 526 556 576 510 q 389 603 475 603 q 255 558 307 603 q 188 429 203 514 l 583 429 m 446 982 l 596 982 l 453 776 l 332 776 l 446 982 z "},"ĕ":{"ha":778,"x_min":51,"x_max":725,"o":"m 401 -11 q 217 39 296 -11 q 94 172 138 89 q 51 354 51 256 q 92 534 51 453 q 208 663 132 615 q 389 711 285 711 q 567 666 493 711 q 681 545 642 621 q 719 379 719 469 q 717 325 719 350 l 183 325 q 251 165 192 226 q 401 104 311 104 q 526 136 478 104 q 590 228 575 168 l 725 228 q 619 54 707 119 q 401 -11 532 -11 m 583 429 q 526 556 576 510 q 389 603 475 603 q 255 558 307 603 q 188 429 203 514 l 583 429 m 392 776 q 247 833 303 776 q 192 972 192 889 l 301 972 q 326 902 301 929 q 392 875 351 875 q 458 902 432 875 q 483 972 483 929 l 593 972 q 537 833 593 889 q 392 776 481 776 z "},"ě":{"ha":778,"x_min":51,"x_max":725,"o":"m 401 -11 q 217 39 296 -11 q 94 172 138 89 q 51 354 51 256 q 92 534 51 453 q 208 663 132 615 q 389 711 285 711 q 567 666 493 711 q 681 545 642 621 q 719 379 719 469 q 717 325 719 350 l 183 325 q 251 165 192 226 q 401 104 311 104 q 526 136 478 104 q 590 228 575 168 l 725 228 q 619 54 707 119 q 401 -11 532 -11 m 583 429 q 526 556 576 510 q 389 603 475 603 q 255 558 307 603 q 188 429 203 514 l 583 429 m 182 972 l 303 972 l 392 865 l 479 972 l 600 972 l 450 778 l 333 778 l 182 972 z "},"ê":{"ha":778,"x_min":51,"x_max":725,"o":"m 401 -11 q 217 39 296 -11 q 94 172 138 89 q 51 354 51 256 q 92 534 51 453 q 208 663 132 615 q 389 711 285 711 q 567 666 493 711 q 681 545 642 621 q 719 379 719 469 q 717 325 719 350 l 183 325 q 251 165 192 226 q 401 104 311 104 q 526 136 478 104 q 590 228 575 168 l 725 228 q 619 54 707 119 q 401 -11 532 -11 m 583 429 q 526 556 576 510 q 389 603 475 603 q 255 558 307 603 q 188 429 203 514 l 583 429 m 335 971 l 450 971 l 601 776 l 481 776 l 392 883 l 304 776 l 182 776 l 335 971 z "},"ế":{"ha":778,"x_min":51,"x_max":792,"o":"m 401 -11 q 217 39 296 -11 q 94 172 138 89 q 51 354 51 256 q 92 534 51 453 q 208 663 132 615 q 389 711 285 711 q 567 666 493 711 q 681 545 642 621 q 719 379 719 469 q 717 325 719 350 l 183 325 q 251 165 192 226 q 401 104 311 104 q 526 136 478 104 q 590 228 575 168 l 725 228 q 619 54 707 119 q 401 -11 532 -11 m 583 429 q 526 556 576 510 q 389 603 475 603 q 255 558 307 603 q 188 429 203 514 l 583 429 m 335 971 l 450 971 l 601 776 l 481 776 l 392 883 l 304 776 l 182 776 l 335 971 m 642 1132 l 792 1132 l 649 926 l 528 926 l 642 1132 z "},"ệ":{"ha":778,"x_min":51,"x_max":725,"o":"m 401 -11 q 217 39 296 -11 q 94 172 138 89 q 51 354 51 256 q 92 534 51 453 q 208 663 132 615 q 389 711 285 711 q 567 666 493 711 q 681 545 642 621 q 719 379 719 469 q 717 325 719 350 l 183 325 q 251 165 192 226 q 401 104 311 104 q 526 136 478 104 q 590 228 575 168 l 725 228 q 619 54 707 119 q 401 -11 532 -11 m 583 429 q 526 556 576 510 q 389 603 475 603 q 255 558 307 603 q 188 429 203 514 l 583 429 m 460 -86 l 460 -251 l 313 -251 l 313 -86 l 460 -86 m 335 971 l 450 971 l 601 776 l 481 776 l 392 883 l 304 776 l 182 776 l 335 971 z "},"ề":{"ha":778,"x_min":51,"x_max":725,"o":"m 401 -11 q 217 39 296 -11 q 94 172 138 89 q 51 354 51 256 q 92 534 51 453 q 208 663 132 615 q 389 711 285 711 q 567 666 493 711 q 681 545 642 621 q 719 379 719 469 q 717 325 719 350 l 183 325 q 251 165 192 226 q 401 104 311 104 q 526 136 478 104 q 590 228 575 168 l 725 228 q 619 54 707 119 q 401 -11 532 -11 m 583 429 q 526 556 576 510 q 389 603 475 603 q 255 558 307 603 q 188 429 203 514 l 583 429 m 335 971 l 450 971 l 601 776 l 481 776 l 392 883 l 304 776 l 182 776 l 335 971 m 428 1132 l 578 1132 l 692 926 l 571 926 l 428 1132 z "},"ể":{"ha":778,"x_min":51,"x_max":726,"o":"m 401 -11 q 217 39 296 -11 q 94 172 138 89 q 51 354 51 256 q 92 534 51 453 q 208 663 132 615 q 389 711 285 711 q 567 666 493 711 q 681 545 642 621 q 719 379 719 469 q 717 325 719 350 l 183 325 q 251 165 192 226 q 401 104 311 104 q 526 136 478 104 q 590 228 575 168 l 725 228 q 619 54 707 119 q 401 -11 532 -11 m 583 429 q 526 556 576 510 q 389 603 475 603 q 255 558 307 603 q 188 429 203 514 l 583 429 z "},"ễ":{"ha":778,"x_min":51,"x_max":725,"o":"m 401 -11 q 217 39 296 -11 q 94 172 138 89 q 51 354 51 256 q 92 534 51 453 q 208 663 132 615 q 389 711 285 711 q 567 666 493 711 q 681 545 642 621 q 719 379 719 469 q 717 325 719 350 l 183 325 q 251 165 192 226 q 401 104 311 104 q 526 136 478 104 q 590 228 575 168 l 725 228 q 619 54 707 119 q 401 -11 532 -11 m 583 429 q 526 556 576 510 q 389 603 475 603 q 255 558 307 603 q 188 429 203 514 l 583 429 z "},"ë":{"ha":778,"x_min":51,"x_max":725,"o":"m 401 -11 q 217 39 296 -11 q 94 172 138 89 q 51 354 51 256 q 92 534 51 453 q 208 663 132 615 q 389 711 285 711 q 567 666 493 711 q 681 545 642 621 q 719 379 719 469 q 717 325 719 350 l 183 325 q 251 165 192 226 q 401 104 311 104 q 526 136 478 104 q 590 228 575 168 l 725 228 q 619 54 707 119 q 401 -11 532 -11 m 583 429 q 526 556 576 510 q 389 603 475 603 q 255 558 307 603 q 188 429 203 514 l 583 429 m 574 961 l 574 822 l 451 822 l 451 961 l 574 961 m 332 961 l 332 821 l 210 821 l 210 961 l 332 961 z "},"ė":{"ha":778,"x_min":51,"x_max":725,"o":"m 401 -11 q 217 39 296 -11 q 94 172 138 89 q 51 354 51 256 q 92 534 51 453 q 208 663 132 615 q 389 711 285 711 q 567 666 493 711 q 681 545 642 621 q 719 379 719 469 q 717 325 719 350 l 183 325 q 251 165 192 226 q 401 104 311 104 q 526 136 478 104 q 590 228 575 168 l 725 228 q 619 54 707 119 q 401 -11 532 -11 m 583 429 q 526 556 576 510 q 389 603 475 603 q 255 558 307 603 q 188 429 203 514 l 583 429 m 467 993 l 467 824 l 317 824 l 317 993 l 467 993 z "},"ẹ":{"ha":778,"x_min":51,"x_max":725,"o":"m 401 -11 q 217 39 296 -11 q 94 172 138 89 q 51 354 51 256 q 92 534 51 453 q 208 663 132 615 q 389 711 285 711 q 567 666 493 711 q 681 545 642 621 q 719 379 719 469 q 717 325 719 350 l 183 325 q 251 165 192 226 q 401 104 311 104 q 526 136 478 104 q 590 228 575 168 l 725 228 q 619 54 707 119 q 401 -11 532 -11 m 583 429 q 526 556 576 510 q 389 603 475 603 q 255 558 307 603 q 188 429 203 514 l 583 429 m 460 -86 l 460 -251 l 313 -251 l 313 -86 l 460 -86 z "},"è":{"ha":778,"x_min":51,"x_max":725,"o":"m 401 -11 q 217 39 296 -11 q 94 172 138 89 q 51 354 51 256 q 92 534 51 453 q 208 663 132 615 q 389 711 285 711 q 567 666 493 711 q 681 545 642 621 q 719 379 719 469 q 717 325 719 350 l 183 325 q 251 165 192 226 q 401 104 311 104 q 526 136 478 104 q 590 228 575 168 l 725 228 q 619 54 707 119 q 401 -11 532 -11 m 583 429 q 526 556 576 510 q 389 603 475 603 q 255 558 307 603 q 188 429 203 514 l 583 429 m 186 982 l 338 982 l 451 776 l 329 776 l 186 982 z "},"ẻ":{"ha":778,"x_min":51,"x_max":725,"o":"m 401 -11 q 217 39 296 -11 q 94 172 138 89 q 51 354 51 256 q 92 534 51 453 q 208 663 132 615 q 389 711 285 711 q 567 666 493 711 q 681 545 642 621 q 719 379 719 469 q 717 325 719 350 l 183 325 q 251 165 192 226 q 401 104 311 104 q 526 136 478 104 q 590 228 575 168 l 725 228 q 619 54 707 119 q 401 -11 532 -11 m 583 429 q 526 556 576 510 q 389 603 475 603 q 255 558 307 603 q 188 429 203 514 l 583 429 m 379 840 q 444 862 421 842 q 468 914 468 882 q 447 960 468 943 q 392 978 425 978 q 337 958 358 978 q 315 907 315 938 l 221 907 q 269 1018 221 974 q 392 1063 318 1063 q 515 1022 468 1063 q 563 915 563 981 q 510 801 563 843 q 389 760 458 760 l 379 840 z "},"ē":{"ha":778,"x_min":51,"x_max":725,"o":"m 401 -11 q 217 39 296 -11 q 94 172 138 89 q 51 354 51 256 q 92 534 51 453 q 208 663 132 615 q 389 711 285 711 q 567 666 493 711 q 681 545 642 621 q 719 379 719 469 q 717 325 719 350 l 183 325 q 251 165 192 226 q 401 104 311 104 q 526 136 478 104 q 590 228 575 168 l 725 228 q 619 54 707 119 q 401 -11 532 -11 m 583 429 q 526 556 576 510 q 389 603 475 603 q 255 558 307 603 q 188 429 203 514 l 583 429 m 204 926 l 579 926 l 579 818 l 204 818 l 204 926 z "},"ę":{"ha":779,"x_min":51,"x_max":726,"o":"m 565 -294 q 474 -262 508 -294 q 439 -174 439 -231 q 526 7 439 -87 q 403 -11 465 -11 q 217 39 297 -11 q 94 172 138 89 q 51 354 51 256 q 92 534 51 453 q 208 663 132 615 q 389 711 285 711 q 568 666 493 711 q 682 545 643 621 q 721 379 721 469 q 719 328 721 346 l 183 328 q 251 166 190 228 q 403 104 311 104 q 528 136 479 104 q 592 228 576 168 l 726 228 q 689 128 717 172 q 644 61 675 106 q 567 -63 593 -14 q 542 -153 542 -112 q 594 -206 542 -206 q 630 -200 611 -206 q 661 -187 649 -194 l 661 -267 q 625 -285 650 -275 q 565 -294 600 -294 m 585 425 q 526 554 578 506 q 389 603 474 603 q 256 556 308 603 q 188 425 203 510 l 585 425 z "},"ẽ":{"ha":778,"x_min":51,"x_max":725,"o":"m 401 -11 q 217 39 296 -11 q 94 172 138 89 q 51 354 51 256 q 92 534 51 453 q 208 663 132 615 q 389 711 285 711 q 567 666 493 711 q 681 545 642 621 q 719 379 719 469 q 717 325 719 350 l 183 325 q 251 165 192 226 q 401 104 311 104 q 526 136 478 104 q 590 228 575 168 l 725 228 q 619 54 707 119 q 401 -11 532 -11 m 583 429 q 526 556 576 510 q 389 603 475 603 q 255 558 307 603 q 188 429 203 514 l 583 429 m 482 804 q 428 813 451 804 q 376 840 406 822 q 344 859 357 853 q 317 865 331 865 q 277 850 293 865 q 261 810 261 835 l 168 810 q 206 923 168 879 q 301 967 244 967 q 353 958 332 967 q 406 931 375 949 q 467 906 443 906 q 506 920 490 906 q 522 960 522 935 l 615 960 q 577 847 615 890 q 482 804 539 804 z "},"ə":{"ha":778,"x_min":53,"x_max":726,"o":"m 376 711 q 561 661 482 711 q 683 528 640 611 q 726 346 726 444 q 686 166 726 247 q 569 37 646 85 q 389 -11 493 -11 q 210 34 285 -11 q 97 155 136 79 q 58 321 58 231 q 61 375 58 350 l 594 375 q 526 535 586 474 q 376 596 467 596 q 251 564 300 596 q 188 472 203 532 l 53 472 q 158 646 71 581 q 376 711 246 711 m 194 271 q 252 144 201 190 q 389 97 303 97 q 523 142 471 97 q 590 271 575 186 l 194 271 z "},"f":{"ha":521,"x_min":19,"x_max":510,"o":"m 163 583 l 19 583 l 19 700 l 163 700 l 163 768 q 225 932 163 871 q 393 993 288 993 l 510 993 l 510 876 l 404 876 q 326 846 356 876 q 297 764 297 815 l 297 700 l 510 700 l 510 583 l 297 583 l 297 0 l 163 0 l 163 583 z "},"g":{"ha":843,"x_min":54,"x_max":744,"o":"m 147 -171 l 471 -171 q 571 -130 532 -171 q 610 -25 610 -89 l 610 89 q 522 17 583 44 q 383 -11 460 -11 q 208 35 282 -11 q 94 164 133 82 q 54 350 54 246 q 93 536 54 454 q 207 665 132 618 q 385 711 282 711 q 515 683 453 711 q 610 607 576 654 l 610 700 l 744 700 l 744 -33 q 674 -215 744 -146 q 485 -283 603 -283 l 147 -283 l 147 -171 m 406 107 q 561 174 503 107 q 619 350 619 240 q 561 526 619 460 q 406 593 503 593 q 249 526 308 593 q 190 350 190 460 q 249 174 190 240 q 406 107 308 107 z "},"ğ":{"ha":843,"x_min":54,"x_max":744,"o":"m 147 -171 l 471 -171 q 571 -130 532 -171 q 610 -25 610 -89 l 610 89 q 522 17 583 44 q 383 -11 460 -11 q 208 35 282 -11 q 94 164 133 82 q 54 350 54 246 q 93 536 54 454 q 207 665 132 618 q 385 711 282 711 q 515 683 453 711 q 610 607 576 654 l 610 700 l 744 700 l 744 -33 q 674 -215 744 -146 q 485 -283 603 -283 l 147 -283 l 147 -171 m 406 107 q 561 174 503 107 q 619 350 619 240 q 561 526 619 460 q 406 593 503 593 q 249 526 308 593 q 190 350 190 460 q 249 174 190 240 q 406 107 308 107 m 410 776 q 265 833 321 776 q 210 972 210 889 l 319 972 q 344 902 319 929 q 410 875 369 875 q 476 902 450 875 q 501 972 501 929 l 611 972 q 555 833 611 889 q 410 776 499 776 z "},"ǧ":{"ha":843,"x_min":54,"x_max":744,"o":"m 147 -171 l 471 -171 q 571 -130 532 -171 q 610 -25 610 -89 l 610 89 q 522 17 583 44 q 383 -11 460 -11 q 208 35 282 -11 q 94 164 133 82 q 54 350 54 246 q 93 536 54 454 q 207 665 132 618 q 385 711 282 711 q 515 683 453 711 q 610 607 576 654 l 610 700 l 744 700 l 744 -33 q 674 -215 744 -146 q 485 -283 603 -283 l 147 -283 l 147 -171 m 406 107 q 561 174 503 107 q 619 350 619 240 q 561 526 619 460 q 406 593 503 593 q 249 526 308 593 q 190 350 190 460 q 249 174 190 240 q 406 107 308 107 m 200 972 l 321 972 l 410 865 l 497 972 l 618 972 l 468 778 l 351 778 l 200 972 z "},"ĝ":{"ha":843,"x_min":54,"x_max":744,"o":"m 147 -171 l 471 -171 q 571 -130 532 -171 q 610 -25 610 -89 l 610 89 q 522 17 583 44 q 383 -11 460 -11 q 208 35 282 -11 q 94 164 133 82 q 54 350 54 246 q 93 536 54 454 q 207 665 132 618 q 385 711 282 711 q 515 683 453 711 q 610 607 576 654 l 610 700 l 744 700 l 744 -33 q 674 -215 744 -146 q 485 -283 603 -283 l 147 -283 l 147 -171 m 406 107 q 561 174 503 107 q 619 350 619 240 q 561 526 619 460 q 406 593 503 593 q 249 526 308 593 q 190 350 190 460 q 249 174 190 240 q 406 107 308 107 m 353 971 l 468 971 l 619 776 l 499 776 l 410 883 l 322 776 l 200 776 l 353 971 z "},"ģ":{"ha":843,"x_min":54,"x_max":744,"o":"m 147 -171 l 471 -171 q 571 -130 532 -171 q 610 -25 610 -89 l 610 89 q 522 17 583 44 q 383 -11 460 -11 q 208 35 282 -11 q 94 164 133 82 q 54 350 54 246 q 93 536 54 454 q 207 665 132 618 q 385 711 282 711 q 515 683 453 711 q 610 607 576 654 l 610 700 l 744 700 l 744 -33 q 674 -215 744 -146 q 485 -283 603 -283 l 147 -283 l 147 -171 m 406 107 q 561 174 503 107 q 619 350 619 240 q 561 526 619 460 q 406 593 503 593 q 249 526 308 593 q 190 350 190 460 q 249 174 190 240 q 406 107 308 107 m 478 783 l 329 783 l 411 994 l 519 994 l 478 783 z "},"ġ":{"ha":843,"x_min":54,"x_max":744,"o":"m 147 -171 l 471 -171 q 571 -130 532 -171 q 610 -25 610 -89 l 610 89 q 522 17 583 44 q 383 -11 460 -11 q 208 35 282 -11 q 94 164 133 82 q 54 350 54 246 q 93 536 54 454 q 207 665 132 618 q 385 711 282 711 q 515 683 453 711 q 610 607 576 654 l 610 700 l 744 700 l 744 -33 q 674 -215 744 -146 q 485 -283 603 -283 l 147 -283 l 147 -171 m 406 107 q 561 174 503 107 q 619 350 619 240 q 561 526 619 460 q 406 593 503 593 q 249 526 308 593 q 190 350 190 460 q 249 174 190 240 q 406 107 308 107 m 485 993 l 485 824 l 335 824 l 335 993 l 485 993 z "},"ḡ":{"ha":843,"x_min":54,"x_max":744,"o":"m 147 -171 l 471 -171 q 571 -130 532 -171 q 610 -25 610 -89 l 610 89 q 522 17 583 44 q 383 -11 460 -11 q 208 35 282 -11 q 94 164 133 82 q 54 350 54 246 q 93 536 54 454 q 207 665 132 618 q 385 711 282 711 q 515 683 453 711 q 610 607 576 654 l 610 700 l 744 700 l 744 -33 q 674 -215 744 -146 q 485 -283 603 -283 l 147 -283 l 147 -171 m 406 107 q 561 174 503 107 q 619 350 619 240 q 561 526 619 460 q 406 593 503 593 q 249 526 308 593 q 190 350 190 460 q 249 174 190 240 q 406 107 308 107 m 222 926 l 597 926 l 597 818 l 222 818 l 222 926 z "},"h":{"ha":808,"x_min":99,"x_max":719,"o":"m 99 993 l 233 993 l 233 576 q 320 676 261 642 q 458 711 379 711 q 648 633 576 711 q 719 431 719 556 l 719 0 l 585 0 l 585 404 q 540 539 585 488 q 421 590 494 590 q 286 531 339 590 q 233 379 233 471 l 233 0 l 99 0 l 99 993 z "},"ħ":{"ha":808,"x_min":-15,"x_max":719,"o":"m 99 794 l -15 794 l -15 893 l 99 893 l 99 993 l 233 993 l 233 893 l 469 893 l 469 794 l 233 794 l 233 576 q 320 676 261 642 q 458 711 379 711 q 648 633 576 711 q 719 431 719 556 l 719 0 l 585 0 l 585 404 q 540 539 585 488 q 421 590 494 590 q 286 531 339 590 q 233 379 233 471 l 233 0 l 99 0 l 99 794 z "},"ĥ":{"ha":808,"x_min":-46,"x_max":719,"o":"m 99 993 l 233 993 l 233 576 q 320 676 261 642 q 458 711 379 711 q 648 633 576 711 q 719 431 719 556 l 719 0 l 585 0 l 585 404 q 540 539 585 488 q 421 590 494 590 q 286 531 339 590 q 233 379 233 471 l 233 0 l 99 0 l 99 993 m 107 1243 l 222 1243 l 374 1049 l 253 1049 l 164 1156 l 76 1049 l -46 1049 l 107 1243 z "},"i":{"ha":331,"x_min":90,"x_max":240,"o":"m 99 700 l 233 700 l 233 0 l 99 0 l 99 700 m 240 993 l 240 824 l 90 824 l 90 993 l 240 993 z "},"ı":{"ha":331,"x_min":99,"x_max":233,"o":"m 99 700 l 233 700 l 233 0 l 99 0 l 99 700 z "},"í":{"ha":331,"x_min":99,"x_max":369,"o":"m 99 700 l 233 700 l 233 0 l 99 0 l 99 700 m 219 982 l 369 982 l 226 776 l 106 776 l 219 982 z "},"ĭ":{"ha":331,"x_min":-35,"x_max":367,"o":"m 99 700 l 233 700 l 233 0 l 99 0 l 99 700 m 165 776 q 21 833 76 776 q -35 972 -35 889 l 75 972 q 100 902 75 929 q 165 875 125 875 q 231 902 206 875 q 257 972 257 929 l 367 972 q 310 833 367 889 q 165 776 254 776 z "},"î":{"ha":331,"x_min":-44,"x_max":375,"o":"m 99 700 l 233 700 l 233 0 l 99 0 l 99 700 m 108 971 l 224 971 l 375 776 l 254 776 l 165 883 l 78 776 l -44 776 l 108 971 z "},"ï":{"ha":331,"x_min":-17,"x_max":347,"o":"m 99 700 l 233 700 l 233 0 l 99 0 l 99 700 m 347 961 l 347 822 l 225 822 l 225 961 l 347 961 m 106 961 l 106 821 l -17 821 l -17 961 l 106 961 z "},"ị":{"ha":331,"x_min":90,"x_max":240,"o":"m 99 700 l 233 700 l 233 0 l 99 0 l 99 700 m 240 993 l 240 824 l 90 824 l 90 993 l 240 993 m 239 -86 l 239 -251 l 92 -251 l 92 -86 l 239 -86 z "},"ì":{"ha":331,"x_min":-40,"x_max":233,"o":"m 99 700 l 233 700 l 233 0 l 99 0 l 99 700 m -40 982 l 111 982 l 225 776 l 103 776 l -40 982 z "},"ỉ":{"ha":331,"x_min":-6,"x_max":336,"o":"m 99 700 l 233 700 l 233 0 l 99 0 l 99 700 m 153 840 q 218 862 194 842 q 242 914 242 882 q 220 960 242 943 q 165 978 199 978 q 110 958 132 978 q 89 907 89 938 l -6 907 q 43 1018 -6 974 q 165 1063 92 1063 q 289 1022 242 1063 q 336 915 336 981 q 284 801 336 843 q 163 760 232 760 l 153 840 z "},"ī":{"ha":331,"x_min":-22,"x_max":353,"o":"m 99 700 l 233 700 l 233 0 l 99 0 l 99 700 m -22 926 l 353 926 l 353 818 l -22 818 l -22 926 z "},"į":{"ha":331,"x_min":43,"x_max":267,"o":"m 99 700 l 233 700 l 233 0 l 99 0 l 99 700 m 240 993 l 240 824 l 90 824 l 90 993 l 240 993 m 171 -294 q 78 -262 114 -294 q 43 -174 43 -231 q 71 -78 43 -124 q 142 0 99 -32 l 233 0 q 171 -77 194 -37 q 147 -153 147 -117 q 200 -206 147 -206 q 235 -200 217 -206 q 267 -187 254 -194 l 267 -267 q 231 -285 256 -275 q 171 -294 206 -294 z "},"ĩ":{"ha":331,"x_min":-58,"x_max":389,"o":"m 99 700 l 233 700 l 233 0 l 99 0 l 99 700 m 256 804 q 202 813 225 804 q 150 840 179 822 q 117 859 131 853 q 90 865 104 865 q 51 850 67 865 q 35 810 35 835 l -58 810 q -20 923 -58 879 q 75 967 18 967 q 127 958 106 967 q 179 931 149 949 q 240 906 217 906 q 280 920 264 906 q 296 960 296 935 l 389 960 q 351 847 389 890 q 256 804 313 804 z "},"ĳ":{"ha":661,"x_min":90,"x_max":571,"o":"m 99 700 l 233 700 l 233 0 l 99 0 l 99 700 m 240 993 l 240 824 l 90 824 l 90 993 l 240 993 z "},"j":{"ha":331,"x_min":-49,"x_max":240,"o":"m -49 -171 l 6 -171 q 74 -140 50 -171 q 99 -53 99 -110 l 99 700 l 233 700 l 233 -61 q 178 -226 233 -168 q 19 -283 122 -283 l -49 -283 l -49 -171 m 240 993 l 240 824 l 90 824 l 90 993 l 240 993 z "},"ȷ":{"ha":331,"x_min":-49,"x_max":233,"o":"m -49 -171 l 6 -171 q 74 -140 50 -171 q 99 -53 99 -110 l 99 700 l 233 700 l 233 -61 q 178 -226 233 -168 q 19 -283 122 -283 l -49 -283 l -49 -171 z "},"ĵ":{"ha":331,"x_min":-49,"x_max":375,"o":"m -49 -171 l 6 -171 q 74 -140 50 -171 q 99 -53 99 -110 l 99 700 l 233 700 l 233 -61 q 178 -226 233 -168 q 19 -283 122 -283 l -49 -283 l -49 -171 m 108 971 l 224 971 l 375 776 l 254 776 l 165 883 l 78 776 l -44 776 l 108 971 z "},"k":{"ha":731,"x_min":99,"x_max":740,"o":"m 99 993 l 233 993 l 233 419 l 539 700 l 714 700 l 419 426 l 740 0 l 574 0 l 324 336 l 233 253 l 233 0 l 99 0 l 99 993 z "},"ķ":{"ha":731,"x_min":99,"x_max":740,"o":"m 99 993 l 233 993 l 233 419 l 539 700 l 714 700 l 419 426 l 740 0 l 574 0 l 324 336 l 233 253 l 233 0 l 99 0 l 99 993 m 290 -94 l 443 -94 l 336 -308 l 217 -308 l 290 -94 z "},"ĸ":{"ha":731,"x_min":99,"x_max":740,"o":"m 99 700 l 235 700 l 235 422 l 543 700 l 714 700 l 419 426 l 740 0 l 574 0 l 322 335 l 235 254 l 235 0 l 99 0 l 99 700 z "},"l":{"ha":331,"x_min":99,"x_max":233,"o":"m 99 993 l 233 993 l 233 0 l 99 0 l 99 993 z "},"ĺ":{"ha":331,"x_min":99,"x_max":375,"o":"m 99 993 l 233 993 l 233 0 l 99 0 l 99 993 m 224 1226 l 375 1226 l 222 1050 l 100 1050 l 224 1226 z "},"ľ":{"ha":363,"x_min":99,"x_max":460,"o":"m 99 993 l 233 993 l 233 0 l 99 0 l 99 993 m 329 1025 l 460 1025 l 386 778 l 285 778 l 329 1025 z "},"ļ":{"ha":331,"x_min":25,"x_max":251,"o":"m 99 993 l 233 993 l 233 0 l 99 0 l 99 993 m 99 -94 l 251 -94 l 144 -308 l 25 -308 l 99 -94 z "},"ŀ":{"ha":424,"x_min":99,"x_max":453,"o":"m 99 993 l 233 993 l 233 0 l 99 0 l 99 993 m 303 581 l 453 581 l 453 411 l 303 411 l 303 581 z "},"ł":{"ha":331,"x_min":-17,"x_max":347,"o":"m 99 390 l -17 315 l -17 443 l 99 518 l 99 993 l 233 993 l 233 604 l 347 678 l 347 550 l 233 476 l 233 0 l 99 0 l 99 390 z "},"m":{"ha":1229,"x_min":99,"x_max":1140,"o":"m 99 700 l 233 700 l 233 576 q 311 674 256 638 q 443 711 367 711 q 585 673 525 711 q 667 567 646 635 q 753 670 689 629 q 894 711 818 711 q 1074 639 1008 711 q 1140 444 1140 567 l 1140 0 l 1006 0 l 1006 407 q 966 542 1006 492 q 857 593 926 593 q 733 531 779 593 q 686 382 686 469 l 686 0 l 551 0 l 551 407 q 512 542 551 492 q 404 593 472 593 q 280 531 326 593 q 233 382 233 469 l 233 0 l 99 0 l 99 700 z "},"n":{"ha":808,"x_min":99,"x_max":719,"o":"m 99 700 l 233 700 l 233 576 q 320 676 261 642 q 458 711 379 711 q 648 633 576 711 q 719 431 719 556 l 719 0 l 585 0 l 585 404 q 540 539 585 488 q 421 590 494 590 q 286 531 339 590 q 233 379 233 471 l 233 0 l 99 0 l 99 700 z "},"ń":{"ha":808,"x_min":99,"x_max":719,"o":"m 99 700 l 233 700 l 233 576 q 320 676 261 642 q 458 711 379 711 q 648 633 576 711 q 719 431 719 556 l 719 0 l 585 0 l 585 404 q 540 539 585 488 q 421 590 494 590 q 286 531 339 590 q 233 379 233 471 l 233 0 l 99 0 l 99 700 m 460 982 l 610 982 l 467 776 l 346 776 l 460 982 z "},"ŉ":{"ha":893,"x_min":-11,"x_max":804,"o":"m 183 700 l 317 700 l 317 575 q 405 676 346 642 q 544 711 464 711 q 733 633 661 711 q 804 429 804 556 l 804 0 l 669 0 l 669 404 q 624 539 669 488 q 506 590 579 590 q 370 531 424 590 q 317 379 317 471 l 317 0 l 183 0 l 183 700 m -11 776 l 10 776 q 54 796 38 776 q 71 846 71 815 l 71 993 l 197 993 l 197 839 q 153 716 197 763 q 39 669 110 669 l -11 669 l -11 776 z "},"ň":{"ha":808,"x_min":99,"x_max":719,"o":"m 99 700 l 233 700 l 233 576 q 320 676 261 642 q 458 711 379 711 q 648 633 576 711 q 719 431 719 556 l 719 0 l 585 0 l 585 404 q 540 539 585 488 q 421 590 494 590 q 286 531 339 590 q 233 379 233 471 l 233 0 l 99 0 l 99 700 m 196 972 l 317 972 l 406 865 l 493 972 l 614 972 l 464 778 l 347 778 l 196 972 z "},"ņ":{"ha":808,"x_min":99,"x_max":719,"o":"m 99 700 l 233 700 l 233 576 q 320 676 261 642 q 458 711 379 711 q 648 633 576 711 q 719 431 719 556 l 719 0 l 585 0 l 585 404 q 540 539 585 488 q 421 590 494 590 q 286 531 339 590 q 233 379 233 471 l 233 0 l 99 0 l 99 700 m 339 -94 l 492 -94 l 385 -308 l 265 -308 l 339 -94 z "},"ɲ":{"ha":808,"x_min":-49,"x_max":719,"o":"m -49 -171 l 6 -171 q 74 -140 50 -171 q 99 -53 99 -110 l 99 700 l 233 700 l 233 576 q 320 676 261 642 q 458 711 379 711 q 648 633 576 711 q 719 431 719 556 l 719 0 l 585 0 l 585 404 q 540 539 585 488 q 421 590 494 590 q 286 531 339 590 q 233 379 233 471 l 233 -61 q 178 -226 233 -168 q 19 -283 122 -283 l -49 -283 l -49 -171 z "},"ñ":{"ha":808,"x_min":99,"x_max":719,"o":"m 99 700 l 233 700 l 233 576 q 320 676 261 642 q 458 711 379 711 q 648 633 576 711 q 719 431 719 556 l 719 0 l 585 0 l 585 404 q 540 539 585 488 q 421 590 494 590 q 286 531 339 590 q 233 379 233 471 l 233 0 l 99 0 l 99 700 m 496 804 q 442 813 465 804 q 390 840 419 822 q 358 859 371 853 q 331 865 344 865 q 291 850 307 865 q 275 810 275 835 l 182 810 q 220 923 182 879 q 315 967 258 967 q 367 958 346 967 q 419 931 389 949 q 481 906 457 906 q 520 920 504 906 q 536 960 536 935 l 629 960 q 591 847 629 890 q 496 804 553 804 z "},"ŋ":{"ha":808,"x_min":99,"x_max":719,"o":"m 438 -171 l 492 -171 q 560 -140 536 -171 q 585 -53 585 -110 l 585 404 q 540 539 585 488 q 421 590 494 590 q 286 531 339 590 q 233 379 233 471 l 233 0 l 99 0 l 99 700 l 233 700 l 233 576 q 320 676 261 642 q 458 711 379 711 q 648 633 576 711 q 719 431 719 556 l 719 -61 q 664 -226 719 -168 q 506 -283 608 -283 l 438 -283 l 438 -171 z "},"o":{"ha":824,"x_min":51,"x_max":772,"o":"m 413 -11 q 226 35 308 -11 q 98 164 144 82 q 51 350 51 246 q 98 536 51 454 q 226 665 144 618 q 413 711 308 711 q 599 665 517 711 q 726 536 681 618 q 772 350 772 454 q 726 164 772 246 q 599 35 681 82 q 413 -11 517 -11 m 413 107 q 573 175 511 107 q 635 350 635 243 q 573 525 635 457 q 413 593 511 593 q 251 525 313 593 q 189 350 189 457 q 251 175 189 243 q 413 107 313 107 z "},"ó":{"ha":824,"x_min":51,"x_max":772,"o":"m 413 -11 q 226 35 308 -11 q 98 164 144 82 q 51 350 51 246 q 98 536 51 454 q 226 665 144 618 q 413 711 308 711 q 599 665 517 711 q 726 536 681 618 q 772 350 772 454 q 726 164 772 246 q 599 35 681 82 q 413 -11 517 -11 m 413 107 q 573 175 511 107 q 635 350 635 243 q 573 525 635 457 q 413 593 511 593 q 251 525 313 593 q 189 350 189 457 q 251 175 189 243 q 413 107 313 107 m 467 982 l 617 982 l 474 776 l 353 776 l 467 982 z "},"ŏ":{"ha":824,"x_min":51,"x_max":772,"o":"m 413 -11 q 226 35 308 -11 q 98 164 144 82 q 51 350 51 246 q 98 536 51 454 q 226 665 144 618 q 413 711 308 711 q 599 665 517 711 q 726 536 681 618 q 772 350 772 454 q 726 164 772 246 q 599 35 681 82 q 413 -11 517 -11 m 413 107 q 573 175 511 107 q 635 350 635 243 q 573 525 635 457 q 413 593 511 593 q 251 525 313 593 q 189 350 189 457 q 251 175 189 243 q 413 107 313 107 m 413 776 q 268 833 324 776 q 213 972 213 889 l 322 972 q 347 902 322 929 q 413 875 372 875 q 478 902 453 875 q 504 972 504 929 l 614 972 q 558 833 614 889 q 413 776 501 776 z "},"ô":{"ha":824,"x_min":51,"x_max":772,"o":"m 413 -11 q 226 35 308 -11 q 98 164 144 82 q 51 350 51 246 q 98 536 51 454 q 226 665 144 618 q 413 711 308 711 q 599 665 517 711 q 726 536 681 618 q 772 350 772 454 q 726 164 772 246 q 599 35 681 82 q 413 -11 517 -11 m 413 107 q 573 175 511 107 q 635 350 635 243 q 573 525 635 457 q 413 593 511 593 q 251 525 313 593 q 189 350 189 457 q 251 175 189 243 q 413 107 313 107 m 356 971 l 471 971 l 622 776 l 501 776 l 413 883 l 325 776 l 203 776 l 356 971 z "},"ố":{"ha":824,"x_min":51,"x_max":813,"o":"m 413 -11 q 226 35 308 -11 q 98 164 144 82 q 51 350 51 246 q 98 536 51 454 q 226 665 144 618 q 413 711 308 711 q 599 665 517 711 q 726 536 681 618 q 772 350 772 454 q 726 164 772 246 q 599 35 681 82 q 413 -11 517 -11 m 413 107 q 573 175 511 107 q 635 350 635 243 q 573 525 635 457 q 413 593 511 593 q 251 525 313 593 q 189 350 189 457 q 251 175 189 243 q 413 107 313 107 m 356 971 l 471 971 l 622 776 l 501 776 l 413 883 l 325 776 l 203 776 l 356 971 m 663 1132 l 813 1132 l 669 926 l 549 926 l 663 1132 z "},"ộ":{"ha":824,"x_min":51,"x_max":772,"o":"m 413 -11 q 226 35 308 -11 q 98 164 144 82 q 51 350 51 246 q 98 536 51 454 q 226 665 144 618 q 413 711 308 711 q 599 665 517 711 q 726 536 681 618 q 772 350 772 454 q 726 164 772 246 q 599 35 681 82 q 413 -11 517 -11 m 413 107 q 573 175 511 107 q 635 350 635 243 q 573 525 635 457 q 413 593 511 593 q 251 525 313 593 q 189 350 189 457 q 251 175 189 243 q 413 107 313 107 m 486 -86 l 486 -251 l 339 -251 l 339 -86 l 486 -86 m 356 971 l 471 971 l 622 776 l 501 776 l 413 883 l 325 776 l 203 776 l 356 971 z "},"ồ":{"ha":824,"x_min":51,"x_max":772,"o":"m 413 -11 q 226 35 308 -11 q 98 164 144 82 q 51 350 51 246 q 98 536 51 454 q 226 665 144 618 q 413 711 308 711 q 599 665 517 711 q 726 536 681 618 q 772 350 772 454 q 726 164 772 246 q 599 35 681 82 q 413 -11 517 -11 m 413 107 q 573 175 511 107 q 635 350 635 243 q 573 525 635 457 q 413 593 511 593 q 251 525 313 593 q 189 350 189 457 q 251 175 189 243 q 413 107 313 107 m 356 971 l 471 971 l 622 776 l 501 776 l 413 883 l 325 776 l 203 776 l 356 971 m 449 1132 l 599 1132 l 713 926 l 592 926 l 449 1132 z "},"ổ":{"ha":824,"x_min":51,"x_max":772,"o":"m 413 -11 q 226 35 308 -11 q 98 164 144 82 q 51 350 51 246 q 98 536 51 454 q 226 665 144 618 q 413 711 308 711 q 599 665 517 711 q 726 536 681 618 q 772 350 772 454 q 726 164 772 246 q 599 35 681 82 q 413 -11 517 -11 m 413 107 q 573 175 511 107 q 635 350 635 243 q 573 525 635 457 q 413 593 511 593 q 251 525 313 593 q 189 350 189 457 q 251 175 189 243 q 413 107 313 107 z "},"ỗ":{"ha":824,"x_min":51,"x_max":772,"o":"m 413 -11 q 226 35 308 -11 q 98 164 144 82 q 51 350 51 246 q 98 536 51 454 q 226 665 144 618 q 413 711 308 711 q 599 665 517 711 q 726 536 681 618 q 772 350 772 454 q 726 164 772 246 q 599 35 681 82 q 413 -11 517 -11 m 413 107 q 573 175 511 107 q 635 350 635 243 q 573 525 635 457 q 413 593 511 593 q 251 525 313 593 q 189 350 189 457 q 251 175 189 243 q 413 107 313 107 z "},"ö":{"ha":824,"x_min":51,"x_max":772,"o":"m 413 -11 q 226 35 308 -11 q 98 164 144 82 q 51 350 51 246 q 98 536 51 454 q 226 665 144 618 q 413 711 308 711 q 599 665 517 711 q 726 536 681 618 q 772 350 772 454 q 726 164 772 246 q 599 35 681 82 q 413 -11 517 -11 m 413 107 q 573 175 511 107 q 635 350 635 243 q 573 525 635 457 q 413 593 511 593 q 251 525 313 593 q 189 350 189 457 q 251 175 189 243 q 413 107 313 107 m 594 961 l 594 822 l 472 822 l 472 961 l 594 961 m 353 961 l 353 821 l 231 821 l 231 961 l 353 961 z "},"ọ":{"ha":824,"x_min":51,"x_max":772,"o":"m 413 -11 q 226 35 308 -11 q 98 164 144 82 q 51 350 51 246 q 98 536 51 454 q 226 665 144 618 q 413 711 308 711 q 599 665 517 711 q 726 536 681 618 q 772 350 772 454 q 726 164 772 246 q 599 35 681 82 q 413 -11 517 -11 m 413 107 q 573 175 511 107 q 635 350 635 243 q 573 525 635 457 q 413 593 511 593 q 251 525 313 593 q 189 350 189 457 q 251 175 189 243 q 413 107 313 107 m 486 -86 l 486 -251 l 339 -251 l 339 -86 l 486 -86 z "},"ò":{"ha":824,"x_min":51,"x_max":772,"o":"m 413 -11 q 226 35 308 -11 q 98 164 144 82 q 51 350 51 246 q 98 536 51 454 q 226 665 144 618 q 413 711 308 711 q 599 665 517 711 q 726 536 681 618 q 772 350 772 454 q 726 164 772 246 q 599 35 681 82 q 413 -11 517 -11 m 413 107 q 573 175 511 107 q 635 350 635 243 q 573 525 635 457 q 413 593 511 593 q 251 525 313 593 q 189 350 189 457 q 251 175 189 243 q 413 107 313 107 m 207 982 l 358 982 l 472 776 l 350 776 l 207 982 z "},"ỏ":{"ha":824,"x_min":51,"x_max":772,"o":"m 413 -11 q 226 35 308 -11 q 98 164 144 82 q 51 350 51 246 q 98 536 51 454 q 226 665 144 618 q 413 711 308 711 q 599 665 517 711 q 726 536 681 618 q 772 350 772 454 q 726 164 772 246 q 599 35 681 82 q 413 -11 517 -11 m 413 107 q 573 175 511 107 q 635 350 635 243 q 573 525 635 457 q 413 593 511 593 q 251 525 313 593 q 189 350 189 457 q 251 175 189 243 q 413 107 313 107 m 400 840 q 465 862 442 842 q 489 914 489 882 q 467 960 489 943 q 413 978 446 978 q 358 958 379 978 q 336 907 336 938 l 242 907 q 290 1018 242 974 q 413 1063 339 1063 q 536 1022 489 1063 q 583 915 583 981 q 531 801 583 843 q 410 760 479 760 l 400 840 z "},"ơ":{"ha":832,"x_min":51,"x_max":774,"o":"m 413 -11 q 226 35 308 -11 q 98 164 144 82 q 51 350 51 246 q 98 536 51 454 q 226 665 144 618 q 413 711 308 711 l 507 711 q 617 744 585 711 q 650 836 650 776 q 646 883 650 858 l 768 883 q 774 828 774 844 q 739 706 774 757 q 640 636 704 654 q 738 513 703 588 q 772 350 772 439 q 726 164 772 246 q 599 35 681 82 q 413 -11 517 -11 m 413 107 q 573 175 511 107 q 635 350 635 243 q 573 525 635 457 q 413 593 511 593 q 251 525 313 593 q 189 350 189 457 q 251 175 189 243 q 413 107 313 107 z "},"ớ":{"ha":832,"x_min":51,"x_max":774,"o":"m 413 -11 q 226 35 308 -11 q 98 164 144 82 q 51 350 51 246 q 98 536 51 454 q 226 665 144 618 q 413 711 308 711 l 507 711 q 617 744 585 711 q 650 836 650 776 q 646 883 650 858 l 768 883 q 774 828 774 844 q 739 706 774 757 q 640 636 704 654 q 738 513 703 588 q 772 350 772 439 q 726 164 772 246 q 599 35 681 82 q 413 -11 517 -11 m 413 107 q 573 175 511 107 q 635 350 635 243 q 573 525 635 457 q 413 593 511 593 q 251 525 313 593 q 189 350 189 457 q 251 175 189 243 q 413 107 313 107 m 467 982 l 617 982 l 474 776 l 353 776 l 467 982 z "},"ợ":{"ha":832,"x_min":51,"x_max":774,"o":"m 413 -11 q 226 35 308 -11 q 98 164 144 82 q 51 350 51 246 q 98 536 51 454 q 226 665 144 618 q 413 711 308 711 l 507 711 q 617 744 585 711 q 650 836 650 776 q 646 883 650 858 l 768 883 q 774 828 774 844 q 739 706 774 757 q 640 636 704 654 q 738 513 703 588 q 772 350 772 439 q 726 164 772 246 q 599 35 681 82 q 413 -11 517 -11 m 413 107 q 573 175 511 107 q 635 350 635 243 q 573 525 635 457 q 413 593 511 593 q 251 525 313 593 q 189 350 189 457 q 251 175 189 243 q 413 107 313 107 m 486 -86 l 486 -251 l 339 -251 l 339 -86 l 486 -86 z "},"ờ":{"ha":832,"x_min":51,"x_max":774,"o":"m 413 -11 q 226 35 308 -11 q 98 164 144 82 q 51 350 51 246 q 98 536 51 454 q 226 665 144 618 q 413 711 308 711 l 507 711 q 617 744 585 711 q 650 836 650 776 q 646 883 650 858 l 768 883 q 774 828 774 844 q 739 706 774 757 q 640 636 704 654 q 738 513 703 588 q 772 350 772 439 q 726 164 772 246 q 599 35 681 82 q 413 -11 517 -11 m 413 107 q 573 175 511 107 q 635 350 635 243 q 573 525 635 457 q 413 593 511 593 q 251 525 313 593 q 189 350 189 457 q 251 175 189 243 q 413 107 313 107 m 207 982 l 358 982 l 472 776 l 350 776 l 207 982 z "},"ở":{"ha":832,"x_min":51,"x_max":774,"o":"m 413 -11 q 226 35 308 -11 q 98 164 144 82 q 51 350 51 246 q 98 536 51 454 q 226 665 144 618 q 413 711 308 711 l 507 711 q 617 744 585 711 q 650 836 650 776 q 646 883 650 858 l 768 883 q 774 828 774 844 q 739 706 774 757 q 640 636 704 654 q 738 513 703 588 q 772 350 772 439 q 726 164 772 246 q 599 35 681 82 q 413 -11 517 -11 m 413 107 q 573 175 511 107 q 635 350 635 243 q 573 525 635 457 q 413 593 511 593 q 251 525 313 593 q 189 350 189 457 q 251 175 189 243 q 413 107 313 107 m 400 840 q 465 862 442 842 q 489 914 489 882 q 467 960 489 943 q 413 978 446 978 q 358 958 379 978 q 336 907 336 938 l 242 907 q 290 1018 242 974 q 413 1063 339 1063 q 536 1022 489 1063 q 583 915 583 981 q 531 801 583 843 q 410 760 479 760 l 400 840 z "},"ỡ":{"ha":832,"x_min":51,"x_max":774,"o":"m 413 -11 q 226 35 308 -11 q 98 164 144 82 q 51 350 51 246 q 98 536 51 454 q 226 665 144 618 q 413 711 308 711 l 507 711 q 617 744 585 711 q 650 836 650 776 q 646 883 650 858 l 768 883 q 774 828 774 844 q 739 706 774 757 q 640 636 704 654 q 738 513 703 588 q 772 350 772 439 q 726 164 772 246 q 599 35 681 82 q 413 -11 517 -11 m 413 107 q 573 175 511 107 q 635 350 635 243 q 573 525 635 457 q 413 593 511 593 q 251 525 313 593 q 189 350 189 457 q 251 175 189 243 q 413 107 313 107 m 489 804 q 435 813 458 804 q 383 839 411 822 q 352 856 368 849 q 322 863 336 863 q 287 848 301 863 q 269 810 272 833 l 175 810 q 215 923 178 879 q 307 967 251 967 q 360 958 336 967 q 411 932 383 949 q 474 907 449 907 q 509 922 494 907 q 528 960 524 936 l 621 960 q 582 847 618 889 q 489 804 546 804 z "},"ő":{"ha":824,"x_min":51,"x_max":772,"o":"m 413 -11 q 226 35 308 -11 q 98 164 144 82 q 51 350 51 246 q 98 536 51 454 q 226 665 144 618 q 413 711 308 711 q 599 665 517 711 q 726 536 681 618 q 772 350 772 454 q 726 164 772 246 q 599 35 681 82 q 413 -11 517 -11 m 413 107 q 573 175 511 107 q 635 350 635 243 q 573 525 635 457 q 413 593 511 593 q 251 525 313 593 q 189 350 189 457 q 251 175 189 243 q 413 107 313 107 m 331 982 l 481 982 l 338 776 l 217 776 l 331 982 m 554 982 l 706 982 l 563 776 l 440 776 l 554 982 z "},"ō":{"ha":824,"x_min":51,"x_max":772,"o":"m 413 -11 q 226 35 308 -11 q 98 164 144 82 q 51 350 51 246 q 98 536 51 454 q 226 665 144 618 q 413 711 308 711 q 599 665 517 711 q 726 536 681 618 q 772 350 772 454 q 726 164 772 246 q 599 35 681 82 q 413 -11 517 -11 m 413 107 q 573 175 511 107 q 635 350 635 243 q 573 525 635 457 q 413 593 511 593 q 251 525 313 593 q 189 350 189 457 q 251 175 189 243 q 413 107 313 107 m 225 926 l 600 926 l 600 818 l 225 818 l 225 926 z "},"ǫ":{"ha":824,"x_min":51,"x_max":772,"o":"m 413 107 q 573 175 511 107 q 635 350 635 243 q 573 525 635 457 q 413 593 511 593 q 251 525 313 593 q 189 350 189 457 q 251 175 189 243 q 413 107 313 107 m 422 -294 q 330 -262 365 -294 q 294 -174 294 -231 q 318 -84 294 -126 q 381 -10 342 -42 q 210 45 285 -3 q 93 172 135 93 q 51 350 51 251 q 98 536 51 454 q 226 665 144 618 q 413 711 308 711 q 599 665 517 711 q 726 536 681 618 q 772 350 772 454 q 735 181 772 257 q 632 57 699 106 q 479 -6 565 8 q 399 -153 399 -83 q 451 -206 399 -206 q 487 -200 468 -206 q 518 -187 506 -194 l 518 -267 q 482 -285 507 -275 q 422 -294 457 -294 z "},"ø":{"ha":824,"x_min":51,"x_max":772,"o":"m 413 -11 q 219 39 304 -11 l 151 -44 l 82 13 l 149 96 q 77 208 103 143 q 51 350 51 274 q 98 536 51 454 q 226 665 144 618 q 413 711 308 711 q 607 660 521 711 l 674 742 l 742 685 l 676 604 q 747 490 722 556 q 772 350 772 425 q 726 164 772 246 q 599 35 681 82 q 413 -11 517 -11 m 413 107 q 573 175 511 107 q 635 350 635 243 q 593 500 635 436 l 299 136 q 413 107 350 107 m 189 350 q 232 197 189 263 l 528 563 q 413 593 478 593 q 251 525 313 593 q 189 350 189 457 z "},"ǿ":{"ha":824,"x_min":51,"x_max":772,"o":"m 413 -11 q 219 39 304 -11 l 151 -44 l 82 13 l 149 96 q 77 208 103 143 q 51 350 51 274 q 98 536 51 454 q 226 665 144 618 q 413 711 308 711 q 607 660 521 711 l 674 742 l 742 685 l 676 604 q 747 490 722 556 q 772 350 772 425 q 726 164 772 246 q 599 35 681 82 q 413 -11 517 -11 m 413 107 q 573 175 511 107 q 635 350 635 243 q 593 500 635 436 l 299 136 q 413 107 350 107 m 189 350 q 232 197 189 263 l 528 563 q 413 593 478 593 q 251 525 313 593 q 189 350 189 457 m 461 982 l 611 982 l 468 776 l 347 776 l 461 982 z "},"õ":{"ha":824,"x_min":51,"x_max":772,"o":"m 413 -11 q 226 35 308 -11 q 98 164 144 82 q 51 350 51 246 q 98 536 51 454 q 226 665 144 618 q 413 711 308 711 q 599 665 517 711 q 726 536 681 618 q 772 350 772 454 q 726 164 772 246 q 599 35 681 82 q 413 -11 517 -11 m 413 107 q 573 175 511 107 q 635 350 635 243 q 573 525 635 457 q 413 593 511 593 q 251 525 313 593 q 189 350 189 457 q 251 175 189 243 q 413 107 313 107 m 503 804 q 449 813 472 804 q 397 840 426 822 q 365 859 378 853 q 338 865 351 865 q 298 850 314 865 q 282 810 282 835 l 189 810 q 227 923 189 879 q 322 967 265 967 q 374 958 353 967 q 426 931 396 949 q 488 906 464 906 q 527 920 511 906 q 543 960 543 935 l 636 960 q 598 847 636 890 q 503 804 560 804 z "},"œ":{"ha":1375,"x_min":51,"x_max":1324,"o":"m 413 -11 q 226 35 308 -11 q 98 164 144 82 q 51 350 51 246 q 98 536 51 454 q 226 665 144 618 q 413 711 308 711 q 584 671 507 711 q 707 558 661 631 q 820 671 749 631 q 986 711 892 711 q 1165 666 1090 711 q 1279 545 1240 621 q 1318 379 1318 469 q 1315 325 1318 350 l 781 325 q 849 165 789 226 q 999 104 908 104 q 1125 136 1076 104 q 1189 228 1174 168 l 1324 228 q 1217 54 1306 119 q 999 -11 1129 -11 q 831 32 906 -11 q 711 149 756 75 q 588 31 665 74 q 413 -11 510 -11 m 413 107 q 573 175 511 107 q 635 350 635 243 q 573 525 635 457 q 413 593 511 593 q 251 525 313 593 q 189 350 189 457 q 251 175 189 243 q 413 107 313 107 m 1181 429 q 1124 556 1175 510 q 986 603 1072 603 q 852 558 904 603 q 785 429 800 514 l 1181 429 z "},"p":{"ha":843,"x_min":99,"x_max":789,"o":"m 99 700 l 233 700 l 233 597 q 326 680 265 649 q 457 711 388 711 q 635 665 560 711 q 749 536 710 618 q 789 350 789 454 q 749 164 789 246 q 635 35 710 82 q 458 -11 561 -11 q 326 20 388 -11 q 233 104 265 51 l 233 -283 l 99 -283 l 99 700 m 438 107 q 594 174 535 107 q 653 350 653 240 q 594 526 653 460 q 438 593 535 593 q 281 526 340 593 q 222 350 222 460 q 281 174 222 240 q 438 107 340 107 z "},"þ":{"ha":843,"x_min":99,"x_max":789,"o":"m 99 979 l 235 979 l 235 614 q 334 685 274 658 q 457 711 394 711 q 635 665 560 711 q 749 536 710 618 q 789 350 789 454 q 749 164 789 246 q 632 35 708 82 q 451 -11 556 -11 q 324 13 383 -11 q 235 75 264 38 l 235 -283 l 99 -283 l 99 979 m 438 107 q 596 174 539 107 q 653 350 653 240 q 596 526 653 458 q 438 593 539 593 q 280 526 336 593 q 224 350 224 460 q 280 173 224 239 q 438 107 336 107 z "},"q":{"ha":843,"x_min":54,"x_max":744,"o":"m 610 104 q 517 20 578 51 q 383 -11 456 -11 q 208 35 282 -11 q 94 164 133 82 q 54 350 54 246 q 93 536 54 454 q 207 665 132 618 q 385 711 282 711 q 517 681 456 711 q 610 597 578 650 l 610 700 l 744 700 l 744 -283 l 610 -283 l 610 104 m 406 107 q 561 174 503 107 q 619 350 619 240 q 561 526 619 460 q 406 593 503 593 q 249 526 308 593 q 190 350 190 460 q 249 174 190 240 q 406 107 308 107 z "},"r":{"ha":522,"x_min":99,"x_max":504,"o":"m 99 700 l 233 700 l 233 565 q 301 668 257 636 q 419 700 346 700 l 504 700 l 504 583 l 403 583 q 233 317 233 583 l 233 0 l 99 0 l 99 700 z "},"ŕ":{"ha":522,"x_min":99,"x_max":513,"o":"m 99 700 l 233 700 l 233 565 q 301 668 257 636 q 419 700 346 700 l 504 700 l 504 583 l 403 583 q 233 317 233 583 l 233 0 l 99 0 l 99 700 m 363 982 l 513 982 l 369 776 l 249 776 l 363 982 z "},"ř":{"ha":522,"x_min":99,"x_max":517,"o":"m 99 700 l 233 700 l 233 565 q 301 668 257 636 q 419 700 346 700 l 504 700 l 504 583 l 403 583 q 233 317 233 583 l 233 0 l 99 0 l 99 700 m 99 972 l 219 972 l 308 865 l 396 972 l 517 972 l 367 778 l 250 778 l 99 972 z "},"ŗ":{"ha":522,"x_min":22,"x_max":504,"o":"m 99 700 l 233 700 l 233 565 q 301 668 257 636 q 419 700 346 700 l 504 700 l 504 583 l 403 583 q 233 317 233 583 l 233 0 l 99 0 l 99 700 m 96 -94 l 249 -94 l 142 -308 l 22 -308 l 96 -94 z "},"s":{"ha":647,"x_min":47,"x_max":592,"o":"m 329 -11 q 129 51 203 -11 q 47 228 56 114 l 171 228 q 218 133 176 168 q 328 99 260 99 q 428 126 390 99 q 465 201 465 154 q 444 256 465 236 q 390 286 422 276 q 301 306 358 296 q 180 334 228 318 q 99 390 132 350 q 65 503 65 431 q 135 653 65 594 q 315 711 206 711 q 508 653 436 711 q 586 493 579 596 l 463 493 q 417 575 457 544 q 317 606 378 606 q 226 580 263 606 q 190 508 190 554 q 210 457 190 475 q 261 431 231 439 q 349 413 292 422 q 474 385 426 400 q 557 328 522 369 q 592 208 592 286 q 522 48 592 107 q 329 -11 451 -11 z "},"ś":{"ha":647,"x_min":47,"x_max":592,"o":"m 329 -11 q 129 51 203 -11 q 47 228 56 114 l 171 228 q 218 133 176 168 q 328 99 260 99 q 428 126 390 99 q 465 201 465 154 q 444 256 465 236 q 390 286 422 276 q 301 306 358 296 q 180 334 228 318 q 99 390 132 350 q 65 503 65 431 q 135 653 65 594 q 315 711 206 711 q 508 653 436 711 q 586 493 579 596 l 463 493 q 417 575 457 544 q 317 606 378 606 q 226 580 263 606 q 190 508 190 554 q 210 457 190 475 q 261 431 231 439 q 349 413 292 422 q 474 385 426 400 q 557 328 522 369 q 592 208 592 286 q 522 48 592 107 q 329 -11 451 -11 m 369 982 l 519 982 l 376 776 l 256 776 l 369 982 z "},"š":{"ha":647,"x_min":47,"x_max":592,"o":"m 329 -11 q 129 51 203 -11 q 47 228 56 114 l 171 228 q 218 133 176 168 q 328 99 260 99 q 428 126 390 99 q 465 201 465 154 q 444 256 465 236 q 390 286 422 276 q 301 306 358 296 q 180 334 228 318 q 99 390 132 350 q 65 503 65 431 q 135 653 65 594 q 315 711 206 711 q 508 653 436 711 q 586 493 579 596 l 463 493 q 417 575 457 544 q 317 606 378 606 q 226 580 263 606 q 190 508 190 554 q 210 457 190 475 q 261 431 231 439 q 349 413 292 422 q 474 385 426 400 q 557 328 522 369 q 592 208 592 286 q 522 48 592 107 q 329 -11 451 -11 m 106 972 l 226 972 l 315 865 l 403 972 l 524 972 l 374 778 l 257 778 l 106 972 z "},"ş":{"ha":647,"x_min":47,"x_max":592,"o":"m 271 -7 q 112 67 169 7 q 47 228 54 128 l 171 228 q 218 133 176 168 q 328 99 260 99 q 428 126 390 99 q 465 201 465 154 q 444 256 465 236 q 390 286 422 276 q 301 306 358 296 q 180 334 228 318 q 99 390 132 350 q 65 503 65 431 q 135 653 65 594 q 315 711 206 711 q 508 653 436 711 q 586 493 579 596 l 463 493 q 417 575 457 544 q 317 606 378 606 q 226 580 263 606 q 190 508 190 554 q 210 457 190 475 q 261 431 231 439 q 349 413 292 422 q 474 385 426 400 q 557 328 522 369 q 592 208 592 286 q 528 53 592 113 q 351 -11 464 -6 l 325 -65 q 356 -64 335 -64 q 451 -92 414 -64 q 489 -169 489 -119 q 440 -261 489 -229 q 307 -293 390 -293 q 196 -274 247 -293 l 196 -194 q 307 -215 250 -215 q 392 -169 392 -215 q 372 -140 392 -150 q 319 -131 351 -131 q 261 -137 286 -131 l 224 -106 l 271 -7 z "},"ŝ":{"ha":647,"x_min":47,"x_max":592,"o":"m 329 -11 q 129 51 203 -11 q 47 228 56 114 l 171 228 q 218 133 176 168 q 328 99 260 99 q 428 126 390 99 q 465 201 465 154 q 444 256 465 236 q 390 286 422 276 q 301 306 358 296 q 180 334 228 318 q 99 390 132 350 q 65 503 65 431 q 135 653 65 594 q 315 711 206 711 q 508 653 436 711 q 586 493 579 596 l 463 493 q 417 575 457 544 q 317 606 378 606 q 226 580 263 606 q 190 508 190 554 q 210 457 190 475 q 261 431 231 439 q 349 413 292 422 q 474 385 426 400 q 557 328 522 369 q 592 208 592 286 q 522 48 592 107 q 329 -11 451 -11 m 258 971 l 374 971 l 525 776 l 404 776 l 315 883 l 228 776 l 106 776 l 258 971 z "},"ș":{"ha":647,"x_min":47,"x_max":592,"o":"m 329 -11 q 129 51 203 -11 q 47 228 56 114 l 171 228 q 218 133 176 168 q 328 99 260 99 q 428 126 390 99 q 465 201 465 154 q 444 256 465 236 q 390 286 422 276 q 301 306 358 296 q 180 334 228 318 q 99 390 132 350 q 65 503 65 431 q 135 653 65 594 q 315 711 206 711 q 508 653 436 711 q 586 493 579 596 l 463 493 q 417 575 457 544 q 317 606 378 606 q 226 580 263 606 q 190 508 190 554 q 210 457 190 475 q 261 431 231 439 q 349 413 292 422 q 474 385 426 400 q 557 328 522 369 q 592 208 592 286 q 522 48 592 107 q 329 -11 451 -11 m 249 -94 l 401 -94 l 294 -308 l 175 -308 l 249 -94 z "},"ß":{"ha":858,"x_min":44,"x_max":806,"o":"m 135 635 q 224 889 135 794 q 468 983 313 983 q 683 915 606 983 q 761 732 761 846 q 726 608 761 661 q 642 532 692 554 q 761 442 717 504 q 806 285 806 381 q 720 76 806 153 q 489 0 635 0 l 369 0 l 369 128 l 469 128 q 617 169 565 128 q 668 290 668 210 q 617 412 668 369 q 469 454 565 454 l 369 454 l 369 576 l 463 576 q 584 614 542 576 q 626 725 626 651 q 586 826 626 788 q 469 865 546 865 q 326 801 378 865 q 274 632 274 738 l 274 0 l 135 0 l 135 454 l 44 454 l 44 576 l 135 576 l 135 635 z "},"ſ":{"ha":424,"x_min":19,"x_max":510,"o":"m 163 583 l 19 583 l 19 700 l 163 700 l 163 768 q 225 932 163 871 q 393 993 288 993 l 510 993 l 510 876 l 404 876 q 326 846 356 876 q 297 764 297 815 l 297 0 l 163 0 l 163 583 z "},"t":{"ha":535,"x_min":15,"x_max":500,"o":"m 392 0 q 222 61 285 0 q 158 229 158 122 l 158 583 l 15 583 l 15 700 l 158 700 l 158 919 l 293 919 l 293 700 l 500 700 l 500 583 l 293 583 l 293 233 q 322 147 293 178 q 401 117 351 117 l 500 117 l 500 0 l 392 0 z "},"ŧ":{"ha":553,"x_min":32,"x_max":517,"o":"m 408 0 q 238 61 301 0 q 175 229 175 122 l 175 301 l 32 301 l 32 401 l 175 401 l 175 583 l 32 583 l 32 700 l 175 700 l 175 919 l 310 919 l 310 700 l 517 700 l 517 583 l 310 583 l 310 401 l 517 401 l 517 301 l 310 301 l 310 233 q 339 147 310 178 q 418 117 368 117 l 517 117 l 517 0 l 408 0 z "},"ť":{"ha":535,"x_min":15,"x_max":564,"o":"m 392 0 q 222 61 285 0 q 158 229 158 122 l 158 583 l 15 583 l 15 700 l 158 700 l 158 919 l 293 919 l 293 700 l 500 700 l 500 583 l 293 583 l 293 233 q 322 147 293 178 q 401 117 351 117 l 500 117 l 500 0 l 392 0 m 433 1025 l 564 1025 l 490 778 l 389 778 l 433 1025 z "},"ţ":{"ha":535,"x_min":15,"x_max":522,"o":"m 390 0 l 358 -65 q 389 -64 368 -64 q 485 -92 447 -64 q 522 -169 522 -119 q 473 -261 522 -229 q 340 -293 424 -293 q 229 -274 281 -293 l 229 -194 q 340 -215 283 -215 q 425 -169 425 -215 q 405 -140 425 -150 q 353 -131 385 -131 q 294 -137 319 -131 l 257 -106 l 313 10 q 199 87 240 29 q 158 229 158 144 l 158 583 l 15 583 l 15 700 l 158 700 l 158 919 l 293 919 l 293 700 l 500 700 l 500 583 l 293 583 l 293 233 q 322 147 293 178 q 401 117 351 117 l 500 117 l 500 0 l 392 0 l 390 0 z "},"ț":{"ha":535,"x_min":15,"x_max":500,"o":"m 392 0 q 222 61 285 0 q 158 229 158 122 l 158 583 l 15 583 l 15 700 l 158 700 l 158 919 l 293 919 l 293 700 l 500 700 l 500 583 l 293 583 l 293 233 q 322 147 293 178 q 401 117 351 117 l 500 117 l 500 0 l 392 0 m 282 -94 l 435 -94 l 328 -308 l 208 -308 l 282 -94 z "},"u":{"ha":808,"x_min":89,"x_max":711,"o":"m 350 -11 q 160 67 232 -11 q 89 269 89 144 l 89 700 l 224 700 l 224 296 q 269 161 224 213 q 388 110 314 110 q 523 169 469 110 q 576 321 576 229 l 576 700 l 711 700 l 711 0 l 576 0 l 576 124 q 489 24 549 58 q 350 -11 429 -11 z "},"ú":{"ha":808,"x_min":89,"x_max":711,"o":"m 350 -11 q 160 67 232 -11 q 89 269 89 144 l 89 700 l 224 700 l 224 296 q 269 161 224 213 q 388 110 314 110 q 523 169 469 110 q 576 321 576 229 l 576 700 l 711 700 l 711 0 l 576 0 l 576 124 q 489 24 549 58 q 350 -11 429 -11 m 457 982 l 607 982 l 464 776 l 343 776 l 457 982 z "},"ŭ":{"ha":808,"x_min":89,"x_max":711,"o":"m 350 -11 q 160 67 232 -11 q 89 269 89 144 l 89 700 l 224 700 l 224 296 q 269 161 224 213 q 388 110 314 110 q 523 169 469 110 q 576 321 576 229 l 576 700 l 711 700 l 711 0 l 576 0 l 576 124 q 489 24 549 58 q 350 -11 429 -11 m 403 776 q 258 833 314 776 q 203 972 203 889 l 313 972 q 338 902 313 929 q 403 875 363 875 q 469 902 443 875 q 494 972 494 929 l 604 972 q 548 833 604 889 q 403 776 492 776 z "},"û":{"ha":808,"x_min":89,"x_max":711,"o":"m 350 -11 q 160 67 232 -11 q 89 269 89 144 l 89 700 l 224 700 l 224 296 q 269 161 224 213 q 388 110 314 110 q 523 169 469 110 q 576 321 576 229 l 576 700 l 711 700 l 711 0 l 576 0 l 576 124 q 489 24 549 58 q 350 -11 429 -11 m 346 971 l 461 971 l 613 776 l 492 776 l 403 883 l 315 776 l 193 776 l 346 971 z "},"ü":{"ha":808,"x_min":89,"x_max":711,"o":"m 350 -11 q 160 67 232 -11 q 89 269 89 144 l 89 700 l 224 700 l 224 296 q 269 161 224 213 q 388 110 314 110 q 523 169 469 110 q 576 321 576 229 l 576 700 l 711 700 l 711 0 l 576 0 l 576 124 q 489 24 549 58 q 350 -11 429 -11 m 585 961 l 585 822 l 463 822 l 463 961 l 585 961 m 343 961 l 343 821 l 221 821 l 221 961 l 343 961 z "},"ụ":{"ha":808,"x_min":89,"x_max":711,"o":"m 350 -11 q 160 67 232 -11 q 89 269 89 144 l 89 700 l 224 700 l 224 296 q 269 161 224 213 q 388 110 314 110 q 523 169 469 110 q 576 321 576 229 l 576 700 l 711 700 l 711 0 l 576 0 l 576 124 q 489 24 549 58 q 350 -11 429 -11 m 476 -86 l 476 -251 l 329 -251 l 329 -86 l 476 -86 z "},"ù":{"ha":808,"x_min":89,"x_max":711,"o":"m 350 -11 q 160 67 232 -11 q 89 269 89 144 l 89 700 l 224 700 l 224 296 q 269 161 224 213 q 388 110 314 110 q 523 169 469 110 q 576 321 576 229 l 576 700 l 711 700 l 711 0 l 576 0 l 576 124 q 489 24 549 58 q 350 -11 429 -11 m 199 982 l 350 982 l 464 776 l 342 776 l 199 982 z "},"ủ":{"ha":808,"x_min":89,"x_max":711,"o":"m 350 -11 q 160 67 232 -11 q 89 269 89 144 l 89 700 l 224 700 l 224 296 q 269 161 224 213 q 388 110 314 110 q 523 169 469 110 q 576 321 576 229 l 576 700 l 711 700 l 711 0 l 576 0 l 576 124 q 489 24 549 58 q 350 -11 429 -11 m 390 840 q 456 862 432 842 q 479 914 479 882 q 458 960 479 943 q 403 978 436 978 q 348 958 369 978 q 326 907 326 938 l 232 907 q 281 1018 232 974 q 403 1063 329 1063 q 526 1022 479 1063 q 574 915 574 981 q 522 801 574 843 q 400 760 469 760 l 390 840 z "},"ư":{"ha":808,"x_min":89,"x_max":857,"o":"m 350 -11 q 160 67 232 -11 q 89 269 89 144 l 89 700 l 224 700 l 224 296 q 269 161 224 213 q 388 110 314 110 q 523 169 469 110 q 576 321 576 229 l 576 700 l 588 700 q 700 733 667 700 q 733 826 733 765 q 729 874 733 849 l 851 874 q 857 818 857 835 q 819 691 857 743 q 711 624 781 639 l 711 0 l 576 0 l 576 124 q 489 24 549 58 q 350 -11 429 -11 z "},"ứ":{"ha":808,"x_min":89,"x_max":857,"o":"m 350 -11 q 160 67 232 -11 q 89 269 89 144 l 89 700 l 224 700 l 224 296 q 269 161 224 213 q 388 110 314 110 q 523 169 469 110 q 576 321 576 229 l 576 700 l 588 700 q 700 733 667 700 q 733 826 733 765 q 729 874 733 849 l 851 874 q 857 818 857 835 q 819 691 857 743 q 711 624 781 639 l 711 0 l 576 0 l 576 124 q 489 24 549 58 q 350 -11 429 -11 m 457 982 l 607 982 l 464 776 l 343 776 l 457 982 z "},"ự":{"ha":808,"x_min":89,"x_max":857,"o":"m 350 -11 q 160 67 232 -11 q 89 269 89 144 l 89 700 l 224 700 l 224 296 q 269 161 224 213 q 388 110 314 110 q 523 169 469 110 q 576 321 576 229 l 576 700 l 588 700 q 700 733 667 700 q 733 826 733 765 q 729 874 733 849 l 851 874 q 857 818 857 835 q 819 691 857 743 q 711 624 781 639 l 711 0 l 576 0 l 576 124 q 489 24 549 58 q 350 -11 429 -11 m 476 -86 l 476 -251 l 329 -251 l 329 -86 l 476 -86 z "},"ừ":{"ha":808,"x_min":89,"x_max":857,"o":"m 350 -11 q 160 67 232 -11 q 89 269 89 144 l 89 700 l 224 700 l 224 296 q 269 161 224 213 q 388 110 314 110 q 523 169 469 110 q 576 321 576 229 l 576 700 l 588 700 q 700 733 667 700 q 733 826 733 765 q 729 874 733 849 l 851 874 q 857 818 857 835 q 819 691 857 743 q 711 624 781 639 l 711 0 l 576 0 l 576 124 q 489 24 549 58 q 350 -11 429 -11 m 199 982 l 350 982 l 464 776 l 342 776 l 199 982 z "},"ử":{"ha":808,"x_min":89,"x_max":857,"o":"m 350 -11 q 160 67 232 -11 q 89 269 89 144 l 89 700 l 224 700 l 224 296 q 269 161 224 213 q 388 110 314 110 q 523 169 469 110 q 576 321 576 229 l 576 700 l 588 700 q 700 733 667 700 q 733 826 733 765 q 729 874 733 849 l 851 874 q 857 818 857 835 q 819 691 857 743 q 711 624 781 639 l 711 0 l 576 0 l 576 124 q 489 24 549 58 q 350 -11 429 -11 m 390 840 q 456 862 432 842 q 479 914 479 882 q 458 960 479 943 q 403 978 436 978 q 348 958 369 978 q 326 907 326 938 l 232 907 q 281 1018 232 974 q 403 1063 329 1063 q 526 1022 479 1063 q 574 915 574 981 q 522 801 574 843 q 400 760 469 760 l 390 840 z "},"ữ":{"ha":808,"x_min":89,"x_max":857,"o":"m 350 -11 q 160 67 232 -11 q 89 269 89 144 l 89 700 l 224 700 l 224 296 q 269 161 224 213 q 388 110 314 110 q 523 169 469 110 q 576 321 576 229 l 576 700 l 588 700 q 700 733 667 700 q 733 826 733 765 q 729 874 733 849 l 851 874 q 857 818 857 835 q 819 691 857 743 q 711 624 781 639 l 711 0 l 576 0 l 576 124 q 489 24 549 58 q 350 -11 429 -11 m 493 804 q 440 813 463 804 q 388 840 417 822 q 355 859 368 853 q 328 865 342 865 q 288 850 304 865 q 272 810 272 835 l 179 810 q 217 923 179 879 q 313 967 256 967 q 365 958 343 967 q 417 931 386 949 q 478 906 454 906 q 517 920 501 906 q 533 960 533 935 l 626 960 q 588 847 626 890 q 493 804 550 804 z "},"ű":{"ha":808,"x_min":89,"x_max":711,"o":"m 350 -11 q 160 67 232 -11 q 89 269 89 144 l 89 700 l 224 700 l 224 296 q 269 161 224 213 q 388 110 314 110 q 523 169 469 110 q 576 321 576 229 l 576 700 l 711 700 l 711 0 l 576 0 l 576 124 q 489 24 549 58 q 350 -11 429 -11 m 321 982 l 471 982 l 328 776 l 207 776 l 321 982 m 544 982 l 696 982 l 553 776 l 431 776 l 544 982 z "},"ū":{"ha":808,"x_min":89,"x_max":711,"o":"m 350 -11 q 160 67 232 -11 q 89 269 89 144 l 89 700 l 224 700 l 224 296 q 269 161 224 213 q 388 110 314 110 q 523 169 469 110 q 576 321 576 229 l 576 700 l 711 700 l 711 0 l 576 0 l 576 124 q 489 24 549 58 q 350 -11 429 -11 m 215 926 l 590 926 l 590 818 l 215 818 l 215 926 z "},"ų":{"ha":808,"x_min":89,"x_max":744,"o":"m 350 -11 q 160 67 232 -11 q 89 269 89 144 l 89 700 l 224 700 l 224 296 q 269 161 224 213 q 388 110 314 110 q 523 169 469 110 q 576 321 576 229 l 576 700 l 711 700 l 711 0 q 649 -77 672 -37 q 625 -153 625 -117 q 678 -206 625 -206 q 713 -200 694 -206 q 744 -187 732 -194 l 744 -267 q 708 -285 733 -275 q 649 -294 683 -294 q 556 -262 592 -294 q 521 -174 521 -231 q 549 -78 521 -124 q 619 0 576 -32 l 576 0 l 576 124 q 489 24 549 58 q 350 -11 429 -11 z "},"ů":{"ha":808,"x_min":89,"x_max":711,"o":"m 350 -11 q 160 67 232 -11 q 89 269 89 144 l 89 700 l 224 700 l 224 296 q 269 161 224 213 q 388 110 314 110 q 523 169 469 110 q 576 321 576 229 l 576 700 l 711 700 l 711 0 l 576 0 l 576 124 q 489 24 549 58 q 350 -11 429 -11 m 403 756 q 283 799 331 756 q 235 908 235 843 q 283 1017 235 974 q 403 1061 331 1061 q 523 1017 475 1061 q 571 908 571 974 q 523 799 571 843 q 403 756 475 756 m 403 832 q 460 853 438 832 q 483 908 483 875 q 461 963 483 942 q 403 983 439 983 q 345 963 368 983 q 322 908 322 942 q 345 853 322 875 q 403 832 368 832 z "},"ũ":{"ha":808,"x_min":89,"x_max":711,"o":"m 350 -11 q 160 67 232 -11 q 89 269 89 144 l 89 700 l 224 700 l 224 296 q 269 161 224 213 q 388 110 314 110 q 523 169 469 110 q 576 321 576 229 l 576 700 l 711 700 l 711 0 l 576 0 l 576 124 q 489 24 549 58 q 350 -11 429 -11 m 493 804 q 440 813 463 804 q 388 840 417 822 q 355 859 368 853 q 328 865 342 865 q 288 850 304 865 q 272 810 272 835 l 179 810 q 217 923 179 879 q 313 967 256 967 q 365 958 343 967 q 417 931 386 949 q 478 906 454 906 q 517 920 501 906 q 533 960 533 935 l 626 960 q 588 847 626 890 q 493 804 550 804 z "},"v":{"ha":692,"x_min":22,"x_max":669,"o":"m 22 700 l 161 700 l 346 168 l 531 700 l 669 700 l 413 0 l 279 0 l 22 700 z "},"w":{"ha":1054,"x_min":26,"x_max":1028,"o":"m 26 700 l 161 700 l 306 179 l 464 700 l 592 700 l 749 179 l 892 700 l 1028 700 l 811 0 l 686 0 l 528 522 l 368 0 l 243 0 l 26 700 z "},"ẃ":{"ha":1054,"x_min":26,"x_max":1028,"o":"m 26 700 l 161 700 l 306 179 l 464 700 l 592 700 l 749 179 l 892 700 l 1028 700 l 811 0 l 686 0 l 528 522 l 368 0 l 243 0 l 26 700 m 582 982 l 732 982 l 589 776 l 468 776 l 582 982 z "},"ŵ":{"ha":1054,"x_min":26,"x_max":1028,"o":"m 26 700 l 161 700 l 306 179 l 464 700 l 592 700 l 749 179 l 892 700 l 1028 700 l 811 0 l 686 0 l 528 522 l 368 0 l 243 0 l 26 700 m 471 971 l 586 971 l 738 776 l 617 776 l 528 883 l 440 776 l 318 776 l 471 971 z "},"ẅ":{"ha":1054,"x_min":26,"x_max":1028,"o":"m 26 700 l 161 700 l 306 179 l 464 700 l 592 700 l 749 179 l 892 700 l 1028 700 l 811 0 l 686 0 l 528 522 l 368 0 l 243 0 l 26 700 m 710 961 l 710 822 l 588 822 l 588 961 l 710 961 m 468 961 l 468 821 l 346 821 l 346 961 l 468 961 z "},"ẁ":{"ha":1054,"x_min":26,"x_max":1028,"o":"m 26 700 l 161 700 l 306 179 l 464 700 l 592 700 l 749 179 l 892 700 l 1028 700 l 811 0 l 686 0 l 528 522 l 368 0 l 243 0 l 26 700 m 322 982 l 474 982 l 588 776 l 465 776 l 322 982 z "},"x":{"ha":671,"x_min":7,"x_max":665,"o":"m 7 0 l 260 365 l 26 700 l 181 700 l 336 475 l 492 700 l 644 700 l 413 367 l 665 0 l 514 0 l 336 257 l 157 0 l 7 0 z "},"y":{"ha":686,"x_min":24,"x_max":663,"o":"m 278 -11 l 24 700 l 161 700 l 343 164 l 524 700 l 663 700 l 311 -283 l 179 -283 l 278 -11 z "},"ý":{"ha":686,"x_min":24,"x_max":663,"o":"m 278 -11 l 24 700 l 161 700 l 343 164 l 524 700 l 663 700 l 311 -283 l 179 -283 l 278 -11 m 400 982 l 550 982 l 407 776 l 286 776 l 400 982 z "},"ŷ":{"ha":686,"x_min":24,"x_max":663,"o":"m 278 -11 l 24 700 l 161 700 l 343 164 l 524 700 l 663 700 l 311 -283 l 179 -283 l 278 -11 m 289 971 l 404 971 l 556 776 l 435 776 l 346 883 l 258 776 l 136 776 l 289 971 z "},"ÿ":{"ha":686,"x_min":24,"x_max":663,"o":"m 278 -11 l 24 700 l 161 700 l 343 164 l 524 700 l 663 700 l 311 -283 l 179 -283 l 278 -11 m 528 961 l 528 822 l 406 822 l 406 961 l 528 961 m 286 961 l 286 821 l 164 821 l 164 961 l 286 961 z "},"ỵ":{"ha":686,"x_min":24,"x_max":663,"o":"m 278 -11 l 24 700 l 161 700 l 343 164 l 524 700 l 663 700 l 311 -283 l 179 -283 l 278 -11 m 606 -86 l 606 -251 l 458 -251 l 458 -86 l 606 -86 z "},"ỳ":{"ha":686,"x_min":24,"x_max":663,"o":"m 278 -11 l 24 700 l 161 700 l 343 164 l 524 700 l 663 700 l 311 -283 l 179 -283 l 278 -11 m 140 982 l 292 982 l 406 776 l 283 776 l 140 982 z "},"ỷ":{"ha":686,"x_min":24,"x_max":663,"o":"m 278 -11 l 24 700 l 161 700 l 343 164 l 524 700 l 663 700 l 311 -283 l 179 -283 l 278 -11 m 333 840 q 399 862 375 842 q 422 914 422 882 q 401 960 422 943 q 346 978 379 978 q 291 958 313 978 q 269 907 269 938 l 175 907 q 224 1018 175 974 q 346 1063 272 1063 q 469 1022 422 1063 q 517 915 517 981 q 465 801 517 843 q 343 760 413 760 l 333 840 z "},"ȳ":{"ha":686,"x_min":24,"x_max":663,"o":"m 278 -11 l 24 700 l 161 700 l 343 164 l 524 700 l 663 700 l 311 -283 l 179 -283 l 278 -11 m 158 926 l 533 926 l 533 818 l 158 818 l 158 926 z "},"ỹ":{"ha":686,"x_min":24,"x_max":663,"o":"m 278 -11 l 24 700 l 161 700 l 343 164 l 524 700 l 663 700 l 311 -283 l 179 -283 l 278 -11 m 436 804 q 383 813 406 804 q 331 840 360 822 q 298 859 311 853 q 271 865 285 865 q 231 850 247 865 q 215 810 215 835 l 122 810 q 160 923 122 879 q 256 967 199 967 q 308 958 286 967 q 360 931 329 949 q 421 906 397 906 q 460 920 444 906 q 476 960 476 935 l 569 960 q 531 847 569 890 q 436 804 493 804 z "},"z":{"ha":678,"x_min":44,"x_max":633,"o":"m 44 117 l 458 583 l 65 583 l 65 700 l 614 700 l 614 583 l 203 117 l 633 117 l 633 0 l 44 0 l 44 117 z "},"ź":{"ha":678,"x_min":44,"x_max":633,"o":"m 44 117 l 458 583 l 65 583 l 65 700 l 614 700 l 614 583 l 203 117 l 633 117 l 633 0 l 44 0 l 44 117 m 408 982 l 558 982 l 415 776 l 294 776 l 408 982 z "},"ž":{"ha":678,"x_min":44,"x_max":633,"o":"m 44 117 l 458 583 l 65 583 l 65 700 l 614 700 l 614 583 l 203 117 l 633 117 l 633 0 l 44 0 l 44 117 m 144 972 l 265 972 l 354 865 l 442 972 l 563 972 l 413 778 l 296 778 l 144 972 z "},"ż":{"ha":678,"x_min":44,"x_max":633,"o":"m 44 117 l 458 583 l 65 583 l 65 700 l 614 700 l 614 583 l 203 117 l 633 117 l 633 0 l 44 0 l 44 117 m 429 993 l 429 824 l 279 824 l 279 993 l 429 993 z "},"ꞌ":{"ha":275,"x_min":67,"x_max":208,"o":"m 67 993 l 208 993 l 179 683 l 94 683 l 67 993 z "},"ﬁ":{"ha":817,"x_min":19,"x_max":719,"o":"m 719 0 l 585 0 l 585 583 l 297 583 l 297 0 l 163 0 l 163 583 l 19 583 l 19 700 l 163 700 l 163 768 q 225 932 163 871 q 393 993 288 993 l 510 993 l 510 876 l 404 876 q 326 846 356 876 q 297 764 297 815 l 297 700 l 719 700 l 719 0 z "},"ﬂ":{"ha":817,"x_min":19,"x_max":719,"o":"m 719 993 l 719 0 l 585 0 l 585 583 l 297 583 l 297 0 l 163 0 l 163 583 l 19 583 l 19 700 l 163 700 l 163 768 q 225 932 163 871 q 393 993 288 993 l 476 993 l 476 876 l 404 876 q 326 846 356 876 q 297 764 297 815 l 297 700 l 585 700 l 585 993 l 719 993 z "},"ª":{"ha":510,"x_min":65,"x_max":426,"o":"m 206 550 q 105 586 144 550 q 65 676 65 622 q 107 775 65 740 q 225 810 149 810 l 310 810 q 336 836 336 810 q 310 890 336 869 q 243 911 283 911 q 178 889 204 911 q 151 836 153 867 l 65 836 q 119 941 71 899 q 243 983 168 983 q 375 941 324 983 q 426 831 426 899 l 426 557 l 336 557 l 336 621 q 286 569 322 589 q 206 550 250 550 m 226 624 q 307 653 278 624 q 336 736 336 683 l 336 747 l 240 747 q 158 681 158 747 q 178 640 158 656 q 226 624 197 624 z "},"º":{"ha":547,"x_min":54,"x_max":492,"o":"m 272 550 q 160 578 210 550 q 82 656 110 606 q 54 767 54 706 q 82 878 54 828 q 160 956 110 928 q 272 983 210 983 q 430 922 368 983 q 492 767 492 861 q 430 611 492 672 q 272 550 368 550 m 272 633 q 361 670 328 633 q 394 767 394 707 q 361 864 394 826 q 272 901 328 901 q 185 864 218 901 q 151 767 151 826 q 185 670 151 707 q 272 633 218 633 z "},"А":{"ha":925,"x_min":14,"x_max":911,"o":"m 396 972 l 529 972 l 911 0 l 761 0 l 668 247 l 257 247 l 164 0 l 14 0 l 396 972 m 621 374 l 463 792 l 304 374 l 621 374 z "},"Б":{"ha":872,"x_min":111,"x_max":826,"o":"m 111 972 l 761 972 l 761 844 l 254 844 l 254 606 l 476 606 q 731 526 636 606 q 826 304 826 446 q 731 81 826 163 q 476 0 635 0 l 111 0 l 111 972 m 464 128 q 626 174 569 128 q 683 304 683 219 q 626 435 683 389 q 464 481 569 481 l 254 481 l 254 128 l 464 128 z "},"В":{"ha":872,"x_min":111,"x_max":815,"o":"m 111 972 l 471 972 q 690 908 608 972 q 771 735 771 844 q 737 610 771 661 q 646 532 703 558 q 769 442 724 504 q 815 283 815 379 q 728 76 815 153 q 489 0 640 0 l 111 0 l 111 972 m 469 128 q 622 169 571 128 q 674 290 674 211 q 622 411 674 369 q 469 453 571 453 l 254 453 l 254 128 l 469 128 m 464 579 q 588 613 546 579 q 631 715 631 647 q 588 817 631 782 q 463 851 544 851 l 254 851 l 254 579 l 464 579 z "},"Г":{"ha":739,"x_min":111,"x_max":725,"o":"m 111 972 l 725 972 l 725 844 l 256 844 l 256 0 l 111 0 l 111 972 z "},"Ѓ":{"ha":739,"x_min":111,"x_max":725,"o":"m 111 972 l 725 972 l 725 844 l 256 844 l 256 0 l 111 0 l 111 972 m 449 1254 l 599 1254 l 456 1049 l 335 1049 l 449 1254 z "},"Ґ":{"ha":739,"x_min":111,"x_max":725,"o":"m 256 0 l 111 0 l 111 972 l 590 972 l 590 1188 l 725 1188 l 725 844 l 256 844 l 256 0 z "},"Ғ":{"ha":772,"x_min":17,"x_max":754,"o":"m 142 415 l 17 415 l 17 524 l 142 524 l 142 972 l 754 972 l 754 844 l 286 844 l 286 524 l 554 524 l 554 415 l 286 415 l 286 0 l 142 0 l 142 415 z "},"Д":{"ha":1013,"x_min":36,"x_max":968,"o":"m 36 128 l 68 128 q 151 189 122 128 q 179 408 179 250 l 183 972 l 858 972 l 858 128 l 968 128 l 968 -206 l 829 -206 l 829 0 l 175 0 l 175 -206 l 36 -206 l 36 128 m 714 128 l 714 844 l 319 844 l 315 410 q 301 231 315 297 q 256 128 286 165 l 714 128 z "},"Е":{"ha":801,"x_min":111,"x_max":750,"o":"m 111 972 l 735 972 l 735 844 l 256 844 l 256 565 l 643 565 l 643 438 l 256 438 l 256 128 l 750 128 l 750 0 l 111 0 l 111 972 z "},"Ѐ":{"ha":801,"x_min":111,"x_max":750,"o":"m 111 972 l 735 972 l 735 844 l 256 844 l 256 565 l 643 565 l 643 438 l 256 438 l 256 128 l 750 128 l 750 0 l 111 0 l 111 972 m 221 1254 l 372 1254 l 486 1049 l 364 1049 l 221 1254 z "},"Ё":{"ha":801,"x_min":111,"x_max":750,"o":"m 111 972 l 735 972 l 735 844 l 256 844 l 256 565 l 643 565 l 643 438 l 256 438 l 256 128 l 750 128 l 750 0 l 111 0 l 111 972 m 607 1233 l 607 1094 l 485 1094 l 485 1233 l 607 1233 m 365 1233 l 365 1093 l 243 1093 l 243 1233 l 365 1233 z "},"Ж":{"ha":1257,"x_min":-1,"x_max":1257,"o":"m 700 472 l 700 0 l 556 0 l 556 471 l 181 0 l -1 0 l 407 510 l 18 972 l 190 972 l 556 538 l 556 972 l 700 972 l 700 536 l 1065 972 l 1239 972 l 850 510 l 1257 0 l 1076 0 l 700 472 z "},"З":{"ha":833,"x_min":43,"x_max":774,"o":"m 406 -11 q 140 73 236 -11 q 43 306 44 157 l 183 306 q 238 165 183 215 q 403 114 292 114 q 567 158 507 114 q 628 286 628 201 q 576 406 628 365 q 429 447 524 447 l 297 447 l 297 575 l 421 575 q 589 708 589 575 q 543 820 589 782 q 411 858 497 858 q 265 812 315 858 q 217 682 215 765 l 76 682 q 118 842 76 774 q 237 947 160 910 q 415 983 314 983 q 582 951 510 983 q 693 860 654 918 q 732 726 732 801 q 697 602 732 653 q 608 528 661 551 q 729 440 685 501 q 774 288 774 379 q 674 69 774 149 q 406 -11 574 -11 z "},"И":{"ha":997,"x_min":111,"x_max":886,"o":"m 111 972 l 254 972 l 254 208 l 725 972 l 886 972 l 886 0 l 743 0 l 743 761 l 272 0 l 111 0 l 111 972 z "},"Й":{"ha":997,"x_min":111,"x_max":886,"o":"m 111 972 l 254 972 l 254 208 l 725 972 l 886 972 l 886 0 l 743 0 l 743 761 l 272 0 l 111 0 l 111 972 m 499 1031 q 325 1085 390 1031 q 260 1231 260 1140 l 381 1231 q 411 1151 381 1181 q 499 1122 442 1122 q 586 1151 556 1122 q 617 1231 617 1181 l 738 1231 q 672 1085 738 1140 q 499 1031 607 1031 z "},"Ѝ":{"ha":997,"x_min":111,"x_max":886,"o":"m 111 972 l 254 972 l 254 208 l 725 972 l 886 972 l 886 0 l 743 0 l 743 761 l 272 0 l 111 0 l 111 972 m 293 1254 l 444 1254 l 558 1049 l 436 1049 l 293 1254 z "},"К":{"ha":893,"x_min":111,"x_max":906,"o":"m 111 0 l 111 972 l 256 972 l 256 521 l 683 972 l 865 972 l 496 583 l 906 0 l 729 0 l 397 479 l 256 329 l 256 0 l 111 0 z "},"Ќ":{"ha":893,"x_min":111,"x_max":906,"o":"m 111 0 l 111 972 l 256 972 l 256 521 l 683 972 l 865 972 l 496 583 l 906 0 l 729 0 l 397 479 l 256 329 l 256 0 l 111 0 m 481 1254 l 631 1254 l 488 1049 l 367 1049 l 481 1254 z "},"Л":{"ha":982,"x_min":42,"x_max":871,"o":"m 42 133 l 88 133 q 151 158 132 133 q 172 257 169 183 q 182 706 179 457 l 188 972 l 871 972 l 871 0 l 726 0 l 726 844 l 319 844 l 315 643 q 307 240 314 443 q 257 55 301 110 q 110 0 213 0 l 42 0 l 42 133 z "},"М":{"ha":1197,"x_min":111,"x_max":1086,"o":"m 111 972 l 289 972 l 599 197 l 908 972 l 1086 972 l 1086 0 l 947 0 l 947 724 l 657 0 l 540 0 l 249 724 l 249 0 l 111 0 l 111 972 z "},"Н":{"ha":993,"x_min":111,"x_max":882,"o":"m 738 436 l 254 436 l 254 0 l 111 0 l 111 972 l 254 972 l 254 564 l 738 564 l 738 972 l 882 972 l 882 0 l 738 0 l 738 436 z "},"О":{"ha":1082,"x_min":58,"x_max":1024,"o":"m 542 -11 q 294 53 404 -11 q 121 231 183 118 q 58 486 58 344 q 121 741 58 628 q 294 919 183 854 q 542 983 404 983 q 788 919 678 983 q 961 741 899 854 q 1024 486 1024 628 q 961 231 1024 344 q 788 53 899 118 q 542 -11 678 -11 m 540 117 q 713 165 636 117 q 833 297 789 213 q 876 486 876 381 q 833 676 876 592 q 713 808 789 760 q 540 856 636 856 q 368 808 444 856 q 249 676 292 760 q 206 486 206 592 q 249 297 206 381 q 368 165 292 213 q 540 117 444 117 z "},"П":{"ha":989,"x_min":111,"x_max":878,"o":"m 733 844 l 256 844 l 256 0 l 111 0 l 111 972 l 878 972 l 878 0 l 733 0 l 733 844 z "},"Р":{"ha":838,"x_min":111,"x_max":806,"o":"m 111 972 l 488 972 q 658 935 586 972 q 767 832 729 899 q 806 679 806 765 q 767 526 806 593 q 658 423 729 460 q 488 386 586 386 l 256 386 l 256 0 l 111 0 l 111 972 m 483 511 q 614 558 571 511 q 657 679 657 606 q 614 800 657 753 q 483 847 571 847 l 256 847 l 256 511 l 483 511 z "},"С":{"ha":1008,"x_min":60,"x_max":956,"o":"m 535 -11 q 297 45 406 -11 q 124 214 189 101 q 60 486 60 326 q 125 758 60 646 q 299 927 190 871 q 535 983 407 983 q 735 942 643 983 q 885 826 826 900 q 956 660 943 753 l 804 660 q 759 760 797 715 q 662 831 721 806 q 533 856 603 856 q 364 813 438 856 q 249 686 290 769 q 207 486 207 603 q 249 286 207 369 q 365 160 290 203 q 535 117 439 117 q 719 172 642 117 q 807 313 796 226 l 954 313 q 887 146 944 219 q 738 31 829 72 q 535 -11 646 -11 z "},"Т":{"ha":783,"x_min":15,"x_max":768,"o":"m 319 844 l 15 844 l 15 972 l 768 972 l 768 844 l 464 844 l 464 0 l 319 0 l 319 844 z "},"У":{"ha":844,"x_min":18,"x_max":839,"o":"m 165 128 l 233 128 q 293 143 271 128 q 331 193 315 158 l 368 271 l 18 972 l 175 972 l 440 417 l 685 972 l 839 972 l 456 142 q 377 33 419 65 q 256 0 335 0 l 165 0 l 165 128 z "},"Ў":{"ha":844,"x_min":18,"x_max":839,"o":"m 165 128 l 233 128 q 293 143 271 128 q 331 193 315 158 l 368 271 l 18 972 l 175 972 l 440 417 l 685 972 l 839 972 l 456 142 q 377 33 419 65 q 256 0 335 0 l 165 0 l 165 128 m 428 1031 q 254 1085 319 1031 q 189 1231 189 1140 l 310 1231 q 340 1151 310 1181 q 428 1122 371 1122 q 515 1151 485 1122 q 546 1231 546 1181 l 667 1231 q 601 1085 667 1140 q 428 1031 536 1031 z "},"Ф":{"ha":1190,"x_min":53,"x_max":1136,"o":"m 522 93 q 276 142 382 96 q 111 277 169 189 q 53 486 53 365 q 111 695 53 607 q 276 830 169 783 q 522 879 382 876 l 522 986 l 667 986 l 667 879 q 913 831 807 878 q 1078 695 1019 783 q 1136 486 1136 607 q 1078 277 1136 365 q 913 142 1019 189 q 667 93 807 94 l 667 -14 l 522 -14 l 522 93 m 200 486 q 288 287 200 354 q 526 217 375 219 l 526 756 q 288 685 375 753 q 200 486 200 618 m 663 217 q 901 287 814 219 q 989 486 989 354 q 901 685 989 618 q 663 756 814 753 l 663 217 z "},"Х":{"ha":803,"x_min":14,"x_max":789,"o":"m 324 494 l 25 972 l 182 972 l 401 619 l 622 972 l 779 972 l 481 494 l 789 0 l 631 0 l 401 368 l 172 0 l 14 0 l 324 494 z "},"Ч":{"ha":906,"x_min":58,"x_max":794,"o":"m 365 408 q 132 471 206 408 q 58 686 58 533 l 58 972 l 203 972 l 203 700 q 219 596 203 631 q 274 549 236 561 q 386 538 313 538 l 650 538 l 650 972 l 794 972 l 794 0 l 650 0 l 650 408 l 365 408 z "},"Ц":{"ha":1029,"x_min":111,"x_max":985,"o":"m 847 0 l 111 0 l 111 972 l 256 972 l 256 128 l 731 128 l 731 972 l 875 972 l 875 128 l 985 128 l 985 -206 l 847 -206 l 847 0 z "},"Ш":{"ha":1338,"x_min":111,"x_max":1226,"o":"m 111 972 l 256 972 l 256 128 l 596 128 l 596 972 l 740 972 l 740 128 l 1082 128 l 1082 972 l 1226 972 l 1226 0 l 111 0 l 111 972 z "},"Щ":{"ha":1381,"x_min":111,"x_max":1336,"o":"m 1197 0 l 111 0 l 111 972 l 256 972 l 256 128 l 596 128 l 596 972 l 740 972 l 740 128 l 1082 128 l 1082 972 l 1226 972 l 1226 128 l 1336 128 l 1336 -206 l 1197 -206 l 1197 0 z "},"Џ":{"ha":986,"x_min":111,"x_max":875,"o":"m 111 972 l 256 972 l 256 128 l 731 128 l 731 972 l 875 972 l 875 0 l 563 0 l 563 -208 l 424 -208 l 424 0 l 111 0 l 111 972 z "},"Ь":{"ha":863,"x_min":111,"x_max":829,"o":"m 111 972 l 254 972 l 254 621 l 478 621 q 733 539 638 621 q 829 311 829 457 q 733 83 829 165 q 478 0 638 0 l 111 0 l 111 972 m 464 128 q 628 175 569 128 q 686 311 686 222 q 628 449 686 401 q 464 496 569 496 l 254 496 l 254 128 l 464 128 z "},"Ы":{"ha":1208,"x_min":111,"x_max":1097,"o":"m 111 972 l 254 972 l 254 621 l 478 621 q 733 539 638 621 q 829 311 829 457 q 733 83 829 165 q 478 0 638 0 l 111 0 l 111 972 m 954 972 l 1097 972 l 1097 0 l 954 0 l 954 972 m 464 128 q 628 175 569 128 q 686 311 686 222 q 628 449 686 401 q 464 496 569 496 l 254 496 l 254 128 l 464 128 z "},"Ъ":{"ha":1032,"x_min":17,"x_max":999,"o":"m 281 844 l 17 844 l 17 972 l 424 972 l 424 621 l 647 621 q 903 539 807 621 q 999 311 999 457 q 903 83 999 165 q 647 0 807 0 l 281 0 l 281 844 m 633 128 q 797 175 739 128 q 856 311 856 222 q 797 449 856 401 q 633 496 739 496 l 424 496 l 424 128 l 633 128 z "},"Љ":{"ha":1444,"x_min":42,"x_max":1413,"o":"m 42 133 l 85 133 q 149 158 131 133 q 169 257 167 183 q 181 667 178 535 q 188 972 182 765 l 851 972 l 851 564 l 1061 564 q 1319 495 1226 564 q 1413 283 1413 426 q 1319 70 1413 140 q 1061 0 1225 0 l 708 0 l 708 844 l 319 844 q 314 603 317 764 q 304 240 308 361 q 255 55 299 110 q 108 0 211 0 l 42 0 l 42 133 m 1047 124 q 1214 160 1158 124 q 1269 283 1269 197 q 1214 406 1269 369 q 1047 443 1158 443 l 851 443 l 851 124 l 1047 124 z "},"Њ":{"ha":1474,"x_min":111,"x_max":1443,"o":"m 739 436 l 254 436 l 254 0 l 111 0 l 111 972 l 254 972 l 254 564 l 739 564 l 739 972 l 882 972 l 882 564 l 1090 564 q 1349 495 1256 564 q 1443 283 1443 426 q 1349 70 1443 140 q 1090 0 1254 0 l 739 0 l 739 436 m 1078 122 q 1244 158 1189 122 q 1300 283 1300 194 q 1244 408 1300 372 q 1078 443 1189 443 l 882 443 l 882 122 l 1078 122 z "},"Ѕ":{"ha":838,"x_min":54,"x_max":783,"o":"m 428 -11 q 160 78 258 -11 q 54 322 63 168 l 194 322 q 261 171 203 225 q 428 117 319 117 q 580 155 524 117 q 636 269 636 193 q 606 352 636 321 q 528 401 575 383 q 401 438 482 418 q 236 488 299 463 q 128 569 174 514 q 83 718 83 625 q 126 856 83 796 q 244 950 168 917 q 417 983 319 983 q 592 947 515 983 q 713 844 668 911 q 764 690 758 778 l 624 690 q 561 810 617 765 q 417 856 506 856 q 279 819 329 856 q 229 719 229 782 q 260 638 229 668 q 336 591 290 607 q 461 557 382 575 q 628 508 564 533 q 738 426 692 482 q 783 271 783 369 q 738 119 783 183 q 613 22 693 56 q 428 -11 532 -11 z "},"Є":{"ha":1008,"x_min":61,"x_max":957,"o":"m 535 -11 q 298 46 406 -11 q 126 216 190 103 q 61 490 61 329 q 126 763 61 651 q 299 928 192 874 q 535 983 407 983 q 735 942 643 983 q 885 826 826 900 q 957 657 944 751 l 806 657 q 717 800 793 744 q 535 856 640 856 q 316 779 403 856 q 213 558 229 703 l 701 558 l 701 433 l 211 433 q 313 199 225 282 q 535 117 400 117 q 720 173 643 117 q 808 315 797 229 l 956 315 q 888 148 946 222 q 738 31 831 74 q 535 -11 646 -11 z "},"Э":{"ha":1008,"x_min":53,"x_max":949,"o":"m 475 -11 q 272 30 364 -11 q 122 144 179 71 q 54 313 64 218 l 201 313 q 290 172 213 226 q 475 117 367 117 q 698 199 611 117 q 799 433 785 282 l 308 433 l 308 558 l 797 558 q 692 778 779 701 q 475 856 606 856 q 293 800 369 856 q 204 660 217 744 l 53 660 q 124 828 65 754 q 274 942 182 901 q 475 983 365 983 q 710 927 603 983 q 883 758 818 871 q 949 486 949 646 q 884 214 949 326 q 712 45 819 101 q 475 -11 604 -11 z "},"І":{"ha":367,"x_min":111,"x_max":256,"o":"m 111 972 l 256 972 l 256 0 l 111 0 l 111 972 z "},"Ї":{"ha":367,"x_min":1,"x_max":365,"o":"m 111 972 l 256 972 l 256 0 l 111 0 l 111 972 m 365 1233 l 365 1094 l 243 1094 l 243 1233 l 365 1233 m 124 1233 l 124 1093 l 1 1093 l 1 1233 l 124 1233 z "},"Ј":{"ha":474,"x_min":17,"x_max":368,"o":"m 17 128 l 131 128 q 201 161 179 128 q 224 263 224 194 l 224 972 l 368 972 l 368 258 q 312 66 368 132 q 150 0 256 0 l 17 0 l 17 128 z "},"Ћ":{"ha":978,"x_min":19,"x_max":915,"o":"m 771 303 q 753 407 771 372 q 699 453 736 442 q 588 465 661 465 l 365 465 l 365 0 l 221 0 l 221 849 l 19 849 l 19 972 l 715 972 l 715 849 l 365 849 l 365 594 l 613 594 q 843 532 771 594 q 915 317 915 469 l 915 0 l 771 0 l 771 303 z "},"Ю":{"ha":1379,"x_min":111,"x_max":1321,"o":"m 851 -11 q 626 46 728 -11 q 460 205 524 103 q 386 436 397 307 l 256 436 l 256 0 l 111 0 l 111 972 l 256 972 l 256 564 l 389 564 q 468 781 404 686 q 632 930 532 876 q 851 983 732 983 q 1090 919 983 983 q 1259 742 1197 856 q 1321 488 1321 629 q 1259 232 1321 346 q 1090 53 1197 118 q 851 -11 983 -11 m 851 117 q 1017 165 943 117 q 1132 297 1090 213 q 1174 488 1174 382 q 1132 677 1174 593 q 1017 808 1090 761 q 851 856 943 856 q 686 808 760 856 q 572 677 613 761 q 531 488 531 593 q 572 297 531 381 q 687 165 614 213 q 851 117 760 117 z "},"Я":{"ha":914,"x_min":75,"x_max":803,"o":"m 658 383 l 388 383 q 285 342 325 383 q 239 236 244 301 l 218 0 l 75 0 l 97 244 q 138 374 103 318 q 231 458 174 429 q 119 553 158 493 q 81 694 81 613 q 167 897 81 822 q 406 972 253 972 l 803 972 l 803 0 l 658 0 l 658 383 m 658 511 l 658 847 l 401 847 q 270 800 313 847 q 228 681 228 753 q 271 560 228 608 q 401 511 314 511 l 658 511 z "},"Ђ":{"ha":978,"x_min":19,"x_max":915,"o":"m 567 -58 l 653 -58 q 740 -25 708 -58 q 771 69 771 8 l 771 303 q 753 407 771 372 q 699 453 736 442 q 588 465 661 465 l 365 465 l 365 0 l 221 0 l 221 849 l 19 849 l 19 972 l 715 972 l 715 849 l 365 849 l 365 594 l 613 594 q 843 532 771 594 q 915 317 915 469 l 915 72 q 849 -115 915 -44 q 675 -186 783 -186 l 567 -186 l 567 -58 z "},"Җ":{"ha":1315,"x_min":-1,"x_max":1303,"o":"m 700 472 l 700 0 l 556 0 l 556 472 l 179 0 l -1 0 l 406 510 l 17 972 l 190 972 l 556 536 l 556 972 l 700 972 l 700 536 l 1065 972 l 1238 972 l 850 510 l 1154 128 l 1303 128 l 1303 -206 l 1164 -206 l 1164 0 l 1075 0 l 700 472 z "},"Қ":{"ha":933,"x_min":111,"x_max":929,"o":"m 790 0 l 729 0 l 397 479 l 256 329 l 256 0 l 111 0 l 111 972 l 256 972 l 256 521 l 683 972 l 865 972 l 496 583 l 815 128 l 929 128 l 929 -206 l 790 -206 l 790 0 z "},"Ң":{"ha":1036,"x_min":111,"x_max":992,"o":"m 738 436 l 254 436 l 254 0 l 111 0 l 111 972 l 254 972 l 254 564 l 738 564 l 738 972 l 882 972 l 882 128 l 992 128 l 992 -206 l 853 -206 l 853 0 l 738 0 l 738 436 z "},"Ү":{"ha":856,"x_min":15,"x_max":840,"o":"m 356 406 l 15 972 l 175 972 l 428 543 l 681 972 l 840 972 l 500 406 l 500 0 l 356 0 l 356 406 z "},"Ұ":{"ha":854,"x_min":14,"x_max":840,"o":"m 354 297 l 140 297 l 140 406 l 354 406 l 14 972 l 175 972 l 426 543 l 679 972 l 840 972 l 499 406 l 715 406 l 715 297 l 499 297 l 499 0 l 354 0 l 354 297 z "},"Ҳ":{"ha":833,"x_min":13,"x_max":814,"o":"m 675 0 l 631 0 l 401 368 l 171 0 l 13 0 l 322 494 l 24 972 l 181 972 l 401 619 l 622 972 l 778 972 l 479 494 l 708 128 l 814 128 l 814 -206 l 675 -206 l 675 0 z "},"Ҷ":{"ha":950,"x_min":58,"x_max":906,"o":"m 365 408 q 132 471 206 408 q 58 686 58 533 l 58 972 l 203 972 l 203 700 q 219 596 203 631 q 274 549 236 561 q 386 538 313 538 l 650 538 l 650 972 l 794 972 l 794 128 l 906 128 l 906 -206 l 767 -206 l 767 0 l 650 0 l 650 408 l 365 408 z "},"Һ":{"ha":908,"x_min":111,"x_max":847,"o":"m 703 313 q 685 417 703 382 q 631 463 668 451 q 519 475 593 475 l 256 475 l 256 0 l 111 0 l 111 972 l 256 972 l 256 603 l 544 603 q 716 577 650 603 q 815 491 782 551 q 847 326 847 431 l 847 0 l 703 0 l 703 313 z "},"Ӏ":{"ha":367,"x_min":111,"x_max":256,"o":"m 111 972 l 256 972 l 256 0 l 111 0 l 111 972 z "},"Ә":{"ha":1076,"x_min":61,"x_max":1017,"o":"m 531 -11 q 302 38 408 -11 q 128 199 196 88 q 61 482 61 310 q 64 547 61 503 l 874 547 q 760 778 856 697 q 529 860 665 860 q 328 805 413 860 q 226 661 244 750 l 78 661 q 157 830 94 757 q 315 943 219 903 q 528 983 411 983 q 771 928 660 983 q 949 762 882 874 q 1017 488 1017 650 q 951 215 1017 328 q 774 46 885 103 q 531 -11 664 -11 m 204 429 q 309 188 215 263 q 532 113 403 113 q 694 150 621 113 q 815 259 768 188 q 874 429 863 331 l 204 429 z "},"Ӣ":{"ha":997,"x_min":111,"x_max":886,"o":"m 111 972 l 254 972 l 254 208 l 725 972 l 886 972 l 886 0 l 743 0 l 743 761 l 272 0 l 111 0 l 111 972 m 311 1199 l 686 1199 l 686 1090 l 311 1090 l 311 1199 z "},"Ө":{"ha":1082,"x_min":58,"x_max":1024,"o":"m 542 -11 q 294 53 404 -11 q 121 231 183 118 q 58 486 58 344 q 121 741 58 628 q 294 919 183 854 q 542 983 404 983 q 788 919 678 983 q 961 741 899 854 q 1024 486 1024 628 q 961 231 1024 344 q 788 53 899 118 q 542 -11 678 -11 m 540 117 q 700 157 628 117 q 817 269 772 197 q 874 432 863 340 l 208 432 q 265 269 219 340 q 381 157 310 197 q 540 117 453 117 m 874 540 q 817 703 863 632 q 700 815 772 775 q 540 856 628 856 q 381 815 453 856 q 265 703 310 775 q 208 540 219 632 l 874 540 z "},"Ӯ":{"ha":844,"x_min":18,"x_max":839,"o":"m 165 128 l 233 128 q 293 143 271 128 q 331 193 315 158 l 368 271 l 18 972 l 175 972 l 440 417 l 685 972 l 839 972 l 456 142 q 377 33 419 65 q 256 0 335 0 l 165 0 l 165 128 m 240 1199 l 615 1199 l 615 1090 l 240 1090 l 240 1199 z "},"а":{"ha":754,"x_min":65,"x_max":665,"o":"m 304 -11 q 131 47 197 -11 q 65 200 65 106 q 140 363 65 301 q 338 424 214 424 l 485 424 q 532 460 532 424 q 487 563 532 524 q 363 603 442 603 q 242 564 290 603 q 190 471 193 525 l 65 471 q 111 594 71 539 q 218 680 151 649 q 367 711 285 711 q 524 678 456 711 q 628 588 592 646 q 665 451 665 529 l 665 0 l 532 0 l 532 115 q 444 23 506 57 q 304 -11 383 -11 m 331 96 q 478 153 425 96 q 532 307 532 210 l 532 319 l 351 319 q 241 288 282 319 q 200 203 200 257 q 235 125 200 154 q 331 96 271 96 z "},"б":{"ha":851,"x_min":76,"x_max":799,"o":"m 439 -11 q 170 98 264 -11 q 76 396 76 207 q 99 729 76 611 q 200 912 122 847 q 438 982 278 976 l 749 993 l 749 865 l 446 854 q 303 822 351 850 q 235 734 254 793 q 213 568 215 675 q 324 653 257 625 q 471 682 392 682 q 649 637 575 682 q 761 513 724 592 q 799 339 799 435 q 757 166 799 246 q 633 38 715 86 q 439 -11 551 -11 m 439 107 q 563 140 513 107 q 638 224 614 172 q 663 336 663 276 q 606 498 663 432 q 440 564 550 564 q 273 501 329 564 q 217 336 217 438 q 273 174 217 242 q 439 107 329 107 z "},"в":{"ha":747,"x_min":99,"x_max":696,"o":"m 99 700 l 436 700 q 597 652 539 700 q 656 522 656 604 q 633 438 656 474 q 574 382 611 401 q 663 320 631 364 q 696 208 696 276 q 632 56 696 111 q 444 0 568 0 l 99 0 l 99 700 m 428 104 q 526 131 492 104 q 561 210 561 158 q 428 314 561 314 l 228 314 l 228 104 l 428 104 m 414 415 q 528 510 528 415 q 414 596 528 596 l 228 596 l 228 415 l 414 415 z "},"г":{"ha":601,"x_min":99,"x_max":586,"o":"m 99 700 l 586 700 l 586 583 l 233 583 l 233 0 l 99 0 l 99 700 z "},"ѓ":{"ha":601,"x_min":99,"x_max":586,"o":"m 99 700 l 586 700 l 586 583 l 233 583 l 233 0 l 99 0 l 99 700 m 375 982 l 525 982 l 382 776 l 261 776 l 375 982 z "},"ґ":{"ha":601,"x_min":99,"x_max":586,"o":"m 233 0 l 99 0 l 99 700 l 463 700 l 463 885 l 586 885 l 586 583 l 233 583 l 233 0 z "},"ғ":{"ha":621,"x_min":42,"x_max":604,"o":"m 42 378 l 115 378 l 115 700 l 604 700 l 604 583 l 250 583 l 250 378 l 506 378 l 506 274 l 250 274 l 250 0 l 115 0 l 115 274 l 42 274 l 42 378 z "},"д":{"ha":851,"x_min":32,"x_max":808,"o":"m 32 117 l 61 117 q 126 157 103 117 q 150 292 149 197 l 158 700 l 713 700 l 713 117 l 808 117 l 808 -178 l 679 -178 l 679 0 l 161 0 l 161 -178 l 32 -178 l 32 117 m 578 117 l 578 583 l 282 583 l 278 285 q 231 117 276 181 l 578 117 z "},"е":{"ha":778,"x_min":51,"x_max":725,"o":"m 401 -11 q 217 39 296 -11 q 94 172 138 89 q 51 354 51 256 q 92 534 51 453 q 208 663 132 615 q 389 711 285 711 q 567 666 493 711 q 681 545 642 621 q 719 379 719 469 q 717 325 719 350 l 183 325 q 251 165 192 226 q 401 104 311 104 q 526 136 478 104 q 590 228 575 168 l 725 228 q 619 54 707 119 q 401 -11 532 -11 m 583 429 q 526 556 576 510 q 389 603 475 603 q 255 558 307 603 q 188 429 203 514 l 583 429 z "},"ѐ":{"ha":778,"x_min":51,"x_max":725,"o":"m 401 -11 q 217 39 296 -11 q 94 172 138 89 q 51 354 51 256 q 92 534 51 453 q 208 663 132 615 q 389 711 285 711 q 567 666 493 711 q 681 545 642 621 q 719 379 719 469 q 717 325 719 350 l 183 325 q 251 165 192 226 q 401 104 311 104 q 526 136 478 104 q 590 228 575 168 l 725 228 q 619 54 707 119 q 401 -11 532 -11 m 583 429 q 526 556 576 510 q 389 603 475 603 q 255 558 307 603 q 188 429 203 514 l 583 429 m 186 982 l 338 982 l 451 776 l 329 776 l 186 982 z "},"ё":{"ha":778,"x_min":51,"x_max":725,"o":"m 401 -11 q 217 39 296 -11 q 94 172 138 89 q 51 354 51 256 q 92 534 51 453 q 208 663 132 615 q 389 711 285 711 q 567 666 493 711 q 681 545 642 621 q 719 379 719 469 q 717 325 719 350 l 183 325 q 251 165 192 226 q 401 104 311 104 q 526 136 478 104 q 590 228 575 168 l 725 228 q 619 54 707 119 q 401 -11 532 -11 m 583 429 q 526 556 576 510 q 389 603 475 603 q 255 558 307 603 q 188 429 203 514 l 583 429 m 574 961 l 574 822 l 451 822 l 451 961 l 574 961 m 332 961 l 332 821 l 210 821 l 210 961 l 332 961 z "},"ж":{"ha":1065,"x_min":-7,"x_max":1072,"o":"m 331 371 l 13 700 l 172 700 l 465 393 l 465 700 l 600 700 l 600 392 l 894 700 l 1053 700 l 736 371 l 1072 0 l 900 0 l 600 338 l 600 0 l 465 0 l 465 336 l 165 0 l -7 0 l 331 371 z "},"з":{"ha":697,"x_min":42,"x_max":646,"o":"m 343 -11 q 131 51 208 -11 q 42 221 53 113 l 175 221 q 231 128 188 158 q 343 97 274 97 q 463 128 419 97 q 507 211 507 158 q 473 284 507 258 q 369 310 439 310 l 264 310 l 264 418 l 361 418 q 446 440 417 418 q 475 504 475 463 q 438 576 475 550 q 342 603 400 603 q 237 567 275 603 q 196 472 199 532 l 61 472 q 147 648 71 585 q 346 711 224 711 q 534 659 460 711 q 608 521 608 607 q 585 437 608 472 q 525 382 563 401 q 613 321 581 365 q 646 211 646 276 q 564 50 646 111 q 343 -11 482 -11 z "},"и":{"ha":821,"x_min":99,"x_max":722,"o":"m 99 700 l 229 700 l 229 181 l 581 700 l 722 700 l 722 0 l 592 0 l 592 519 l 242 0 l 99 0 l 99 700 z "},"й":{"ha":821,"x_min":99,"x_max":722,"o":"m 99 700 l 229 700 l 229 181 l 581 700 l 722 700 l 722 0 l 592 0 l 592 519 l 242 0 l 99 0 l 99 700 m 411 776 q 254 831 314 776 q 194 972 194 886 l 306 972 q 333 896 306 924 q 411 868 361 868 q 489 896 461 868 q 517 972 517 924 l 626 972 q 567 831 626 886 q 411 776 508 776 z "},"ѝ":{"ha":821,"x_min":99,"x_max":722,"o":"m 99 700 l 229 700 l 229 181 l 581 700 l 722 700 l 722 0 l 592 0 l 592 519 l 242 0 l 99 0 l 99 700 m 206 982 l 357 982 l 471 776 l 349 776 l 206 982 z "},"к":{"ha":729,"x_min":99,"x_max":740,"o":"m 99 700 l 233 700 l 233 392 l 546 700 l 715 700 l 415 406 l 740 0 l 571 0 l 324 315 l 233 226 l 233 0 l 99 0 l 99 700 z "},"ќ":{"ha":729,"x_min":99,"x_max":740,"o":"m 99 700 l 233 700 l 233 392 l 546 700 l 715 700 l 415 406 l 740 0 l 571 0 l 324 315 l 233 226 l 233 0 l 99 0 l 99 700 m 410 982 l 560 982 l 417 776 l 296 776 l 410 982 z "},"л":{"ha":811,"x_min":38,"x_max":714,"o":"m 38 121 l 78 121 q 126 141 111 121 q 142 214 140 161 q 156 700 151 436 l 714 700 l 714 0 l 579 0 l 579 583 l 278 583 q 267 179 272 314 q 222 44 263 88 q 106 0 182 0 l 38 0 l 38 121 z "},"м":{"ha":976,"x_min":99,"x_max":878,"o":"m 99 700 l 265 700 l 489 182 l 711 700 l 878 700 l 878 0 l 750 0 l 750 515 l 529 0 l 447 0 l 225 515 l 225 0 l 99 0 l 99 700 z "},"н":{"ha":818,"x_min":99,"x_max":719,"o":"m 585 306 l 233 306 l 233 0 l 99 0 l 99 700 l 233 700 l 233 422 l 585 422 l 585 700 l 719 700 l 719 0 l 585 0 l 585 306 z "},"о":{"ha":824,"x_min":51,"x_max":772,"o":"m 413 -11 q 226 35 308 -11 q 98 164 144 82 q 51 350 51 246 q 98 536 51 454 q 226 665 144 618 q 413 711 308 711 q 599 665 517 711 q 726 536 681 618 q 772 350 772 454 q 726 164 772 246 q 599 35 681 82 q 413 -11 517 -11 m 413 107 q 573 175 511 107 q 635 350 635 243 q 573 525 635 457 q 413 593 511 593 q 251 525 313 593 q 189 350 189 457 q 251 175 189 243 q 413 107 313 107 z "},"п":{"ha":808,"x_min":99,"x_max":710,"o":"m 575 583 l 233 583 l 233 0 l 99 0 l 99 700 l 710 700 l 710 0 l 575 0 l 575 583 z "},"р":{"ha":843,"x_min":99,"x_max":789,"o":"m 99 700 l 233 700 l 233 597 q 326 680 265 649 q 457 711 388 711 q 635 665 560 711 q 749 536 710 618 q 789 350 789 454 q 749 164 789 246 q 635 35 710 82 q 458 -11 561 -11 q 326 20 388 -11 q 233 104 265 51 l 233 -283 l 99 -283 l 99 700 m 438 107 q 594 174 535 107 q 653 350 653 240 q 594 526 653 460 q 438 593 535 593 q 281 526 340 593 q 222 350 222 460 q 281 174 222 240 q 438 107 340 107 z "},"с":{"ha":772,"x_min":53,"x_max":724,"o":"m 399 -11 q 215 38 293 -11 q 94 169 136 88 q 53 350 53 251 q 94 531 53 449 q 215 662 136 613 q 399 711 293 711 q 551 680 481 711 q 668 591 622 649 q 724 456 714 533 l 589 456 q 526 554 579 515 q 401 593 474 593 q 247 524 301 593 q 193 350 193 456 q 248 176 193 244 q 403 107 303 107 q 524 142 474 107 q 590 236 574 176 l 724 236 q 619 57 707 125 q 399 -11 532 -11 z "},"т":{"ha":667,"x_min":15,"x_max":651,"o":"m 265 583 l 15 583 l 15 700 l 651 700 l 651 583 l 400 583 l 400 0 l 265 0 l 265 583 z "},"у":{"ha":686,"x_min":24,"x_max":663,"o":"m 278 -11 l 24 700 l 161 700 l 343 164 l 524 700 l 663 700 l 311 -283 l 179 -283 l 278 -11 z "},"ў":{"ha":686,"x_min":24,"x_max":663,"o":"m 278 -11 l 24 700 l 161 700 l 343 164 l 524 700 l 663 700 l 311 -283 l 179 -283 l 278 -11 m 346 776 q 189 831 249 776 q 129 972 129 886 l 240 972 q 268 896 240 924 q 346 868 296 868 q 424 896 396 868 q 451 972 451 924 l 561 972 q 502 831 561 886 q 346 776 443 776 z "},"ф":{"ha":1032,"x_min":51,"x_max":981,"o":"m 449 -11 q 238 38 328 -7 q 100 164 149 83 q 51 350 51 244 q 100 536 51 456 q 238 662 149 617 q 449 711 328 707 l 449 983 l 583 983 l 583 711 q 794 663 704 708 q 932 536 883 617 q 981 350 981 456 q 932 164 981 244 q 794 38 883 83 q 583 -11 704 -8 l 583 -283 l 449 -283 l 449 -11 m 189 350 q 258 176 189 242 q 454 106 326 110 l 454 594 q 258 524 326 590 q 189 350 189 458 m 579 106 q 775 175 707 110 q 843 350 843 240 q 775 525 843 460 q 579 594 707 590 l 579 106 z "},"х":{"ha":671,"x_min":7,"x_max":665,"o":"m 7 0 l 260 365 l 26 700 l 181 700 l 336 475 l 492 700 l 644 700 l 413 367 l 665 0 l 514 0 l 336 257 l 157 0 l 7 0 z "},"ч":{"ha":742,"x_min":47,"x_max":643,"o":"m 296 275 q 110 330 172 275 q 47 508 47 385 l 47 700 l 182 700 l 182 529 q 211 421 182 450 q 321 392 240 392 l 508 392 l 508 700 l 643 700 l 643 0 l 508 0 l 508 275 l 296 275 z "},"ц":{"ha":850,"x_min":99,"x_max":808,"o":"m 678 0 l 99 0 l 99 700 l 233 700 l 233 117 l 576 117 l 576 700 l 711 700 l 711 117 l 808 117 l 808 -178 l 678 -178 l 678 0 z "},"ш":{"ha":1149,"x_min":99,"x_max":1050,"o":"m 99 700 l 233 700 l 233 117 l 507 117 l 507 700 l 642 700 l 642 117 l 915 117 l 915 700 l 1050 700 l 1050 0 l 99 0 l 99 700 z "},"щ":{"ha":1189,"x_min":99,"x_max":1147,"o":"m 1017 0 l 99 0 l 99 700 l 233 700 l 233 117 l 507 117 l 507 700 l 642 700 l 642 117 l 915 117 l 915 700 l 1050 700 l 1050 117 l 1147 117 l 1147 -178 l 1017 -178 l 1017 0 z "},"џ":{"ha":815,"x_min":99,"x_max":717,"o":"m 99 700 l 233 700 l 233 117 l 582 117 l 582 700 l 717 700 l 717 0 l 472 0 l 472 -181 l 343 -181 l 343 0 l 99 0 l 99 700 z "},"ь":{"ha":722,"x_min":99,"x_max":689,"o":"m 99 700 l 233 700 l 233 458 l 411 458 q 617 399 546 458 q 689 231 689 340 q 617 60 689 119 q 411 0 546 0 l 99 0 l 99 700 m 400 111 q 514 142 474 111 q 554 231 554 172 q 514 318 554 288 q 400 349 474 349 l 233 349 l 233 111 l 400 111 z "},"ы":{"ha":1051,"x_min":99,"x_max":953,"o":"m 99 700 l 233 700 l 233 458 l 411 458 q 617 399 546 458 q 689 231 689 340 q 617 60 689 119 q 411 0 546 0 l 99 0 l 99 700 m 819 700 l 953 700 l 953 0 l 819 0 l 819 700 m 400 111 q 514 142 474 111 q 554 231 554 172 q 514 318 554 288 q 400 349 474 349 l 233 349 l 233 111 l 400 111 z "},"ъ":{"ha":843,"x_min":17,"x_max":811,"o":"m 17 700 l 354 700 l 354 458 l 532 458 q 739 400 667 458 q 811 231 811 342 q 739 60 811 119 q 532 0 667 0 l 219 0 l 219 583 l 17 583 l 17 700 m 521 111 q 635 142 594 111 q 675 231 675 172 q 635 318 675 288 q 521 349 594 349 l 354 349 l 354 111 l 521 111 z "},"љ":{"ha":1189,"x_min":38,"x_max":1156,"o":"m 38 121 l 78 121 q 126 141 111 121 q 142 214 140 161 q 156 700 151 436 l 699 700 l 699 458 l 876 458 q 1083 400 1011 458 q 1156 231 1156 342 q 1083 60 1156 119 q 876 0 1011 0 l 564 0 l 564 583 l 278 583 q 267 179 272 314 q 224 42 263 83 q 110 0 186 0 l 38 0 l 38 121 m 865 111 q 981 142 940 111 q 1021 231 1021 172 q 981 318 1021 288 q 865 349 940 349 l 699 349 l 699 111 l 865 111 z "},"њ":{"ha":1175,"x_min":99,"x_max":1144,"o":"m 585 303 l 233 303 l 233 0 l 99 0 l 99 700 l 233 700 l 233 422 l 585 422 l 585 700 l 719 700 l 719 424 l 899 424 q 1078 367 1011 424 q 1144 213 1144 310 q 1078 57 1144 114 q 899 0 1011 0 l 585 0 l 585 303 m 883 110 q 976 137 942 110 q 1010 213 1010 164 q 976 288 1010 261 q 883 314 942 314 l 719 314 l 719 110 l 883 110 z "},"ѕ":{"ha":647,"x_min":47,"x_max":592,"o":"m 329 -11 q 129 51 203 -11 q 47 228 56 114 l 171 228 q 218 133 176 168 q 328 99 260 99 q 428 126 390 99 q 465 201 465 154 q 444 256 465 236 q 390 286 422 276 q 301 306 358 296 q 180 334 228 318 q 99 390 132 350 q 65 503 65 431 q 135 653 65 594 q 315 711 206 711 q 508 653 436 711 q 586 493 579 596 l 463 493 q 417 575 457 544 q 317 606 378 606 q 226 580 263 606 q 190 508 190 554 q 210 457 190 475 q 261 431 231 439 q 349 413 292 422 q 474 385 426 400 q 557 328 522 369 q 592 208 592 286 q 522 48 592 107 q 329 -11 451 -11 z "},"є":{"ha":772,"x_min":53,"x_max":724,"o":"m 397 -11 q 213 38 292 -11 q 94 169 135 88 q 53 350 53 251 q 94 531 53 449 q 213 662 135 613 q 400 711 292 711 q 553 681 482 711 q 669 595 624 651 q 724 463 715 539 l 590 463 q 526 563 581 524 q 397 601 471 601 q 253 547 308 601 q 186 406 199 492 l 519 406 l 519 299 l 186 299 q 253 155 199 211 q 399 99 308 99 q 524 133 472 99 q 592 229 575 168 l 724 229 q 619 54 707 119 q 397 -11 531 -11 z "},"э":{"ha":772,"x_min":49,"x_max":719,"o":"m 375 -11 q 153 54 242 -11 q 49 229 65 119 l 181 229 q 249 134 197 169 q 372 99 300 99 q 519 154 464 99 q 586 299 574 210 l 253 299 l 253 406 l 586 406 q 518 547 572 493 q 374 601 464 601 q 247 562 301 601 q 182 463 192 522 l 49 463 q 104 595 58 539 q 221 681 150 651 q 375 711 292 711 q 559 662 481 711 q 678 531 638 613 q 719 350 719 449 q 678 169 719 251 q 560 38 638 88 q 375 -11 482 -11 z "},"і":{"ha":331,"x_min":90,"x_max":240,"o":"m 99 700 l 233 700 l 233 0 l 99 0 l 99 700 m 240 993 l 240 824 l 90 824 l 90 993 l 240 993 z "},"ї":{"ha":331,"x_min":-7,"x_max":336,"o":"m 99 700 l 233 700 l 233 0 l 99 0 l 99 700 m 214 989 l 336 989 l 336 826 l 214 826 l 214 989 m -7 989 l 115 989 l 115 826 l -7 826 l -7 989 z "},"ј":{"ha":331,"x_min":-49,"x_max":240,"o":"m -49 -171 l 6 -171 q 74 -140 50 -171 q 99 -53 99 -110 l 99 700 l 233 700 l 233 -61 q 178 -226 233 -168 q 19 -283 122 -283 l -49 -283 l -49 -171 m 240 993 l 240 824 l 90 824 l 90 993 l 240 993 z "},"ћ":{"ha":808,"x_min":-15,"x_max":719,"o":"m 99 794 l -15 794 l -15 893 l 99 893 l 99 993 l 233 993 l 233 893 l 469 893 l 469 794 l 233 794 l 233 576 q 320 676 261 642 q 458 711 379 711 q 648 633 576 711 q 719 431 719 556 l 719 0 l 585 0 l 585 404 q 540 539 585 488 q 421 590 494 590 q 286 531 339 590 q 233 379 233 471 l 233 0 l 99 0 l 99 794 z "},"ю":{"ha":1078,"x_min":99,"x_max":1025,"o":"m 676 -11 q 508 29 583 -11 q 387 142 433 69 q 332 306 340 214 l 233 306 l 233 0 l 99 0 l 99 700 l 233 700 l 233 422 l 335 422 q 450 631 357 551 q 676 711 543 711 q 857 665 778 711 q 981 536 936 618 q 1025 350 1025 454 q 981 164 1025 246 q 857 35 936 82 q 676 -11 778 -11 m 676 107 q 829 174 771 107 q 888 350 888 242 q 829 526 888 458 q 676 593 771 593 q 525 526 583 593 q 467 350 467 458 q 525 174 467 242 q 676 107 583 107 z "},"я":{"ha":743,"x_min":71,"x_max":644,"o":"m 88 172 q 117 267 90 224 q 194 332 143 310 q 105 401 135 357 q 75 500 75 444 q 143 646 75 592 q 324 700 211 700 l 644 700 l 644 0 l 510 0 l 510 260 l 328 260 q 252 234 281 260 q 219 160 224 208 l 207 0 l 71 0 l 88 172 m 211 483 q 248 401 211 433 q 343 368 285 368 l 510 368 l 510 588 l 343 588 q 248 559 285 588 q 211 483 211 531 z "},"ђ":{"ha":808,"x_min":-15,"x_max":719,"o":"m 438 -171 l 492 -171 q 560 -140 536 -171 q 585 -53 585 -110 l 585 404 q 540 539 585 488 q 421 590 494 590 q 286 531 339 590 q 233 379 233 471 l 233 0 l 99 0 l 99 794 l -15 794 l -15 893 l 99 893 l 99 993 l 233 993 l 233 893 l 469 893 l 469 794 l 233 794 l 233 576 q 320 676 261 642 q 458 711 379 711 q 648 633 576 711 q 719 431 719 556 l 719 -61 q 664 -226 719 -168 q 506 -283 608 -283 l 438 -283 l 438 -171 z "},"җ":{"ha":1101,"x_min":-8,"x_max":1086,"o":"m 599 333 l 599 0 l 464 0 l 464 333 l 164 0 l -8 0 l 326 371 l 11 700 l 172 700 l 464 394 l 464 700 l 599 700 l 599 394 l 892 700 l 1051 700 l 736 371 l 965 117 l 1086 117 l 1086 -178 l 956 -178 l 956 0 l 899 0 l 599 333 z "},"қ":{"ha":760,"x_min":99,"x_max":744,"o":"m 615 0 l 571 0 l 324 315 l 233 226 l 233 0 l 99 0 l 99 700 l 233 700 l 233 392 l 546 700 l 715 700 l 415 406 l 647 117 l 744 117 l 744 -178 l 615 -178 l 615 0 z "},"ң":{"ha":861,"x_min":99,"x_max":814,"o":"m 585 306 l 233 306 l 233 0 l 99 0 l 99 700 l 233 700 l 233 422 l 585 422 l 585 700 l 719 700 l 719 117 l 814 117 l 814 -178 l 683 -178 l 683 0 l 585 0 l 585 306 z "},"ү":{"ha":713,"x_min":22,"x_max":692,"o":"m 289 -8 l 22 700 l 160 700 l 356 153 l 551 700 l 692 700 l 424 -8 l 424 -283 l 289 -283 l 289 -8 z "},"ұ":{"ha":710,"x_min":21,"x_max":690,"o":"m 288 -103 l 121 -103 l 121 0 l 283 0 l 21 700 l 158 700 l 354 153 l 550 700 l 690 700 l 426 0 l 589 0 l 589 -103 l 422 -103 l 422 -283 l 288 -283 l 288 -103 z "},"ҳ":{"ha":704,"x_min":6,"x_max":688,"o":"m 557 0 l 513 0 l 335 256 l 157 0 l 6 0 l 258 365 l 25 700 l 181 700 l 336 476 l 490 700 l 644 700 l 413 367 l 585 117 l 688 117 l 688 -178 l 557 -178 l 557 0 z "},"ҷ":{"ha":778,"x_min":47,"x_max":728,"o":"m 296 275 q 110 330 172 275 q 47 508 47 385 l 47 700 l 182 700 l 182 529 q 211 421 182 450 q 321 392 240 392 l 508 392 l 508 700 l 643 700 l 643 117 l 728 117 l 728 -178 l 599 -178 l 599 0 l 508 0 l 508 275 l 296 275 z "},"һ":{"ha":808,"x_min":99,"x_max":719,"o":"m 99 993 l 233 993 l 233 576 q 320 676 261 642 q 458 711 379 711 q 648 633 576 711 q 719 431 719 556 l 719 0 l 585 0 l 585 404 q 540 539 585 488 q 421 590 494 590 q 286 531 339 590 q 233 379 233 471 l 233 0 l 99 0 l 99 993 z "},"ӏ":{"ha":331,"x_min":99,"x_max":233,"o":"m 99 993 l 233 993 l 233 0 l 99 0 l 99 993 z "},"ә":{"ha":778,"x_min":53,"x_max":726,"o":"m 376 711 q 561 661 482 711 q 683 528 640 611 q 726 346 726 444 q 686 166 726 247 q 569 37 646 85 q 389 -11 493 -11 q 210 34 285 -11 q 97 155 136 79 q 58 321 58 231 q 61 375 58 350 l 594 375 q 526 535 586 474 q 376 596 467 596 q 251 564 300 596 q 188 472 203 532 l 53 472 q 158 646 71 581 q 376 711 246 711 m 194 271 q 252 144 201 190 q 389 97 303 97 q 523 142 471 97 q 590 271 575 186 l 194 271 z "},"ӣ":{"ha":821,"x_min":99,"x_max":722,"o":"m 99 700 l 229 700 l 229 181 l 581 700 l 722 700 l 722 0 l 592 0 l 592 519 l 242 0 l 99 0 l 99 700 m 224 926 l 599 926 l 599 818 l 224 818 l 224 926 z "},"ө":{"ha":824,"x_min":51,"x_max":772,"o":"m 413 -11 q 226 35 308 -11 q 98 164 144 82 q 51 350 51 246 q 98 536 51 454 q 226 665 144 618 q 413 711 308 711 q 599 665 517 711 q 726 536 681 618 q 772 350 772 454 q 726 164 772 246 q 599 35 681 82 q 413 -11 517 -11 m 413 107 q 557 159 499 107 q 631 299 615 211 l 193 299 q 267 159 208 211 q 413 107 326 107 m 631 404 q 556 542 615 490 q 413 593 497 593 q 267 542 326 593 q 193 404 208 490 l 631 404 z "},"ӯ":{"ha":686,"x_min":24,"x_max":663,"o":"m 278 -11 l 24 700 l 161 700 l 343 164 l 524 700 l 663 700 l 311 -283 l 179 -283 l 278 -11 m 158 926 l 533 926 l 533 818 l 158 818 l 158 926 z "},"Α":{"ha":925,"x_min":14,"x_max":911,"o":"m 396 972 l 529 972 l 911 0 l 761 0 l 668 247 l 257 247 l 164 0 l 14 0 l 396 972 m 621 374 l 463 792 l 304 374 l 621 374 z "},"Β":{"ha":872,"x_min":111,"x_max":815,"o":"m 111 972 l 471 972 q 690 908 608 972 q 771 735 771 844 q 737 610 771 661 q 646 532 703 558 q 769 442 724 504 q 815 283 815 379 q 728 76 815 153 q 489 0 640 0 l 111 0 l 111 972 m 469 128 q 622 169 571 128 q 674 290 674 211 q 622 411 674 369 q 469 453 571 453 l 254 453 l 254 128 l 469 128 m 464 579 q 588 613 546 579 q 631 715 631 647 q 588 817 631 782 q 463 851 544 851 l 254 851 l 254 579 l 464 579 z "},"Γ":{"ha":739,"x_min":111,"x_max":725,"o":"m 111 972 l 725 972 l 725 844 l 256 844 l 256 0 l 111 0 l 111 972 z "},"Δ":{"ha":883,"x_min":33,"x_max":850,"o":"m 33 104 l 375 972 l 508 972 l 850 104 l 850 0 l 33 0 l 33 104 m 696 124 l 442 786 l 189 124 l 696 124 z "},"Ε":{"ha":801,"x_min":111,"x_max":750,"o":"m 111 972 l 735 972 l 735 844 l 256 844 l 256 565 l 643 565 l 643 438 l 256 438 l 256 128 l 750 128 l 750 0 l 111 0 l 111 972 z "},"Ζ":{"ha":826,"x_min":39,"x_max":775,"o":"m 39 126 l 611 846 l 68 846 l 68 972 l 775 972 l 775 846 l 203 126 l 775 126 l 775 0 l 39 0 l 39 126 z "},"Η":{"ha":993,"x_min":111,"x_max":882,"o":"m 738 436 l 254 436 l 254 0 l 111 0 l 111 972 l 254 972 l 254 564 l 738 564 l 738 972 l 882 972 l 882 0 l 738 0 l 738 436 z "},"Θ":{"ha":1082,"x_min":58,"x_max":1024,"o":"m 344 556 l 739 556 l 739 432 l 344 432 l 344 556 m 540 -11 q 294 53 404 -11 q 121 231 183 118 q 58 486 58 344 q 121 741 58 628 q 294 919 183 854 q 540 983 404 983 q 788 919 678 983 q 961 741 899 854 q 1024 486 1024 628 q 961 231 1024 344 q 788 53 899 118 q 540 -11 678 -11 m 540 117 q 713 165 636 117 q 833 297 789 213 q 876 486 876 382 q 833 675 876 590 q 712 808 789 760 q 540 856 635 856 q 369 808 446 856 q 249 675 293 760 q 206 486 206 590 q 249 297 206 382 q 369 165 293 213 q 540 117 446 117 z "},"Ι":{"ha":367,"x_min":111,"x_max":256,"o":"m 111 972 l 256 972 l 256 0 l 111 0 l 111 972 z "},"Κ":{"ha":893,"x_min":111,"x_max":906,"o":"m 111 0 l 111 972 l 256 972 l 256 521 l 683 972 l 865 972 l 496 583 l 906 0 l 729 0 l 397 479 l 256 329 l 256 0 l 111 0 z "},"Λ":{"ha":899,"x_min":14,"x_max":883,"o":"m 382 972 l 515 972 l 883 0 l 733 0 l 450 782 l 164 0 l 14 0 l 382 972 z "},"Μ":{"ha":1197,"x_min":111,"x_max":1086,"o":"m 111 972 l 289 972 l 599 197 l 908 972 l 1086 972 l 1086 0 l 947 0 l 947 724 l 657 0 l 540 0 l 249 724 l 249 0 l 111 0 l 111 972 z "},"Ν":{"ha":996,"x_min":111,"x_max":885,"o":"m 111 972 l 272 972 l 740 224 l 740 972 l 885 972 l 885 0 l 725 0 l 256 747 l 256 0 l 111 0 l 111 972 z "},"Ξ":{"ha":788,"x_min":53,"x_max":735,"o":"m 53 128 l 735 128 l 735 0 l 53 0 l 53 128 m 65 972 l 722 972 l 722 844 l 65 844 l 65 972 m 157 561 l 632 561 l 632 439 l 157 439 l 157 561 z "},"Ο":{"ha":1082,"x_min":58,"x_max":1024,"o":"m 542 -11 q 294 53 404 -11 q 121 231 183 118 q 58 486 58 344 q 121 741 58 628 q 294 919 183 854 q 542 983 404 983 q 788 919 678 983 q 961 741 899 854 q 1024 486 1024 628 q 961 231 1024 344 q 788 53 899 118 q 542 -11 678 -11 m 540 117 q 713 165 636 117 q 833 297 789 213 q 876 486 876 381 q 833 676 876 592 q 713 808 789 760 q 540 856 636 856 q 368 808 444 856 q 249 676 292 760 q 206 486 206 592 q 249 297 206 381 q 368 165 292 213 q 540 117 444 117 z "},"Π":{"ha":971,"x_min":111,"x_max":860,"o":"m 111 972 l 860 972 l 860 0 l 708 0 l 708 844 l 261 844 l 261 0 l 111 0 l 111 972 z "},"Ρ":{"ha":838,"x_min":111,"x_max":806,"o":"m 111 972 l 488 972 q 658 935 586 972 q 767 832 729 899 q 806 679 806 765 q 767 526 806 593 q 658 423 729 460 q 488 386 586 386 l 256 386 l 256 0 l 111 0 l 111 972 m 483 511 q 614 558 571 511 q 657 679 657 606 q 614 800 657 753 q 483 847 571 847 l 256 847 l 256 511 l 483 511 z "},"Σ":{"ha":751,"x_min":51,"x_max":703,"o":"m 51 119 l 426 486 l 51 853 l 51 972 l 693 972 l 693 844 l 246 844 l 558 538 l 558 435 l 246 128 l 703 128 l 703 0 l 51 0 l 51 119 z "},"Τ":{"ha":783,"x_min":15,"x_max":768,"o":"m 319 844 l 15 844 l 15 972 l 768 972 l 768 844 l 464 844 l 464 0 l 319 0 l 319 844 z "},"Υ":{"ha":856,"x_min":15,"x_max":840,"o":"m 356 406 l 15 972 l 175 972 l 428 543 l 681 972 l 840 972 l 500 406 l 500 0 l 356 0 l 356 406 z "}}}
